<svg id="svg" version="1.1" xmlns="http://www.w3.org/2000/svg" xmlns:xlink="http://www.w3.org/1999/xlink" width="400" height="400" viewBox="0, 0, 400,400"><g id="svgg"><path id="path0" d="M190.000 161.642 C 189.010 161.840,186.670 162.261,184.800 162.577 C 182.930 162.894,180.680 163.348,179.800 163.587 C 178.920 163.826,177.390 164.176,176.400 164.366 C 172.184 165.174,157.875 171.253,155.400 173.287 C 155.180 173.468,153.879 174.326,152.508 175.194 C 143.018 181.204,131.156 193.683,125.889 203.200 C 117.364 218.604,114.232 230.455,114.260 247.200 C 114.287 263.860,118.900 280.367,126.764 291.948 C 127.664 293.272,128.400 294.454,128.400 294.573 C 128.400 294.693,128.659 295.108,128.976 295.495 C 129.293 295.883,130.625 297.663,131.938 299.450 C 137.761 307.385,148.122 316.423,157.400 321.662 C 161.247 323.834,168.419 327.200,169.201 327.200 C 169.426 327.200,169.923 327.371,170.305 327.581 C 172.574 328.826,182.005 331.275,188.200 332.229 C 191.286 332.704,208.161 332.869,210.400 332.446 C 211.610 332.217,213.860 331.828,215.400 331.582 C 218.076 331.154,220.228 330.667,222.400 330.000 C 222.950 329.831,224.210 329.471,225.200 329.201 C 227.029 328.701,227.811 328.433,229.600 327.694 C 230.150 327.467,231.230 327.056,232.000 326.782 C 238.464 324.478,250.009 317.519,255.599 312.556 C 258.988 309.548,259.738 308.804,262.815 305.400 C 267.821 299.860,274.800 290.190,274.800 288.792 C 274.800 288.613,274.935 288.407,275.100 288.333 C 275.391 288.204,275.771 287.455,278.311 282.000 C 281.745 274.625,283.730 267.561,285.222 257.400 C 286.421 249.238,285.510 235.147,283.192 226.000 C 282.718 224.130,282.232 222.150,282.112 221.600 C 281.991 221.050,281.769 220.420,281.618 220.200 C 281.468 219.980,281.100 218.990,280.802 218.000 C 280.505 217.010,280.112 216.029,279.930 215.820 C 279.749 215.611,279.595 215.161,279.588 214.820 C 279.551 212.870,272.935 201.207,268.406 195.107 C 262.968 187.783,247.269 173.600,244.600 173.600 C 244.459 173.600,243.592 173.095,242.672 172.478 C 236.287 168.195,223.219 163.703,212.000 161.936 C 208.590 161.399,192.309 161.182,190.000 161.642 M223.881 190.850 C 224.497 191.097,225.450 191.502,226.000 191.750 C 227.177 192.280,230.000 194.772,230.000 195.281 C 230.000 195.475,230.182 195.851,230.404 196.117 C 230.626 196.383,231.711 198.007,232.814 199.728 L 234.820 202.855 236.989 202.584 C 239.286 202.297,241.227 203.935,240.562 205.600 C 240.430 205.930,240.158 207.910,239.958 210.000 C 239.758 212.090,239.425 215.330,239.219 217.200 C 239.013 219.070,238.733 221.770,238.598 223.200 C 238.033 229.164,237.044 230.036,232.753 228.357 C 228.019 226.504,226.763 225.989,225.905 225.553 C 225.523 225.359,224.936 225.200,224.600 225.200 C 224.264 225.200,223.677 225.041,223.295 224.847 C 222.913 224.652,222.060 224.271,221.400 224.000 C 220.740 223.729,219.887 223.348,219.505 223.153 C 219.123 222.959,218.536 222.800,218.200 222.800 C 217.864 222.800,217.277 222.640,216.895 222.444 C 216.513 222.249,215.537 221.764,214.727 221.368 C 212.148 220.106,211.867 218.036,214.063 216.477 C 215.186 215.681,215.019 215.208,212.000 210.628 C 210.460 208.291,209.200 206.204,209.200 205.990 C 209.200 205.775,209.020 205.600,208.800 205.600 C 208.580 205.600,208.400 205.364,208.400 205.075 C 208.400 204.787,208.067 204.194,207.661 203.757 C 207.254 203.321,206.849 202.786,206.761 202.568 C 206.374 201.616,200.762 192.866,200.283 192.469 C 199.867 192.123,199.458 192.523,198.393 194.314 C 197.645 195.571,196.171 197.897,195.117 199.482 C 194.063 201.067,193.200 202.552,193.200 202.782 C 193.200 203.012,193.020 203.200,192.800 203.200 C 192.580 203.200,192.400 203.382,192.400 203.604 C 192.400 203.826,191.435 205.491,190.255 207.304 C 189.075 209.117,186.425 213.300,184.367 216.600 C 180.880 222.188,179.851 223.555,179.104 223.587 C 178.607 223.609,162.251 212.540,161.416 211.618 C 160.746 210.877,160.709 210.637,161.155 209.923 C 161.441 209.465,161.993 208.530,162.381 207.845 C 162.769 207.160,164.147 204.940,165.443 202.911 C 166.739 200.882,168.610 197.935,169.600 196.363 C 171.542 193.279,173.600 191.576,176.200 190.899 C 178.513 190.297,222.394 190.252,223.881 190.850 M165.766 228.929 C 166.582 229.745,166.728 230.390,166.966 234.229 C 167.114 236.633,167.408 240.760,167.618 243.400 C 168.626 256.080,168.303 257.795,165.301 255.680 C 163.051 254.096,160.400 255.100,160.400 257.538 C 160.400 257.792,160.220 258.000,160.000 258.000 C 159.780 258.000,159.600 258.186,159.600 258.413 C 159.600 258.641,158.340 260.705,156.800 263.000 C 155.260 265.295,154.000 267.256,154.000 267.357 C 154.000 267.458,153.093 268.911,151.985 270.584 C 150.876 272.258,150.068 273.787,150.189 273.982 C 150.311 274.179,157.944 274.336,167.371 274.336 C 179.078 274.336,184.592 274.475,185.167 274.782 C 186.188 275.329,186.501 296.300,185.500 297.103 C 184.791 297.671,167.074 297.984,165.028 297.465 C 163.262 297.017,159.200 293.365,159.200 292.226 C 159.200 291.882,159.041 291.600,158.847 291.600 C 158.652 291.600,158.390 291.285,158.264 290.900 C 158.137 290.515,157.621 289.537,157.117 288.727 C 155.435 286.026,151.701 279.819,150.845 278.300 C 149.116 275.232,148.457 274.119,146.400 270.800 C 145.241 268.930,143.969 266.830,143.572 266.133 C 143.175 265.436,141.735 263.030,140.372 260.786 C 136.114 253.777,136.069 251.959,140.008 246.198 C 143.086 241.697,143.226 241.119,141.600 239.600 C 138.745 236.933,139.858 236.147,152.721 231.745 C 164.807 227.609,164.510 227.673,165.766 228.929 M253.245 235.300 C 254.318 236.484,258.800 243.512,258.800 244.011 C 258.800 244.225,258.935 244.401,259.100 244.403 C 259.265 244.405,259.595 244.810,259.834 245.303 C 260.072 245.796,260.879 247.169,261.627 248.354 C 263.861 251.893,263.594 255.139,260.712 259.472 C 260.101 260.392,259.600 261.337,259.600 261.572 C 259.600 261.807,259.420 262.000,259.200 262.000 C 258.980 262.000,258.800 262.193,258.800 262.428 C 258.800 262.663,258.260 263.641,257.600 264.600 C 256.940 265.559,256.400 266.459,256.400 266.600 C 256.400 266.741,255.860 267.641,255.200 268.600 C 254.540 269.559,254.000 270.415,254.000 270.501 C 254.000 270.587,252.268 273.525,250.150 277.029 C 248.033 280.533,245.942 284.030,245.503 284.800 C 245.065 285.570,244.367 286.678,243.953 287.262 C 243.539 287.846,243.200 288.521,243.200 288.762 C 243.200 289.003,243.041 289.200,242.847 289.200 C 242.652 289.200,242.393 289.515,242.271 289.900 C 241.975 290.836,240.676 292.966,240.300 293.133 C 240.135 293.207,240.000 293.503,240.000 293.792 C 240.000 294.527,237.452 296.684,235.736 297.401 C 234.649 297.855,232.621 298.000,227.351 298.000 L 220.400 298.000 220.400 299.546 C 220.400 302.918,217.892 304.126,215.127 302.087 C 212.108 299.861,206.083 295.227,205.551 294.722 C 205.248 294.435,203.920 293.390,202.600 292.401 C 201.280 291.412,200.110 290.511,200.000 290.399 C 199.890 290.287,199.141 289.704,198.335 289.104 C 194.412 286.182,194.534 285.833,201.194 280.858 C 202.847 279.623,204.396 278.430,204.637 278.207 C 204.877 277.983,205.670 277.350,206.400 276.800 C 207.130 276.250,207.923 275.614,208.163 275.387 C 208.404 275.160,209.230 274.534,210.000 273.998 C 210.770 273.461,211.760 272.685,212.200 272.273 C 216.685 268.076,220.365 268.178,220.391 272.500 L 220.400 274.000 224.335 274.000 C 226.499 274.000,233.159 274.119,239.135 274.264 C 251.238 274.559,250.779 274.676,248.800 271.800 C 248.140 270.841,247.600 269.945,247.600 269.810 C 247.600 269.675,246.700 268.230,245.600 266.600 C 244.500 264.970,243.600 263.530,243.600 263.400 C 243.600 263.270,242.700 261.830,241.600 260.200 C 240.500 258.570,239.600 257.130,239.600 257.001 C 239.600 256.872,239.414 256.549,239.187 256.283 C 237.789 254.646,233.500 247.259,233.500 246.489 C 233.500 245.553,234.166 244.872,236.000 243.932 C 236.550 243.650,238.297 242.560,239.882 241.510 C 241.467 240.459,242.840 239.600,242.934 239.600 C 243.028 239.600,244.971 238.431,247.252 237.002 C 251.893 234.096,252.100 234.037,253.245 235.300 " stroke="none" fill="#2fc461" fill-rule="evenodd"></path><path id="path1" d="M187.200 10.794 C 186.870 11.010,184.791 11.191,182.580 11.194 C 180.369 11.197,178.389 11.366,178.180 11.569 C 177.971 11.772,176.540 12.036,175.000 12.157 C 169.543 12.585,167.395 12.875,167.020 13.235 C 166.811 13.436,165.787 13.600,164.744 13.600 C 163.701 13.600,162.736 13.780,162.600 14.000 C 162.464 14.220,161.564 14.400,160.600 14.400 C 159.636 14.400,158.736 14.580,158.600 14.800 C 158.464 15.020,157.643 15.200,156.776 15.200 C 155.909 15.200,155.200 15.380,155.200 15.600 C 155.200 15.820,154.480 16.000,153.600 16.000 C 152.720 16.000,152.000 16.180,152.000 16.400 C 152.000 16.620,151.280 16.800,150.400 16.800 C 149.520 16.800,148.800 16.980,148.800 17.200 C 148.800 17.420,148.170 17.600,147.400 17.600 C 146.630 17.600,146.000 17.780,146.000 18.000 C 146.000 18.220,145.460 18.400,144.800 18.400 C 144.140 18.400,143.600 18.580,143.600 18.800 C 143.600 19.020,143.195 19.203,142.700 19.206 C 141.724 19.213,138.985 20.082,138.541 20.526 C 138.390 20.677,137.847 20.800,137.333 20.800 C 136.820 20.800,136.400 20.980,136.400 21.200 C 136.400 21.420,135.860 21.600,135.200 21.600 C 134.540 21.600,134.000 21.780,134.000 22.000 C 134.000 22.220,133.460 22.400,132.800 22.400 C 132.140 22.400,131.600 22.580,131.600 22.800 C 131.600 23.020,131.161 23.200,130.624 23.200 C 130.087 23.200,129.536 23.380,129.400 23.600 C 129.264 23.820,128.803 24.000,128.376 24.000 C 127.949 24.000,127.600 24.180,127.600 24.400 C 127.600 24.620,127.150 24.800,126.600 24.800 C 126.050 24.800,125.600 24.980,125.600 25.200 C 125.600 25.420,125.240 25.600,124.800 25.600 C 124.360 25.600,124.000 25.780,124.000 26.000 C 124.000 26.220,123.651 26.400,123.224 26.400 C 122.797 26.400,122.336 26.580,122.200 26.800 C 122.064 27.020,121.558 27.201,121.076 27.202 C 120.594 27.203,119.314 27.653,118.232 28.202 C 117.150 28.751,116.025 29.200,115.732 29.200 C 115.439 29.200,115.200 29.380,115.200 29.600 C 115.200 29.820,114.861 30.000,114.447 30.000 C 113.225 30.000,113.211 30.382,113.205 63.784 L 113.200 95.768 114.100 98.125 C 116.022 103.157,120.483 106.368,126.000 106.690 C 129.743 106.909,130.071 106.822,138.000 103.506 C 140.310 102.540,143.280 101.516,144.600 101.231 C 145.920 100.947,147.522 100.553,148.160 100.357 C 154.003 98.559,168.913 100.553,177.032 104.218 C 178.335 104.805,179.940 105.529,180.600 105.826 C 193.070 111.432,208.348 111.049,221.765 104.794 C 230.720 100.620,245.500 98.436,251.840 100.350 C 252.478 100.543,253.990 100.916,255.200 101.180 C 258.693 101.940,259.867 102.385,267.200 105.726 C 273.990 108.820,283.391 105.080,285.938 98.273 C 286.794 95.985,286.800 95.761,286.795 63.885 C 286.789 30.379,286.775 30.000,285.553 30.000 C 285.139 30.000,284.800 29.820,284.800 29.600 C 284.800 29.380,284.561 29.200,284.268 29.200 C 283.975 29.200,282.850 28.751,281.768 28.202 C 280.686 27.653,279.406 27.203,278.924 27.202 C 278.442 27.201,277.936 27.020,277.800 26.800 C 277.664 26.580,277.203 26.400,276.776 26.400 C 276.349 26.400,276.000 26.220,276.000 26.000 C 276.000 25.780,275.640 25.600,275.200 25.600 C 274.760 25.600,274.400 25.420,274.400 25.200 C 274.400 24.980,273.950 24.800,273.400 24.800 C 272.850 24.800,272.400 24.620,272.400 24.400 C 272.400 24.180,272.051 24.000,271.624 24.000 C 271.197 24.000,270.736 23.820,270.600 23.600 C 270.464 23.380,269.913 23.200,269.376 23.200 C 268.839 23.200,268.400 23.020,268.400 22.800 C 268.400 22.580,267.860 22.400,267.200 22.400 C 266.540 22.400,266.000 22.220,266.000 22.000 C 266.000 21.780,265.460 21.600,264.800 21.600 C 264.140 21.600,263.600 21.420,263.600 21.200 C 263.600 20.980,263.186 20.800,262.680 20.800 C 262.174 20.800,261.589 20.651,261.380 20.470 C 261.171 20.288,260.190 19.910,259.200 19.631 C 258.210 19.351,257.087 18.960,256.705 18.761 C 256.323 18.562,255.558 18.400,255.005 18.400 C 254.452 18.400,254.000 18.220,254.000 18.000 C 254.000 17.780,253.370 17.600,252.600 17.600 C 251.830 17.600,251.200 17.420,251.200 17.200 C 251.200 16.980,250.480 16.800,249.600 16.800 C 248.720 16.800,248.000 16.620,248.000 16.400 C 248.000 16.180,247.280 16.000,246.400 16.000 C 245.520 16.000,244.800 15.820,244.800 15.600 C 244.800 15.380,244.080 15.200,243.200 15.200 C 242.320 15.200,241.600 15.020,241.600 14.800 C 241.600 14.580,240.711 14.400,239.624 14.400 C 238.537 14.400,237.536 14.220,237.400 14.000 C 237.264 13.780,236.263 13.600,235.176 13.600 C 234.089 13.600,233.200 13.435,233.200 13.234 C 233.200 13.033,232.075 12.770,230.700 12.649 C 229.325 12.528,226.760 12.235,225.000 11.997 C 215.888 10.765,188.569 9.895,187.200 10.794 M62.960 66.425 C 61.442 68.008,59.075 70.447,57.700 71.845 C 56.325 73.242,55.200 74.545,55.200 74.741 C 55.200 74.936,54.075 76.259,52.700 77.681 C 49.708 80.775,48.516 82.146,47.208 84.004 C 46.668 84.772,45.726 85.940,45.115 86.600 C 44.504 87.260,44.003 88.017,44.002 88.282 C 44.001 88.547,43.550 89.214,43.000 89.764 C 42.450 90.314,42.000 90.960,42.000 91.200 C 42.000 91.440,41.595 92.056,41.100 92.568 C 39.626 94.093,38.800 95.184,38.800 95.605 C 38.800 95.822,38.620 96.000,38.400 96.000 C 38.180 96.000,38.000 96.188,38.000 96.417 C 38.000 96.646,37.640 97.220,37.200 97.692 C 36.760 98.164,36.400 98.787,36.400 99.075 C 36.400 99.364,36.220 99.600,36.000 99.600 C 35.780 99.600,35.600 99.836,35.600 100.125 C 35.600 100.413,35.240 101.036,34.800 101.508 C 34.360 101.980,34.000 102.562,34.000 102.800 C 34.000 103.038,33.640 103.620,33.200 104.092 C 32.760 104.564,32.400 105.187,32.400 105.475 C 32.400 105.764,32.220 106.000,32.000 106.000 C 31.780 106.000,31.600 106.360,31.600 106.800 C 31.600 107.240,31.420 107.600,31.200 107.600 C 30.980 107.600,30.800 107.836,30.800 108.125 C 30.800 108.413,30.480 108.998,30.089 109.425 C 29.182 110.412,27.200 114.472,27.200 115.340 C 27.200 115.703,27.020 116.000,26.800 116.000 C 26.580 116.000,26.400 116.360,26.400 116.800 C 26.400 117.240,26.254 117.600,26.075 117.600 C 25.896 117.600,25.502 118.230,25.200 119.000 C 24.898 119.770,24.504 120.400,24.325 120.400 C 24.146 120.400,24.000 120.850,24.000 121.400 C 24.000 121.950,23.820 122.400,23.600 122.400 C 23.380 122.400,23.200 122.760,23.200 123.200 C 23.200 123.640,23.020 124.000,22.800 124.000 C 22.580 124.000,22.400 124.360,22.400 124.800 C 22.400 125.240,22.220 125.600,22.000 125.600 C 21.780 125.600,21.600 125.960,21.600 126.400 C 21.600 126.840,21.420 127.200,21.200 127.200 C 20.980 127.200,20.800 127.650,20.800 128.200 C 20.800 128.750,20.620 129.200,20.400 129.200 C 20.180 129.200,20.000 129.560,20.000 130.000 C 20.000 130.440,19.820 130.800,19.600 130.800 C 19.380 130.800,19.200 131.239,19.200 131.776 C 19.200 132.313,19.020 132.864,18.800 133.000 C 18.580 133.136,18.400 133.597,18.400 134.024 C 18.400 134.451,18.220 134.800,18.000 134.800 C 17.780 134.800,17.600 135.340,17.600 136.000 C 17.600 136.660,17.420 137.200,17.200 137.200 C 16.980 137.200,16.800 137.549,16.800 137.976 C 16.800 138.403,16.620 138.864,16.400 139.000 C 16.180 139.136,16.000 139.687,16.000 140.224 C 16.000 140.761,15.820 141.200,15.600 141.200 C 15.380 141.200,15.200 141.740,15.200 142.400 C 15.200 143.060,15.020 143.600,14.800 143.600 C 14.580 143.600,14.400 144.140,14.400 144.800 C 14.400 145.460,14.220 146.000,14.000 146.000 C 13.780 146.000,13.600 146.529,13.600 147.176 C 13.600 147.823,13.420 148.464,13.200 148.600 C 12.980 148.736,12.800 149.289,12.800 149.829 C 12.800 150.369,12.642 151.123,12.449 151.505 C 11.865 152.661,11.200 155.004,11.200 155.905 C 11.200 156.371,11.032 156.857,10.827 156.983 C 10.622 157.110,10.328 158.651,10.175 160.407 C 10.022 162.163,9.740 163.600,9.548 163.600 C 9.357 163.600,9.200 164.309,9.200 165.176 C 9.200 166.043,9.020 166.864,8.800 167.000 C 8.580 167.136,8.400 168.227,8.400 169.424 C 8.400 170.621,8.220 171.600,8.000 171.600 C 7.778 171.600,7.600 172.667,7.600 174.000 C 7.600 175.333,7.422 176.400,7.200 176.400 C 6.972 176.400,6.800 177.592,6.800 179.176 C 6.800 180.703,6.620 182.064,6.400 182.200 C 6.177 182.338,6.000 184.204,6.000 186.424 C 6.000 188.808,5.840 190.400,5.600 190.400 C 5.051 190.400,5.051 220.661,5.600 221.000 C 5.823 221.138,6.000 223.004,6.000 225.224 C 6.000 227.608,6.160 229.200,6.400 229.200 C 6.631 229.200,6.800 230.459,6.800 232.176 C 6.800 233.813,6.980 235.264,7.200 235.400 C 7.420 235.536,7.600 236.526,7.600 237.600 C 7.600 238.674,7.780 239.664,8.000 239.800 C 8.220 239.936,8.400 240.937,8.400 242.024 C 8.400 243.111,8.580 244.000,8.800 244.000 C 9.020 244.000,9.200 244.900,9.200 246.000 C 9.200 247.100,9.359 248.000,9.553 248.000 C 9.747 248.000,10.032 249.349,10.187 250.997 C 10.341 252.646,10.633 254.096,10.834 254.221 C 11.035 254.345,11.200 254.966,11.200 255.600 C 11.200 256.234,11.380 256.864,11.600 257.000 C 11.820 257.136,12.000 257.766,12.000 258.400 C 12.000 259.034,12.180 259.664,12.400 259.800 C 12.620 259.936,12.800 260.667,12.800 261.424 C 12.800 262.181,12.980 262.800,13.200 262.800 C 13.420 262.800,13.600 263.340,13.600 264.000 C 13.600 264.660,13.780 265.200,14.000 265.200 C 14.220 265.200,14.400 265.740,14.400 266.400 C 14.400 267.060,14.580 267.600,14.800 267.600 C 15.020 267.600,15.200 268.140,15.200 268.800 C 15.200 269.460,15.380 270.000,15.600 270.000 C 15.820 270.000,16.000 270.439,16.000 270.976 C 16.000 271.513,16.180 272.064,16.400 272.200 C 16.620 272.336,16.800 272.887,16.800 273.424 C 16.800 273.961,16.980 274.400,17.200 274.400 C 17.420 274.400,17.600 274.760,17.600 275.200 C 17.600 275.640,17.780 276.000,18.000 276.000 C 18.220 276.000,18.400 276.540,18.400 277.200 C 18.400 277.860,18.580 278.400,18.800 278.400 C 19.020 278.400,19.200 278.760,19.200 279.200 C 19.200 279.640,19.380 280.000,19.600 280.000 C 19.820 280.000,20.000 280.540,20.000 281.200 C 20.000 281.860,20.180 282.400,20.400 282.400 C 20.620 282.400,20.800 282.760,20.800 283.200 C 20.800 283.640,20.980 284.000,21.200 284.000 C 21.420 284.000,21.600 284.360,21.600 284.800 C 21.600 285.240,21.780 285.600,22.000 285.600 C 22.220 285.600,22.400 285.872,22.400 286.205 C 22.400 286.538,22.560 287.123,22.756 287.505 C 22.952 287.887,23.537 289.100,24.056 290.200 C 24.575 291.300,25.135 292.260,25.300 292.333 C 25.465 292.407,25.600 292.812,25.600 293.233 C 25.600 293.655,25.780 294.000,26.000 294.000 C 26.220 294.000,26.400 294.360,26.400 294.800 C 26.400 295.240,26.580 295.600,26.800 295.600 C 27.020 295.600,27.200 295.864,27.200 296.186 C 27.200 296.999,28.476 299.600,28.874 299.600 C 29.053 299.600,29.200 299.960,29.200 300.400 C 29.200 300.840,29.359 301.200,29.553 301.200 C 29.748 301.200,30.007 301.515,30.129 301.900 C 30.346 302.587,31.605 304.806,32.001 305.200 C 32.111 305.310,32.470 305.940,32.798 306.600 C 33.126 307.260,33.711 308.091,34.097 308.447 C 34.484 308.803,34.800 309.348,34.800 309.659 C 34.800 309.969,35.160 310.483,35.600 310.800 C 36.040 311.117,36.400 311.697,36.400 312.088 C 36.400 312.480,36.580 312.800,36.800 312.800 C 37.020 312.800,37.200 313.025,37.201 313.300 C 37.201 313.575,37.741 314.430,38.400 315.200 C 39.059 315.970,39.599 316.785,39.599 317.012 C 39.600 317.238,39.960 317.683,40.400 318.000 C 40.840 318.317,41.200 318.762,41.201 318.988 C 41.201 319.215,41.741 320.030,42.400 320.800 C 43.059 321.570,43.599 322.358,43.599 322.552 C 43.600 322.745,44.185 323.585,44.900 324.419 C 45.615 325.252,46.785 326.618,47.500 327.453 C 48.215 328.289,48.800 329.126,48.800 329.312 C 48.800 329.499,49.700 330.529,50.800 331.600 C 51.900 332.671,52.800 333.730,52.800 333.952 C 52.800 334.626,65.588 347.255,66.008 346.995 C 66.496 346.693,66.542 64.843,66.054 64.073 C 65.809 63.688,64.980 64.318,62.960 66.425 M333.847 64.223 C 333.387 65.421,333.563 347.200,334.023 347.200 C 334.570 347.200,347.200 334.511,347.200 333.963 C 347.200 333.735,348.100 332.671,349.200 331.600 C 350.300 330.529,351.200 329.487,351.200 329.285 C 351.200 329.084,351.695 328.392,352.300 327.748 C 354.771 325.118,358.800 319.761,358.800 319.105 C 358.800 318.815,359.160 318.317,359.600 318.000 C 360.040 317.683,360.400 317.238,360.401 317.012 C 360.401 316.785,360.941 315.970,361.600 315.200 C 362.259 314.430,362.799 313.575,362.799 313.300 C 362.800 313.025,362.980 312.800,363.200 312.800 C 363.420 312.800,363.600 312.480,363.600 312.088 C 363.600 311.697,363.960 311.117,364.400 310.800 C 364.840 310.483,365.200 309.969,365.200 309.659 C 365.200 309.348,365.529 308.803,365.930 308.447 C 366.332 308.091,366.916 307.215,367.228 306.500 C 367.540 305.785,367.931 305.200,368.098 305.200 C 368.264 305.200,368.400 304.930,368.400 304.600 C 368.400 304.270,368.546 304.000,368.725 304.000 C 368.904 304.000,369.298 303.370,369.600 302.600 C 369.902 301.830,370.296 301.200,370.475 301.200 C 370.654 301.200,370.800 300.855,370.800 300.433 C 370.800 300.012,370.951 299.607,371.136 299.533 C 371.495 299.391,374.015 294.555,375.791 290.600 C 376.384 289.280,377.034 287.887,377.235 287.505 C 377.436 287.123,377.600 286.538,377.600 286.205 C 377.600 285.872,377.780 285.600,378.000 285.600 C 378.220 285.600,378.400 285.240,378.400 284.800 C 378.400 284.360,378.580 284.000,378.800 284.000 C 379.020 284.000,379.200 283.640,379.200 283.200 C 379.200 282.760,379.380 282.400,379.600 282.400 C 379.820 282.400,380.000 281.860,380.000 281.200 C 380.000 280.540,380.180 280.000,380.400 280.000 C 380.620 280.000,380.800 279.640,380.800 279.200 C 380.800 278.760,380.980 278.400,381.200 278.400 C 381.420 278.400,381.600 277.860,381.600 277.200 C 381.600 276.540,381.780 276.000,382.000 276.000 C 382.220 276.000,382.400 275.640,382.400 275.200 C 382.400 274.760,382.580 274.400,382.800 274.400 C 383.020 274.400,383.200 273.950,383.200 273.400 C 383.200 272.850,383.380 272.400,383.600 272.400 C 383.820 272.400,384.000 271.860,384.000 271.200 C 384.000 270.540,384.180 270.000,384.400 270.000 C 384.620 270.000,384.800 269.460,384.800 268.800 C 384.800 268.140,384.980 267.600,385.200 267.600 C 385.420 267.600,385.600 267.060,385.600 266.400 C 385.600 265.740,385.780 265.200,386.000 265.200 C 386.220 265.200,386.400 264.660,386.400 264.000 C 386.400 263.340,386.560 262.800,386.756 262.800 C 386.952 262.800,387.222 262.170,387.356 261.400 C 387.490 260.630,387.710 259.370,387.844 258.600 C 387.978 257.830,388.248 257.200,388.444 257.200 C 388.640 257.200,388.800 256.581,388.800 255.824 C 388.800 255.067,388.980 254.336,389.200 254.200 C 389.420 254.064,389.600 253.344,389.600 252.600 C 389.600 251.856,389.761 251.148,389.958 251.026 C 390.344 250.788,390.515 249.879,391.293 243.931 C 391.572 241.804,391.935 239.929,392.100 239.765 C 392.265 239.601,392.400 238.607,392.400 237.557 C 392.400 236.507,392.580 235.536,392.800 235.400 C 393.020 235.264,393.200 233.813,393.200 232.176 C 393.200 230.459,393.369 229.200,393.600 229.200 C 393.840 229.200,394.000 227.608,394.000 225.224 C 394.000 223.004,394.177 221.138,394.400 221.000 C 394.655 220.842,394.800 215.263,394.800 205.576 C 394.800 195.725,394.660 190.400,394.400 190.400 C 394.160 190.400,394.000 188.808,394.000 186.424 C 394.000 184.204,393.823 182.338,393.600 182.200 C 393.380 182.064,393.200 180.703,393.200 179.176 C 393.200 177.592,393.028 176.400,392.800 176.400 C 392.578 176.400,392.400 175.333,392.400 174.000 C 392.400 172.680,392.246 171.600,392.057 171.600 C 391.869 171.600,391.590 169.942,391.437 167.916 C 391.284 165.890,391.009 164.045,390.827 163.816 C 390.499 163.405,390.173 161.809,389.741 158.500 C 389.619 157.565,389.377 156.800,389.203 156.800 C 388.905 156.800,388.786 156.327,388.168 152.700 C 388.027 151.875,387.752 151.200,387.556 151.200 C 387.360 151.200,387.200 150.581,387.200 149.824 C 387.200 149.067,387.020 148.336,386.800 148.200 C 386.580 148.064,386.400 147.513,386.400 146.976 C 386.400 146.439,386.220 146.000,386.000 146.000 C 385.780 146.000,385.600 145.460,385.600 144.800 C 385.600 144.140,385.420 143.600,385.200 143.600 C 384.980 143.600,384.800 143.060,384.800 142.400 C 384.800 141.740,384.620 141.200,384.400 141.200 C 384.180 141.200,384.000 140.660,384.000 140.000 C 384.000 139.340,383.820 138.800,383.600 138.800 C 383.380 138.800,383.200 138.440,383.200 138.000 C 383.200 137.560,383.020 137.200,382.800 137.200 C 382.580 137.200,382.400 136.660,382.400 136.000 C 382.400 135.340,382.220 134.800,382.000 134.800 C 381.780 134.800,381.600 134.451,381.600 134.024 C 381.600 133.597,381.420 133.136,381.200 133.000 C 380.980 132.864,380.800 132.313,380.800 131.776 C 380.800 131.239,380.620 130.800,380.400 130.800 C 380.180 130.800,380.000 130.440,380.000 130.000 C 380.000 129.560,379.820 129.200,379.600 129.200 C 379.380 129.200,379.200 128.750,379.200 128.200 C 379.200 127.650,379.020 127.200,378.800 127.200 C 378.580 127.200,378.400 126.840,378.400 126.400 C 378.400 125.960,378.220 125.600,378.000 125.600 C 377.780 125.600,377.600 125.240,377.600 124.800 C 377.600 124.360,377.420 124.000,377.200 124.000 C 376.980 124.000,376.800 123.640,376.800 123.200 C 376.800 122.760,376.620 122.400,376.400 122.400 C 376.180 122.400,376.000 121.950,376.000 121.400 C 376.000 120.850,375.834 120.400,375.632 120.400 C 375.429 120.400,375.137 119.815,374.982 119.100 C 374.826 118.385,374.583 117.710,374.440 117.600 C 374.297 117.490,373.378 115.780,372.396 113.800 C 371.415 111.820,370.396 109.974,370.132 109.698 C 369.868 109.421,369.538 108.836,369.399 108.398 C 369.260 107.959,368.978 107.600,368.773 107.600 C 368.568 107.600,368.400 107.240,368.400 106.800 C 368.400 106.360,368.220 106.000,368.000 106.000 C 367.780 106.000,367.600 105.680,367.600 105.288 C 367.600 104.897,367.240 104.317,366.800 104.000 C 366.360 103.683,366.000 103.186,366.000 102.895 C 366.000 102.604,365.640 101.980,365.200 101.508 C 364.760 101.036,364.400 100.413,364.400 100.125 C 364.400 99.836,364.220 99.600,364.000 99.600 C 363.780 99.600,363.600 99.364,363.600 99.075 C 363.600 98.787,363.240 98.164,362.800 97.692 C 362.360 97.220,362.000 96.646,362.000 96.417 C 362.000 96.188,361.820 96.000,361.600 96.000 C 361.380 96.000,361.200 95.822,361.200 95.605 C 361.200 95.240,360.455 94.205,359.352 93.036 C 359.105 92.775,358.585 91.940,358.196 91.180 C 357.807 90.421,357.370 89.710,357.225 89.600 C 357.080 89.490,356.524 88.770,355.989 88.000 C 355.455 87.230,354.608 86.187,354.109 85.682 C 353.609 85.177,353.200 84.598,353.200 84.395 C 353.200 84.192,352.615 83.427,351.900 82.695 C 351.185 81.962,349.977 80.561,349.215 79.582 C 348.453 78.602,347.669 77.734,347.473 77.653 C 346.930 77.429,344.800 75.125,344.800 74.762 C 344.800 74.323,336.349 65.357,334.741 64.090 C 334.205 63.667,334.051 63.690,333.847 64.223 M329.661 351.055 C 328.925 351.825,328.397 352.531,328.489 352.622 C 328.683 352.816,331.600 350.213,331.600 349.846 C 331.600 349.308,330.936 349.721,329.661 351.055 M69.200 350.604 C 69.200 351.001,71.317 352.817,71.530 352.603 C 71.700 352.433,71.122 351.813,69.898 350.851 C 69.514 350.549,69.200 350.438,69.200 350.604 M323.429 356.629 C 323.005 356.938,322.736 357.269,322.830 357.363 C 322.924 357.457,323.348 357.281,323.771 356.971 C 324.195 356.662,324.464 356.331,324.370 356.237 C 324.276 356.143,323.852 356.319,323.429 356.629 M320.900 358.488 C 319.980 358.932,319.680 359.600,320.400 359.600 C 320.620 359.600,320.800 359.448,320.800 359.261 C 320.800 359.075,321.205 358.727,321.700 358.488 C 322.195 358.249,322.420 358.054,322.200 358.054 C 321.980 358.054,321.395 358.249,320.900 358.488 M316.860 361.451 C 316.343 362.002,315.990 362.524,316.077 362.610 C 316.269 362.803,318.400 361.008,318.400 360.653 C 318.400 360.149,317.781 360.469,316.860 361.451 M310.900 365.798 C 310.157 366.642,310.294 366.873,311.200 366.307 C 311.640 366.032,312.000 365.671,312.000 365.504 C 312.000 365.027,311.449 365.175,310.900 365.798 M308.460 367.442 C 307.731 368.266,308.200 368.657,308.981 367.876 C 309.321 367.536,309.600 367.154,309.600 367.029 C 309.600 366.609,309.006 366.824,308.460 367.442 M299.305 373.325 C 298.593 373.806,298.008 374.347,298.005 374.527 C 298.002 374.707,298.523 374.482,299.162 374.027 C 299.801 373.572,300.521 373.200,300.762 373.200 C 301.003 373.200,301.200 373.020,301.200 372.800 C 301.200 372.219,300.763 372.340,299.305 373.325 M292.000 377.200 C 292.000 377.420,292.270 377.600,292.600 377.600 C 292.930 377.600,293.200 377.420,293.200 377.200 C 293.200 376.980,292.930 376.800,292.600 376.800 C 292.270 376.800,292.000 376.980,292.000 377.200 M284.400 381.200 C 284.400 381.420,284.670 381.600,285.000 381.600 C 285.330 381.600,285.600 381.420,285.600 381.200 C 285.600 380.980,285.330 380.800,285.000 380.800 C 284.670 380.800,284.400 380.980,284.400 381.200 M282.800 382.000 C 282.800 382.220,283.070 382.400,283.400 382.400 C 283.730 382.400,284.000 382.220,284.000 382.000 C 284.000 381.780,283.730 381.600,283.400 381.600 C 283.070 381.600,282.800 381.780,282.800 382.000 M281.200 382.800 C 281.200 383.020,281.470 383.200,281.800 383.200 C 282.130 383.200,282.400 383.020,282.400 382.800 C 282.400 382.580,282.130 382.400,281.800 382.400 C 281.470 382.400,281.200 382.580,281.200 382.800 M267.600 388.400 C 267.600 388.620,267.960 388.800,268.400 388.800 C 268.840 388.800,269.200 388.620,269.200 388.400 C 269.200 388.180,268.840 388.000,268.400 388.000 C 267.960 388.000,267.600 388.180,267.600 388.400 M265.800 389.200 C 265.664 389.420,265.823 389.600,266.153 389.600 C 266.483 389.600,266.864 389.420,267.000 389.200 C 267.136 388.980,266.977 388.800,266.647 388.800 C 266.317 388.800,265.936 388.980,265.800 389.200 M258.600 391.200 C 258.459 391.428,258.804 391.600,259.400 391.600 C 259.996 391.600,260.341 391.428,260.200 391.200 C 260.064 390.980,259.704 390.800,259.400 390.800 C 259.096 390.800,258.736 390.980,258.600 391.200 M142.000 392.000 C 142.000 392.220,142.360 392.400,142.800 392.400 C 143.240 392.400,143.600 392.220,143.600 392.000 C 143.600 391.780,143.240 391.600,142.800 391.600 C 142.360 391.600,142.000 391.780,142.000 392.000 M256.000 392.000 C 256.000 392.220,256.450 392.400,257.000 392.400 C 257.550 392.400,258.000 392.220,258.000 392.000 C 258.000 391.780,257.550 391.600,257.000 391.600 C 256.450 391.600,256.000 391.780,256.000 392.000 M254.000 392.800 C 254.000 393.020,254.270 393.200,254.600 393.200 C 254.930 393.200,255.200 393.020,255.200 392.800 C 255.200 392.580,254.930 392.400,254.600 392.400 C 254.270 392.400,254.000 392.580,254.000 392.800 M150.400 394.400 C 150.400 394.620,150.670 394.800,151.000 394.800 C 151.330 394.800,151.600 394.620,151.600 394.400 C 151.600 394.180,151.330 394.000,151.000 394.000 C 150.670 394.000,150.400 394.180,150.400 394.400 M247.600 394.400 C 247.600 394.620,248.050 394.800,248.600 394.800 C 249.150 394.800,249.600 394.620,249.600 394.400 C 249.600 394.180,249.150 394.000,248.600 394.000 C 248.050 394.000,247.600 394.180,247.600 394.400 M153.600 395.200 C 153.600 395.420,153.960 395.600,154.400 395.600 C 154.840 395.600,155.200 395.420,155.200 395.200 C 155.200 394.980,154.840 394.800,154.400 394.800 C 153.960 394.800,153.600 394.980,153.600 395.200 M244.600 395.200 C 244.460 395.427,244.796 395.600,245.376 395.600 C 245.939 395.600,246.400 395.420,246.400 395.200 C 246.400 394.980,246.051 394.800,245.624 394.800 C 245.197 394.800,244.736 394.980,244.600 395.200 M237.800 396.800 C 237.660 397.027,237.996 397.200,238.576 397.200 C 239.139 397.200,239.600 397.020,239.600 396.800 C 239.600 396.580,239.251 396.400,238.824 396.400 C 238.397 396.400,237.936 396.580,237.800 396.800 M165.200 397.600 C 165.200 397.820,165.661 398.000,166.224 398.000 C 166.804 398.000,167.140 397.827,167.000 397.600 C 166.864 397.380,166.403 397.200,165.976 397.200 C 165.549 397.200,165.200 397.380,165.200 397.600 M233.200 397.600 C 233.200 397.820,233.560 398.000,234.000 398.000 C 234.440 398.000,234.800 397.820,234.800 397.600 C 234.800 397.380,234.440 397.200,234.000 397.200 C 233.560 397.200,233.200 397.380,233.200 397.600 M169.400 398.400 C 169.536 398.620,170.087 398.800,170.624 398.800 C 171.161 398.800,171.600 398.620,171.600 398.400 C 171.600 398.180,171.049 398.000,170.376 398.000 C 169.663 398.000,169.256 398.167,169.400 398.400 M228.400 398.400 C 228.400 398.620,228.839 398.800,229.376 398.800 C 229.913 398.800,230.464 398.620,230.600 398.400 C 230.744 398.167,230.337 398.000,229.624 398.000 C 228.951 398.000,228.400 398.180,228.400 398.400 M175.600 399.200 C 175.600 399.420,176.140 399.600,176.800 399.600 C 177.460 399.600,178.000 399.420,178.000 399.200 C 178.000 398.980,177.460 398.800,176.800 398.800 C 176.140 398.800,175.600 398.980,175.600 399.200 M222.000 399.200 C 221.554 399.488,221.784 399.589,222.900 399.594 C 223.725 399.597,224.400 399.420,224.400 399.200 C 224.400 398.691,222.788 398.691,222.000 399.200 " stroke="none" fill="#fc5c6c" fill-rule="evenodd"></path><path id="path2" d="M68.628 0.290 C 67.615 0.548,66.800 1.387,66.800 2.171 C 66.800 2.517,66.655 2.800,66.478 2.800 C 65.635 2.800,66.156 347.756,67.000 348.609 C 67.440 349.053,68.430 349.861,69.200 350.404 C 69.970 350.947,71.792 352.563,73.249 353.995 C 74.706 355.428,76.145 356.659,76.445 356.732 C 76.746 356.805,77.084 356.994,77.196 357.153 C 77.308 357.312,78.116 357.973,78.991 358.621 C 79.866 359.270,81.108 360.295,81.750 360.900 C 82.393 361.505,83.090 362.000,83.299 362.000 C 83.508 362.000,84.183 362.540,84.800 363.200 C 85.417 363.860,86.209 364.400,86.560 364.400 C 86.912 364.400,87.200 364.550,87.200 364.732 C 87.200 364.915,87.695 365.319,88.300 365.630 C 88.905 365.940,89.691 366.511,90.047 366.897 C 90.403 367.284,90.948 367.600,91.259 367.600 C 91.569 367.600,92.083 367.960,92.400 368.400 C 92.717 368.840,93.185 369.200,93.439 369.200 C 93.694 369.200,94.129 369.473,94.406 369.807 C 94.683 370.141,95.491 370.690,96.201 371.027 C 96.911 371.364,97.876 371.998,98.346 372.436 C 98.816 372.873,99.200 373.124,99.200 372.993 C 99.200 372.862,99.740 373.074,100.400 373.464 C 101.060 373.854,101.600 374.306,101.600 374.468 C 101.600 374.631,102.230 374.882,103.000 375.026 C 103.770 375.171,104.400 375.449,104.400 375.645 C 104.400 375.840,104.670 376.000,105.000 376.000 C 105.330 376.000,105.600 376.180,105.600 376.400 C 105.600 376.620,106.151 376.800,106.824 376.800 C 107.537 376.800,107.944 376.967,107.800 377.200 C 107.664 377.420,107.923 377.600,108.376 377.600 C 108.829 377.600,109.200 377.780,109.200 378.000 C 109.200 378.220,109.470 378.400,109.800 378.400 C 110.130 378.400,110.400 378.580,110.400 378.800 C 110.400 379.020,110.681 379.200,111.024 379.200 C 111.367 379.200,111.536 379.380,111.400 379.600 C 111.260 379.826,111.588 380.000,112.153 380.000 C 112.703 380.000,113.264 380.180,113.400 380.400 C 113.536 380.620,114.097 380.800,114.647 380.800 C 115.212 380.800,115.540 380.974,115.400 381.200 C 115.264 381.420,115.428 381.600,115.764 381.600 C 116.101 381.600,117.017 381.960,117.800 382.400 C 118.583 382.840,119.489 383.200,119.812 383.200 C 120.135 383.200,120.400 383.380,120.400 383.600 C 120.400 383.820,120.672 384.000,121.005 384.000 C 121.338 384.000,121.923 384.168,122.305 384.374 C 122.687 384.579,123.585 384.983,124.300 385.271 C 125.015 385.560,125.600 385.892,125.600 386.010 C 125.600 386.129,126.085 386.266,126.678 386.315 C 127.270 386.364,127.859 386.572,127.986 386.778 C 128.113 386.983,128.663 387.236,129.209 387.340 C 130.736 387.631,131.600 388.046,131.600 388.488 C 131.600 388.710,132.140 388.812,132.800 388.715 C 133.619 388.594,134.000 388.707,134.000 389.069 C 134.000 389.365,134.432 389.600,134.976 389.600 C 135.513 389.600,136.064 389.780,136.200 390.000 C 136.336 390.220,136.876 390.400,137.400 390.400 C 137.924 390.400,138.458 390.571,138.587 390.780 C 138.716 390.988,139.357 391.091,140.011 391.009 C 140.665 390.926,141.200 391.025,141.200 391.229 C 141.200 391.433,141.740 391.600,142.400 391.600 C 143.060 391.600,143.600 391.780,143.600 392.000 C 143.600 392.220,143.926 392.400,144.325 392.400 C 144.724 392.400,145.795 392.760,146.706 393.200 C 147.616 393.640,149.090 394.000,149.981 394.000 C 150.871 394.000,151.600 394.180,151.600 394.400 C 151.600 394.620,152.410 394.800,153.400 394.800 C 154.390 394.800,155.200 394.980,155.200 395.200 C 155.200 395.420,155.920 395.600,156.800 395.600 C 157.680 395.600,158.400 395.780,158.400 396.000 C 158.400 396.220,159.120 396.400,160.000 396.400 C 160.880 396.400,161.600 396.580,161.600 396.800 C 161.600 397.025,162.725 397.200,164.176 397.200 C 165.593 397.200,166.864 397.380,167.000 397.600 C 167.136 397.820,168.227 398.000,169.424 398.000 C 170.621 398.000,171.600 398.180,171.600 398.400 C 171.600 398.633,172.922 398.800,174.767 398.800 C 176.866 398.800,177.987 398.961,178.093 399.278 C 178.314 399.941,211.218 400.221,217.600 399.613 C 220.130 399.372,223.550 399.082,225.200 398.968 C 226.850 398.854,228.260 398.590,228.333 398.381 C 228.407 398.171,229.532 398.000,230.833 398.000 C 232.144 398.000,233.200 397.822,233.200 397.600 C 233.200 397.380,234.179 397.200,235.376 397.200 C 236.573 397.200,237.664 397.020,237.800 396.800 C 237.936 396.580,238.847 396.400,239.824 396.400 C 240.801 396.400,241.600 396.220,241.600 396.000 C 241.600 395.780,242.219 395.600,242.976 395.600 C 243.733 395.600,244.464 395.420,244.600 395.200 C 244.736 394.980,245.467 394.800,246.224 394.800 C 246.981 394.800,247.600 394.620,247.600 394.400 C 247.600 394.180,248.470 394.000,249.533 394.000 C 250.597 394.000,251.591 393.875,251.744 393.723 C 251.896 393.571,252.421 393.385,252.910 393.311 C 253.400 393.237,253.860 393.002,253.933 392.788 C 254.007 392.575,254.502 392.400,255.033 392.400 C 255.565 392.400,256.000 392.220,256.000 392.000 C 256.000 391.780,256.529 391.600,257.176 391.600 C 257.823 391.600,258.462 391.423,258.596 391.206 C 258.730 390.989,259.236 390.826,259.720 390.843 C 261.065 390.889,263.038 390.515,263.911 390.048 C 264.342 389.817,264.783 389.716,264.890 389.824 C 264.998 389.931,265.314 389.745,265.592 389.410 C 265.870 389.074,266.436 388.800,266.849 388.800 C 267.262 388.800,267.600 388.620,267.600 388.400 C 267.600 388.180,268.140 388.000,268.800 388.000 C 269.460 388.000,270.000 387.820,270.000 387.600 C 270.000 387.380,270.450 387.200,271.000 387.200 C 271.550 387.200,272.000 387.020,272.000 386.800 C 272.000 386.580,272.439 386.400,272.976 386.400 C 273.513 386.400,274.064 386.220,274.200 386.000 C 274.336 385.780,274.797 385.600,275.224 385.600 C 275.651 385.600,276.000 385.420,276.000 385.200 C 276.000 384.980,276.360 384.800,276.800 384.800 C 277.240 384.800,277.600 384.620,277.600 384.400 C 277.600 384.180,277.960 384.000,278.400 384.000 C 278.840 384.000,279.200 383.820,279.200 383.600 C 279.200 383.380,279.650 383.200,280.200 383.200 C 280.750 383.200,281.200 383.020,281.200 382.800 C 281.200 382.580,281.560 382.400,282.000 382.400 C 282.440 382.400,282.800 382.220,282.800 382.000 C 282.800 381.780,283.160 381.600,283.600 381.600 C 284.040 381.600,284.400 381.420,284.400 381.200 C 284.400 380.980,284.762 380.800,285.205 380.800 C 285.954 380.800,287.541 380.101,288.000 379.568 C 288.110 379.440,288.785 379.081,289.500 378.770 C 290.215 378.459,290.800 378.069,290.800 377.902 C 290.800 377.736,291.070 377.600,291.400 377.600 C 291.730 377.600,292.000 377.420,292.000 377.200 C 292.000 376.980,292.450 376.800,293.000 376.800 C 293.550 376.800,294.000 376.609,294.000 376.376 C 294.000 376.143,294.165 376.055,294.368 376.180 C 294.570 376.305,295.007 376.136,295.339 375.804 C 295.671 375.472,296.135 375.200,296.371 375.200 C 296.606 375.200,297.675 374.570,298.747 373.800 C 299.819 373.030,300.989 372.400,301.348 372.400 C 301.706 372.400,302.001 372.265,302.003 372.100 C 302.007 371.735,303.949 370.800,304.703 370.800 C 305.002 370.800,305.136 370.620,305.000 370.400 C 304.864 370.180,304.994 370.000,305.288 370.000 C 305.583 370.000,306.083 369.640,306.400 369.200 C 306.717 368.760,307.167 368.400,307.400 368.400 C 307.633 368.400,308.083 368.040,308.400 367.600 C 308.717 367.160,309.257 366.800,309.600 366.800 C 309.943 366.800,310.483 366.440,310.800 366.000 C 311.117 365.560,311.697 365.200,312.088 365.200 C 312.480 365.200,312.800 365.050,312.800 364.868 C 312.800 364.685,313.295 364.280,313.900 363.968 C 314.505 363.655,315.661 362.725,316.469 361.900 C 317.276 361.075,318.140 360.400,318.387 360.400 C 318.634 360.400,319.286 359.950,319.836 359.400 C 320.386 358.850,320.997 358.400,321.193 358.400 C 321.390 358.400,322.137 357.865,322.853 357.211 C 323.569 356.557,324.213 356.079,324.283 356.150 C 324.354 356.221,325.938 354.776,327.804 352.939 C 329.670 351.103,331.332 349.594,331.498 349.587 C 331.664 349.580,332.250 349.175,332.800 348.687 L 333.800 347.800 333.823 175.124 C 333.836 80.152,333.701 2.537,333.523 2.647 C 333.346 2.757,333.200 2.543,333.200 2.171 C 333.200 -0.003,333.234 0.000,310.501 0.000 C 287.975 0.000,287.200 0.069,287.200 2.063 C 287.200 2.442,287.026 2.860,286.814 2.992 C 286.566 3.144,286.512 19.912,286.663 49.515 L 286.899 95.800 285.988 98.188 C 283.352 105.097,274.029 108.838,267.200 105.726 C 259.867 102.385,258.693 101.940,255.200 101.180 C 253.990 100.916,252.478 100.543,251.840 100.350 C 245.500 98.436,230.720 100.620,221.765 104.794 C 208.348 111.049,193.070 111.432,180.600 105.826 C 179.940 105.529,178.335 104.805,177.032 104.218 C 168.913 100.553,154.003 98.559,148.160 100.357 C 147.522 100.553,145.920 100.947,144.600 101.231 C 143.280 101.516,140.310 102.540,138.000 103.506 C 130.071 106.822,129.743 106.909,126.000 106.690 C 120.404 106.364,116.027 103.169,114.035 97.957 L 113.070 95.432 113.323 49.116 C 113.487 19.258,113.439 2.800,113.188 2.800 C 112.975 2.800,112.800 2.506,112.800 2.147 C 112.800 -0.003,112.796 -0.004,90.239 0.046 C 78.777 0.072,69.053 0.181,68.628 0.290 M210.400 161.076 C 210.730 161.191,212.170 161.444,213.600 161.638 C 216.615 162.047,219.140 162.551,221.400 163.196 C 222.280 163.448,223.630 163.802,224.400 163.984 C 228.827 165.032,238.481 169.205,243.491 172.237 C 246.884 174.290,251.282 177.193,251.600 177.589 C 251.710 177.726,252.430 178.274,253.200 178.806 C 256.337 180.973,265.943 190.503,267.911 193.400 C 268.509 194.280,269.097 195.090,269.218 195.200 C 269.339 195.310,269.871 196.030,270.400 196.800 C 270.929 197.570,271.460 198.290,271.581 198.400 C 271.701 198.510,272.058 199.050,272.373 199.600 C 272.688 200.150,273.813 202.008,274.873 203.729 C 275.933 205.451,276.800 206.953,276.800 207.068 C 276.800 207.184,277.503 208.746,278.363 210.539 C 289.372 233.506,288.898 263.135,277.158 285.815 C 276.024 288.007,274.894 290.204,274.648 290.697 C 274.402 291.190,274.065 291.595,273.900 291.597 C 273.735 291.599,273.600 291.790,273.600 292.022 C 273.600 292.464,271.192 296.130,268.886 299.200 C 266.644 302.184,260.091 309.398,258.146 311.023 C 257.144 311.861,255.666 313.150,254.862 313.889 C 253.155 315.457,243.490 322.000,242.881 322.000 C 242.653 322.000,242.407 322.137,242.333 322.304 C 242.154 322.712,235.533 326.007,234.900 326.003 C 234.625 326.001,234.400 326.141,234.400 326.313 C 234.400 326.485,233.545 326.875,232.500 327.180 C 230.676 327.712,230.162 327.916,228.405 328.800 C 227.968 329.020,227.259 329.200,226.829 329.200 C 226.399 329.200,225.936 329.380,225.800 329.600 C 225.664 329.820,225.034 330.000,224.400 330.000 C 223.766 330.000,223.148 330.160,223.027 330.356 C 222.906 330.551,222.221 330.804,221.504 330.917 C 220.787 331.030,218.940 331.388,217.400 331.713 C 215.860 332.037,213.340 332.538,211.800 332.825 C 208.135 333.508,192.411 333.526,188.600 332.851 C 181.340 331.565,175.634 330.252,174.305 329.561 C 173.923 329.362,173.336 329.200,173.000 329.200 C 172.664 329.200,172.077 329.034,171.695 328.832 C 171.313 328.630,169.920 328.061,168.600 327.570 C 167.280 327.078,166.029 326.523,165.820 326.338 C 165.611 326.152,165.116 326.000,164.720 326.000 C 164.324 326.000,164.000 325.820,164.000 325.600 C 164.000 325.380,163.747 325.200,163.438 325.200 C 162.897 325.200,159.611 323.633,159.200 323.179 C 159.090 323.058,158.367 322.664,157.594 322.305 C 156.820 321.945,155.507 321.190,154.676 320.626 C 153.845 320.062,153.083 319.600,152.983 319.600 C 152.515 319.600,147.622 315.920,143.411 312.400 C 140.330 309.824,136.466 305.913,134.125 303.000 C 132.711 301.240,131.313 299.506,131.020 299.146 C 129.800 297.651,126.400 292.405,126.400 292.018 C 126.400 291.788,126.248 291.600,126.063 291.600 C 125.877 291.600,125.292 290.745,124.763 289.700 C 124.233 288.655,123.665 287.740,123.500 287.667 C 123.335 287.593,123.200 287.286,123.200 286.984 C 123.200 286.682,122.660 285.519,122.000 284.400 C 121.340 283.281,120.800 282.190,120.800 281.977 C 120.800 281.764,120.641 281.277,120.447 280.895 C 118.877 277.810,116.731 271.113,115.545 265.600 C 112.911 253.361,112.921 239.044,115.570 228.200 C 115.785 227.320,116.137 225.790,116.352 224.800 C 116.567 223.810,116.834 222.730,116.946 222.400 C 119.838 213.842,122.878 206.879,125.273 203.328 C 125.893 202.408,126.400 201.463,126.400 201.228 C 126.400 200.993,126.580 200.800,126.800 200.800 C 127.020 200.800,127.200 200.604,127.200 200.365 C 127.200 199.994,128.598 197.830,130.266 195.618 C 132.643 192.466,137.307 187.213,140.050 184.600 C 143.443 181.368,143.951 180.927,147.201 178.403 C 148.191 177.635,149.060 176.870,149.133 176.703 C 149.207 176.536,149.522 176.400,149.833 176.400 C 150.145 176.400,150.400 176.220,150.400 176.000 C 150.400 175.780,150.670 175.600,151.000 175.600 C 151.330 175.600,151.600 175.420,151.600 175.200 C 151.600 174.980,151.836 174.800,152.125 174.800 C 152.413 174.800,153.006 174.485,153.442 174.100 C 155.221 172.528,164.683 167.700,168.600 166.365 C 169.920 165.915,171.360 165.396,171.800 165.210 C 173.189 164.624,174.158 164.309,175.600 163.976 C 176.370 163.799,177.720 163.448,178.600 163.196 C 186.210 161.024,206.388 159.678,210.400 161.076 M201.000 191.200 C 200.710 191.669,202.754 195.279,206.482 200.885 C 207.757 202.801,208.800 204.462,208.800 204.575 C 208.800 204.689,210.240 206.961,212.000 209.625 C 215.457 214.857,215.732 215.793,214.200 217.125 C 211.860 219.160,212.938 220.249,219.800 222.784 C 222.880 223.922,225.760 225.003,226.200 225.187 C 226.640 225.371,228.080 225.914,229.400 226.393 C 230.720 226.872,232.076 227.407,232.413 227.581 C 234.468 228.644,236.993 228.491,237.372 227.280 C 237.547 226.721,238.434 219.205,239.814 206.599 C 239.965 205.222,239.859 204.360,239.476 203.836 C 238.943 203.107,238.555 203.054,235.627 203.314 C 234.609 203.404,232.314 200.632,230.401 197.000 C 228.889 194.130,226.302 192.000,223.600 191.401 C 221.236 190.878,201.309 190.700,201.000 191.200 M173.601 192.627 C 172.062 193.713,169.507 197.405,163.293 207.523 C 160.950 211.339,160.310 210.491,170.881 217.580 C 178.420 222.636,180.400 223.556,180.400 222.002 C 180.400 221.813,182.830 217.846,185.800 213.185 C 188.770 208.525,191.200 204.635,191.200 204.541 C 191.200 204.446,192.280 202.763,193.600 200.800 C 194.920 198.837,196.000 197.124,196.000 196.993 C 196.000 196.863,196.720 195.696,197.600 194.400 C 198.480 193.104,199.200 191.944,199.200 191.822 C 199.200 191.700,193.755 191.609,187.100 191.620 L 175.000 191.639 173.601 192.627 M152.638 232.392 C 146.719 234.351,141.727 236.189,141.544 236.477 C 140.951 237.412,141.180 238.419,142.200 239.365 C 143.396 240.473,143.467 241.836,142.400 243.200 C 141.970 243.750,141.614 244.348,141.609 244.528 C 141.604 244.708,141.082 245.609,140.448 246.530 C 136.645 252.058,136.710 254.656,140.795 260.393 C 141.238 261.015,141.600 261.648,141.600 261.800 C 141.600 261.952,141.939 262.554,142.353 263.138 C 142.767 263.722,143.532 264.934,144.053 265.832 C 147.912 272.482,148.972 273.998,149.417 273.506 C 149.858 273.018,156.961 261.804,158.600 259.009 C 161.650 253.806,162.648 253.208,165.286 255.000 C 167.853 256.744,168.037 256.437,167.578 251.186 C 166.914 243.598,166.389 235.746,166.395 233.474 C 166.402 230.428,165.562 228.797,164.000 228.822 C 163.670 228.827,158.557 230.434,152.638 232.392 M250.000 235.958 C 249.450 236.372,248.370 237.067,247.600 237.502 C 246.830 237.937,244.670 239.241,242.800 240.400 C 240.930 241.559,238.770 242.861,238.000 243.293 C 233.283 245.944,233.258 246.081,236.600 251.230 C 238.030 253.434,239.200 255.328,239.200 255.440 C 239.200 255.552,239.906 256.683,240.768 257.953 C 241.631 259.223,242.688 260.878,243.117 261.631 C 245.810 266.354,251.049 274.281,251.291 274.000 C 251.526 273.727,258.307 262.541,259.293 260.800 C 259.729 260.030,260.227 259.220,260.400 259.000 C 263.270 255.352,263.136 251.239,260.000 246.800 C 259.612 246.250,258.935 245.170,258.498 244.400 C 253.633 235.845,252.131 234.353,250.000 235.958 M213.200 272.208 C 211.330 273.643,209.530 275.040,209.200 275.314 C 208.870 275.587,207.794 276.439,206.810 277.206 C 205.825 277.972,204.812 278.780,204.558 279.000 C 204.304 279.220,202.365 280.735,200.248 282.366 C 195.592 285.954,195.498 286.336,198.704 288.674 C 199.967 289.595,201.360 290.680,201.800 291.085 C 202.240 291.490,203.230 292.258,204.000 292.792 C 204.770 293.325,205.490 293.861,205.600 293.983 C 205.710 294.105,206.459 294.696,207.265 295.296 C 208.071 295.897,208.971 296.619,209.265 296.901 C 210.160 297.758,215.739 301.846,216.727 302.367 C 218.085 303.085,219.488 302.055,219.812 300.103 C 219.950 299.276,220.133 298.375,220.219 298.100 C 220.335 297.728,221.972 297.600,226.610 297.600 C 237.308 297.600,237.783 297.254,245.300 284.000 C 245.736 283.230,246.433 282.122,246.847 281.538 C 247.261 280.954,247.600 280.357,247.600 280.210 C 247.600 280.064,248.110 279.192,248.733 278.272 C 250.923 275.039,252.112 275.338,235.511 274.948 C 222.965 274.654,220.640 274.508,220.395 274.000 C 220.235 273.670,219.856 272.590,219.552 271.600 C 218.695 268.806,217.484 268.922,213.200 272.208 M149.873 275.081 C 149.737 275.302,150.610 277.050,151.813 278.967 C 153.016 280.883,154.000 282.542,154.000 282.653 C 154.000 282.765,154.540 283.641,155.200 284.600 C 155.860 285.559,156.400 286.459,156.400 286.600 C 156.400 286.741,156.901 287.608,157.512 288.528 C 158.124 289.448,158.889 290.740,159.212 291.400 C 160.285 293.590,163.672 296.647,165.413 296.997 C 167.717 297.461,184.491 297.221,185.100 296.717 C 185.670 296.244,185.847 275.800,185.284 275.452 C 184.616 275.039,150.122 274.678,149.873 275.081 " stroke="none" fill="#e7e7e7" fill-rule="evenodd"></path><path id="path3" d="M198.900 160.687 C 199.505 160.778,200.495 160.778,201.100 160.687 C 201.705 160.595,201.210 160.520,200.000 160.520 C 198.790 160.520,198.295 160.595,198.900 160.687 M189.000 161.190 C 188.517 161.392,189.151 161.438,190.600 161.307 C 191.920 161.187,193.075 161.024,193.167 160.945 C 193.507 160.649,189.770 160.869,189.000 161.190 M206.833 160.945 C 206.925 161.024,208.080 161.187,209.400 161.307 C 210.849 161.438,211.483 161.392,211.000 161.190 C 210.230 160.869,206.493 160.649,206.833 160.945 M183.800 162.000 L 183.000 162.344 183.800 162.325 C 184.240 162.314,185.140 162.168,185.800 162.000 L 187.000 161.695 185.800 161.675 C 185.140 161.665,184.240 161.811,183.800 162.000 M214.200 162.000 C 214.860 162.168,215.760 162.314,216.200 162.325 L 217.000 162.344 216.200 162.000 C 215.760 161.811,214.860 161.665,214.200 161.675 L 213.000 161.695 214.200 162.000 M180.000 162.800 C 179.205 163.314,180.204 163.314,181.400 162.800 L 182.200 162.456 181.400 162.434 C 180.960 162.422,180.330 162.587,180.000 162.800 M218.800 162.800 C 219.130 163.013,219.670 163.188,220.000 163.188 C 220.533 163.188,220.533 163.145,220.000 162.800 C 219.670 162.587,219.130 162.412,218.800 162.412 C 218.267 162.412,218.267 162.455,218.800 162.800 M236.833 168.933 C 236.925 169.006,238.440 169.819,240.200 170.739 C 241.960 171.658,243.040 172.124,242.600 171.773 C 241.729 171.079,237.395 168.800,236.945 168.800 C 236.792 168.800,236.742 168.860,236.833 168.933 M245.000 173.407 C 245.440 173.766,246.160 174.235,246.600 174.451 L 247.400 174.844 246.600 174.193 C 246.160 173.834,245.440 173.365,245.000 173.149 L 244.200 172.756 245.000 173.407 M249.800 176.565 C 250.460 177.132,251.165 177.597,251.367 177.598 C 251.801 177.600,251.796 177.596,250.000 176.437 L 248.600 175.534 249.800 176.565 M147.200 178.449 C 145.806 179.671,145.805 179.672,147.088 178.819 C 147.796 178.348,148.482 177.791,148.612 177.581 C 148.997 176.957,148.677 177.154,147.200 178.449 M252.000 178.149 C 252.000 178.235,252.630 178.786,253.400 179.373 C 254.170 179.960,254.798 180.297,254.795 180.120 C 254.792 179.944,254.162 179.393,253.395 178.896 C 252.628 178.399,252.000 178.063,252.000 178.149 M256.686 182.003 C 257.614 182.970,258.435 183.680,258.512 183.580 C 258.588 183.481,257.829 182.690,256.825 181.822 L 255.000 180.244 256.686 182.003 M140.786 183.900 L 138.600 186.200 140.991 184.000 C 142.306 182.790,143.461 181.755,143.557 181.700 C 143.654 181.645,143.562 181.600,143.353 181.600 C 143.144 181.600,141.989 182.635,140.786 183.900 M258.841 184.100 C 258.937 184.155,259.912 185.010,261.007 186.000 L 263.000 187.800 261.217 185.900 C 260.236 184.855,259.261 184.000,259.050 184.000 C 258.839 184.000,258.745 184.045,258.841 184.100 M136.577 188.100 C 133.752 191.121,132.646 192.400,132.858 192.400 C 132.972 192.400,134.278 191.050,135.761 189.400 C 138.643 186.193,139.219 185.274,136.577 188.100 M263.200 188.253 C 263.200 188.402,264.059 189.440,265.109 190.561 C 266.159 191.683,267.429 193.140,267.931 193.800 C 268.433 194.460,268.662 194.622,268.440 194.161 C 267.992 193.229,263.200 187.827,263.200 188.253 M176.800 191.191 C 176.030 191.351,180.845 191.554,187.500 191.641 C 195.459 191.746,199.555 191.663,199.467 191.400 C 199.310 190.929,178.958 190.741,176.800 191.191 M200.009 191.100 C 200.014 191.265,200.386 191.850,200.836 192.400 C 201.586 193.317,201.617 193.325,201.208 192.492 C 200.963 191.992,200.872 191.407,201.005 191.192 C 201.138 190.976,200.967 190.800,200.624 190.800 C 200.281 190.800,200.004 190.935,200.009 191.100 M222.200 191.200 C 222.640 191.389,223.360 191.538,223.800 191.532 C 224.443 191.523,224.404 191.457,223.600 191.200 C 222.232 190.762,221.181 190.762,222.200 191.200 M225.200 191.724 C 225.200 191.817,225.965 192.398,226.900 193.015 C 227.835 193.632,228.389 193.880,228.131 193.568 C 227.634 192.967,225.200 191.436,225.200 191.724 M197.053 195.191 C 196.053 196.702,195.615 197.796,196.336 196.980 C 196.892 196.352,198.479 193.600,198.286 193.600 C 198.187 193.600,197.632 194.316,197.053 195.191 M170.671 195.300 C 169.634 196.689,168.445 198.867,169.087 198.200 C 169.669 197.596,171.997 194.000,171.807 194.000 C 171.715 194.000,171.204 194.585,170.671 195.300 M128.889 197.517 L 127.979 199.000 128.989 197.878 C 129.545 197.260,130.000 196.585,130.000 196.378 C 130.000 195.790,129.865 195.928,128.889 197.517 M273.630 202.200 C 274.124 203.080,274.700 203.980,274.910 204.200 C 275.509 204.828,274.139 202.294,273.396 201.400 C 273.030 200.960,273.135 201.320,273.630 202.200 M165.917 202.700 C 164.685 204.569,163.917 206.000,164.146 206.000 C 164.242 206.000,164.675 205.399,165.108 204.665 C 165.541 203.931,166.210 202.851,166.594 202.265 C 166.978 201.679,167.205 201.200,167.099 201.200 C 166.993 201.200,166.461 201.875,165.917 202.700 M192.253 202.791 C 191.674 203.667,191.200 204.517,191.200 204.680 C 191.200 204.844,191.442 204.623,191.739 204.189 C 193.041 202.281,193.678 201.200,193.499 201.200 C 193.393 201.200,192.832 201.916,192.253 202.791 M207.560 203.000 C 208.234 204.305,208.788 205.028,208.785 204.600 C 208.783 204.380,208.414 203.750,207.964 203.200 C 207.421 202.536,207.285 202.469,207.560 203.000 M237.221 202.787 C 236.902 202.984,237.126 203.100,237.826 203.100 C 238.438 203.100,239.176 203.426,239.469 203.826 C 239.761 204.226,240.000 204.361,240.000 204.125 C 240.000 203.229,238.036 202.283,237.221 202.787 M275.560 205.400 C 276.234 206.705,276.788 207.428,276.785 207.000 C 276.783 206.780,276.414 206.150,275.964 205.600 C 275.421 204.936,275.285 204.869,275.560 205.400 M239.709 208.000 C 239.709 208.990,239.787 209.395,239.882 208.900 C 239.978 208.405,239.978 207.595,239.882 207.100 C 239.787 206.605,239.709 207.010,239.709 208.000 M162.579 208.109 C 161.527 209.845,161.113 210.901,161.605 210.597 C 161.822 210.463,162.000 210.166,162.000 209.938 C 162.000 209.710,162.380 208.990,162.844 208.339 C 163.308 207.687,163.613 207.080,163.523 206.989 C 163.432 206.899,163.007 207.403,162.579 208.109 M188.953 208.100 C 187.576 210.436,187.486 210.635,188.187 209.800 C 189.000 208.832,189.700 207.600,189.438 207.600 C 189.333 207.600,189.115 207.825,188.953 208.100 M121.352 210.700 C 120.974 211.525,120.595 212.335,120.509 212.500 C 120.423 212.665,120.445 212.800,120.558 212.800 C 120.670 212.800,121.071 212.125,121.448 211.300 C 121.826 210.475,122.205 209.665,122.291 209.500 C 122.377 209.335,122.355 209.200,122.242 209.200 C 122.130 209.200,121.729 209.875,121.352 210.700 M212.609 211.026 C 212.981 211.701,213.641 212.691,214.076 213.226 L 214.867 214.200 214.191 212.974 C 213.819 212.299,213.159 211.309,212.724 210.774 L 211.933 209.800 212.609 211.026 M184.646 215.000 C 184.291 215.550,183.709 216.495,183.353 217.100 L 182.705 218.200 183.510 217.226 C 184.460 216.076,185.721 214.000,185.469 214.000 C 185.371 214.000,185.001 214.450,184.646 215.000 M238.909 215.600 C 238.909 216.590,238.987 216.995,239.082 216.500 C 239.178 216.005,239.178 215.195,239.082 214.700 C 238.987 214.205,238.909 214.610,238.909 215.600 M214.854 215.220 C 214.825 215.781,214.665 216.412,214.500 216.623 C 214.335 216.833,214.441 216.802,214.735 216.554 C 215.029 216.306,215.188 215.674,215.089 215.151 C 214.911 214.210,214.908 214.210,214.854 215.220 M181.014 220.635 C 180.641 221.204,180.427 221.761,180.539 221.872 C 180.650 221.983,181.029 221.518,181.381 220.837 C 182.159 219.333,181.944 219.215,181.014 220.635 M176.600 221.788 C 177.260 222.329,177.970 222.778,178.178 222.786 C 178.385 222.794,177.945 222.350,177.200 221.800 C 175.457 220.514,175.035 220.505,176.600 221.788 M238.109 222.800 C 238.109 223.790,238.187 224.195,238.282 223.700 C 238.378 223.205,238.378 222.395,238.282 221.900 C 238.187 221.405,238.109 221.810,238.109 222.800 M282.868 223.000 C 282.862 223.440,283.011 224.160,283.200 224.600 C 283.638 225.619,283.638 224.568,283.200 223.200 C 282.943 222.396,282.877 222.357,282.868 223.000 M220.000 223.133 C 220.330 223.336,221.050 223.624,221.600 223.771 C 222.295 223.957,222.417 223.925,222.000 223.667 C 221.670 223.464,220.950 223.176,220.400 223.029 C 219.705 222.843,219.583 222.875,220.000 223.133 M283.656 226.400 C 283.656 226.730,283.811 227.360,284.000 227.800 C 284.217 228.304,284.344 228.378,284.344 228.000 C 284.344 227.670,284.189 227.040,284.000 226.600 C 283.783 226.096,283.656 226.022,283.656 226.400 M236.844 227.884 C 236.454 228.306,235.856 228.417,234.844 228.255 C 233.845 228.094,233.585 228.141,234.000 228.405 C 235.111 229.113,238.413 228.258,237.599 227.473 C 237.490 227.367,237.150 227.552,236.844 227.884 M162.600 228.819 C 162.001 229.090,162.152 229.131,163.200 228.982 C 164.732 228.764,165.236 228.990,165.922 230.200 C 166.172 230.640,166.381 230.775,166.388 230.500 C 166.424 229.028,164.259 228.067,162.600 228.819 M158.476 230.070 C 157.087 230.518,156.022 230.955,156.109 231.042 C 156.293 231.226,161.600 229.604,161.600 229.363 C 161.600 229.104,161.159 229.204,158.476 230.070 M284.480 229.800 C 284.480 230.240,284.624 231.050,284.800 231.600 C 285.054 232.392,285.120 232.433,285.120 231.800 C 285.120 231.360,284.976 230.550,284.800 230.000 C 284.546 229.208,284.480 229.167,284.480 229.800 M114.200 235.200 C 114.048 235.891,114.007 236.541,114.109 236.642 C 114.211 236.744,114.409 236.253,114.550 235.550 C 114.883 233.883,114.560 233.560,114.200 235.200 M166.520 236.400 C 166.520 237.610,166.595 238.105,166.687 237.500 C 166.778 236.895,166.778 235.905,166.687 235.300 C 166.595 234.695,166.520 235.190,166.520 236.400 M248.200 236.800 C 247.540 237.237,247.180 237.592,247.400 237.588 C 247.801 237.582,249.976 236.023,249.600 236.012 C 249.490 236.008,248.860 236.363,248.200 236.800 M141.067 236.667 C 140.481 237.252,140.861 238.471,142.000 239.663 C 142.660 240.354,143.200 240.778,143.200 240.605 C 143.200 240.433,142.731 239.857,142.157 239.325 C 141.415 238.637,141.168 238.077,141.302 237.380 C 141.503 236.328,141.479 236.255,141.067 236.667 M255.149 239.000 C 255.365 239.440,255.834 240.160,256.193 240.600 L 256.844 241.400 256.451 240.600 C 256.235 240.160,255.766 239.440,255.407 239.000 L 254.756 238.200 255.149 239.000 M166.920 240.800 C 166.920 242.010,166.995 242.505,167.087 241.900 C 167.178 241.295,167.178 240.305,167.087 239.700 C 166.995 239.095,166.920 239.590,166.920 240.800 M113.454 243.456 C 113.131 245.811,113.173 249.993,113.528 250.878 C 113.678 251.251,113.826 249.316,113.857 246.578 C 113.919 241.176,113.845 240.606,113.454 243.456 M239.000 242.400 C 238.340 242.837,237.980 243.192,238.200 243.188 C 238.601 243.182,240.776 241.623,240.400 241.612 C 240.290 241.608,239.660 241.963,239.000 242.400 M286.151 246.800 C 286.151 249.330,286.216 250.365,286.296 249.100 C 286.375 247.835,286.375 245.765,286.296 244.500 C 286.216 243.235,286.151 244.270,286.151 246.800 M258.400 244.120 C 258.400 244.504,260.445 247.600,260.699 247.600 C 260.878 247.600,260.241 246.519,258.939 244.611 C 258.642 244.177,258.400 243.956,258.400 244.120 M234.221 245.577 C 233.834 246.004,233.612 246.589,233.727 246.877 C 233.889 247.280,233.944 247.269,233.968 246.831 C 233.986 246.519,234.298 245.934,234.662 245.531 C 235.026 245.129,235.234 244.800,235.124 244.800 C 235.014 244.800,234.608 245.150,234.221 245.577 M167.300 247.600 C 167.293 248.590,167.421 250.480,167.585 251.800 L 167.882 254.200 167.902 252.200 C 167.912 251.100,167.784 249.210,167.617 248.000 L 167.313 245.800 167.300 247.600 M234.349 248.200 C 234.565 248.640,235.034 249.360,235.393 249.800 L 236.044 250.600 235.651 249.800 C 235.435 249.360,234.966 248.640,234.607 248.200 L 233.956 247.400 234.349 248.200 M262.520 253.200 C 262.520 254.410,262.595 254.905,262.687 254.300 C 262.778 253.695,262.778 252.705,262.687 252.100 C 262.595 251.495,262.520 251.990,262.520 253.200 M237.960 253.800 C 238.634 255.105,239.188 255.828,239.185 255.400 C 239.183 255.180,238.814 254.550,238.364 254.000 C 237.821 253.336,237.685 253.269,237.960 253.800 M163.600 254.101 C 163.600 254.207,164.336 254.781,165.236 255.376 C 166.854 256.447,168.006 256.504,167.994 255.513 C 167.990 255.155,167.872 255.182,167.606 255.600 C 167.202 256.235,167.157 256.219,164.500 254.493 C 164.005 254.171,163.600 253.995,163.600 254.101 M159.453 257.591 C 158.874 258.467,158.400 259.317,158.400 259.480 C 158.400 259.644,158.642 259.423,158.939 258.989 C 160.241 257.081,160.878 256.000,160.699 256.000 C 160.593 256.000,160.032 256.716,159.453 257.591 M285.418 257.818 C 285.265 258.839,285.222 259.755,285.322 259.855 C 285.422 259.955,285.629 259.202,285.782 258.182 C 285.935 257.161,285.978 256.245,285.878 256.145 C 285.778 256.045,285.571 256.798,285.418 257.818 M114.056 258.000 C 114.056 258.330,114.211 258.960,114.400 259.400 C 114.617 259.904,114.744 259.978,114.744 259.600 C 114.744 259.270,114.589 258.640,114.400 258.200 C 114.183 257.696,114.056 257.622,114.056 258.000 M259.814 259.835 C 259.441 260.404,259.205 260.938,259.289 261.022 C 259.373 261.107,259.758 260.641,260.144 259.988 C 261.006 258.528,260.748 258.409,259.814 259.835 M241.960 260.200 C 242.634 261.505,243.188 262.228,243.185 261.800 C 243.183 261.580,242.814 260.950,242.364 260.400 C 241.821 259.736,241.685 259.669,241.960 260.200 M284.622 263.022 C 284.472 263.825,284.428 264.562,284.526 264.660 C 284.624 264.757,284.827 264.181,284.978 263.378 C 285.128 262.575,285.172 261.838,285.074 261.740 C 284.976 261.643,284.773 262.219,284.622 263.022 M257.753 263.300 C 256.376 265.636,256.286 265.835,256.987 265.000 C 257.800 264.032,258.500 262.800,258.238 262.800 C 258.133 262.800,257.915 263.025,257.753 263.300 M155.353 264.100 C 153.976 266.436,153.886 266.635,154.587 265.800 C 155.400 264.832,156.100 263.600,155.838 263.600 C 155.733 263.600,155.515 263.825,155.353 264.100 M283.829 266.629 C 283.681 267.215,283.638 267.772,283.732 267.866 C 283.827 267.960,284.024 267.558,284.171 266.971 C 284.319 266.385,284.362 265.828,284.268 265.734 C 284.173 265.640,283.976 266.042,283.829 266.629 M245.949 266.600 C 246.165 267.040,246.634 267.760,246.993 268.200 L 247.644 269.000 247.251 268.200 C 247.035 267.760,246.566 267.040,246.207 266.600 L 245.556 265.800 245.949 266.600 M255.353 267.300 C 253.976 269.636,253.886 269.835,254.587 269.000 C 255.400 268.032,256.100 266.800,255.838 266.800 C 255.733 266.800,255.515 267.025,255.353 267.300 M151.353 270.500 C 149.976 272.836,149.886 273.035,150.587 272.200 C 151.400 271.232,152.100 270.000,151.838 270.000 C 151.733 270.000,151.515 270.225,151.353 270.500 M213.600 271.649 C 212.206 272.871,212.205 272.872,213.488 272.019 C 214.196 271.548,214.882 270.991,215.012 270.781 C 215.397 270.157,215.077 270.354,213.600 271.649 M252.253 272.500 L 251.533 273.800 252.358 272.800 C 253.089 271.913,253.414 271.200,253.086 271.200 C 253.024 271.200,252.649 271.785,252.253 272.500 M148.392 273.500 C 148.632 273.995,148.996 274.400,149.202 274.400 C 149.407 274.400,149.478 274.652,149.360 274.960 C 149.242 275.267,149.383 275.656,149.673 275.824 C 149.963 275.991,150.067 275.981,149.903 275.801 C 149.740 275.621,149.807 275.232,150.052 274.937 C 150.384 274.537,150.372 274.400,150.006 274.400 C 149.703 274.400,149.617 274.132,149.781 273.700 C 149.991 273.149,149.943 273.104,149.558 273.486 C 149.173 273.868,148.949 273.825,148.512 273.286 C 148.017 272.675,148.003 272.698,148.392 273.500 M165.491 274.689 C 166.201 274.777,167.461 274.779,168.291 274.692 C 169.121 274.605,168.540 274.533,167.000 274.531 C 165.460 274.529,164.781 274.600,165.491 274.689 M224.300 274.698 C 226.335 274.771,229.665 274.771,231.700 274.698 C 233.735 274.625,232.070 274.566,228.000 274.566 C 223.930 274.566,222.265 274.625,224.300 274.698 M177.800 275.187 L 185.400 275.400 185.507 285.751 C 185.588 293.632,185.493 296.256,185.107 296.751 C 184.656 297.328,184.677 297.339,185.300 296.851 C 186.184 296.158,186.388 276.148,185.520 275.280 C 185.175 274.935,182.959 274.824,177.620 274.887 L 170.200 274.973 177.800 275.187 M243.084 275.099 C 249.774 275.208,250.350 275.274,250.146 275.909 C 249.958 276.495,249.990 276.509,250.356 276.000 C 250.594 275.670,250.791 275.265,250.794 275.100 C 250.797 274.935,247.425 274.841,243.300 274.890 L 235.800 274.981 243.084 275.099 M206.400 277.249 C 205.006 278.471,205.005 278.472,206.288 277.619 C 206.996 277.148,207.682 276.591,207.812 276.381 C 208.197 275.757,207.877 275.954,206.400 277.249 M280.258 278.104 C 279.328 280.540,279.480 281.004,280.436 278.647 C 280.872 277.573,281.158 276.624,281.072 276.538 C 280.986 276.452,280.620 277.157,280.258 278.104 M201.400 281.029 C 199.860 282.253,198.330 283.547,198.000 283.904 C 197.670 284.262,198.210 283.919,199.200 283.142 C 200.190 282.365,201.869 281.070,202.931 280.265 C 203.992 279.459,204.712 278.801,204.531 278.802 C 204.349 278.803,202.940 279.806,201.400 281.029 M120.815 282.000 C 120.821 282.330,121.090 282.949,121.413 283.376 C 122.168 284.375,122.163 284.005,121.402 282.546 C 121.074 281.916,120.810 281.670,120.815 282.000 M196.480 284.880 C 195.644 285.716,195.933 287.067,197.100 287.778 L 198.200 288.447 197.300 287.660 C 196.311 286.794,196.135 285.625,196.880 284.880 C 197.144 284.616,197.270 284.400,197.160 284.400 C 197.050 284.400,196.744 284.616,196.480 284.880 M275.053 289.300 L 274.333 290.600 275.158 289.600 C 275.889 288.713,276.214 288.000,275.886 288.000 C 275.824 288.000,275.449 288.585,275.053 289.300 M198.800 288.925 C 198.800 289.024,199.461 289.609,200.268 290.225 C 201.076 290.841,201.611 291.141,201.456 290.891 C 201.140 290.379,198.800 288.647,198.800 288.925 M241.353 290.500 C 239.976 292.836,239.886 293.035,240.587 292.200 C 241.400 291.232,242.100 290.000,241.838 290.000 C 241.733 290.000,241.515 290.225,241.353 290.500 M160.400 293.725 C 160.400 293.794,160.985 294.379,161.700 295.025 L 163.000 296.200 161.825 294.900 C 160.730 293.688,160.400 293.416,160.400 293.725 M206.140 294.703 C 206.296 294.956,206.991 295.567,207.684 296.060 C 208.377 296.554,208.817 296.750,208.660 296.497 C 208.504 296.244,207.809 295.633,207.116 295.140 C 206.423 294.646,205.983 294.450,206.140 294.703 M270.344 296.700 C 269.075 298.232,268.619 298.942,269.081 298.665 C 269.593 298.358,271.369 296.000,271.089 296.000 C 270.998 296.000,270.663 296.315,270.344 296.700 M165.200 297.182 C 165.530 297.405,166.145 297.591,166.567 297.594 C 167.590 297.602,167.271 297.373,165.800 297.044 C 164.924 296.848,164.762 296.885,165.200 297.182 M172.900 297.498 C 175.045 297.570,178.555 297.570,180.700 297.498 C 182.845 297.426,181.090 297.367,176.800 297.367 C 172.510 297.367,170.755 297.426,172.900 297.498 M267.944 299.900 C 266.675 301.432,266.219 302.142,266.681 301.865 C 267.193 301.558,268.969 299.200,268.689 299.200 C 268.598 299.200,268.263 299.515,267.944 299.900 M213.568 300.524 C 215.343 302.780,219.600 303.668,219.600 301.782 C 219.600 301.672,219.162 301.869,218.627 302.219 C 217.540 302.931,216.977 302.747,214.400 300.838 C 213.547 300.207,213.222 300.084,213.568 300.524 M135.099 304.200 C 136.001 305.300,137.964 307.370,139.462 308.800 C 141.685 310.923,141.529 310.703,138.612 307.600 C 133.669 302.342,133.218 301.906,135.099 304.200 M265.200 303.222 C 264.870 303.627,263.276 305.408,261.658 307.179 C 260.039 308.951,258.796 310.400,258.895 310.400 C 259.192 310.400,266.109 302.775,265.949 302.624 C 265.867 302.548,265.530 302.816,265.200 303.222 M256.770 311.900 L 255.800 313.000 257.000 312.000 C 257.660 311.450,258.275 310.955,258.367 310.900 C 258.458 310.845,258.355 310.800,258.136 310.800 C 257.918 310.800,257.303 311.295,256.770 311.900 M251.256 316.237 C 249.637 317.426,248.444 318.400,248.605 318.400 C 248.996 318.400,253.894 314.896,254.204 314.394 C 254.560 313.818,254.474 313.872,251.256 316.237 M147.398 315.596 C 147.715 316.109,151.218 318.519,151.383 318.339 C 151.453 318.262,150.531 317.526,149.333 316.702 C 148.135 315.878,147.264 315.380,147.398 315.596 M174.198 329.597 C 174.386 329.901,175.787 330.253,178.200 330.604 L 179.400 330.778 178.200 330.415 C 175.568 329.618,174.015 329.301,174.198 329.597 M224.600 329.600 L 223.400 329.905 224.476 329.953 C 225.068 329.979,225.664 329.820,225.800 329.600 C 225.936 329.380,225.992 329.221,225.924 329.247 C 225.856 329.273,225.260 329.432,224.600 329.600 M221.800 330.400 L 220.600 330.705 221.676 330.753 C 222.268 330.779,222.864 330.620,223.000 330.400 C 223.136 330.180,223.192 330.021,223.124 330.047 C 223.056 330.073,222.460 330.232,221.800 330.400 M216.600 331.610 C 216.066 331.847,216.398 331.886,217.600 331.727 C 218.590 331.596,219.475 331.424,219.567 331.344 C 219.914 331.043,217.364 331.272,216.600 331.610 M185.100 332.282 C 185.595 332.378,186.405 332.378,186.900 332.282 C 187.395 332.187,186.990 332.109,186.000 332.109 C 185.010 332.109,184.605 332.187,185.100 332.282 M212.046 332.363 C 211.707 332.578,212.251 332.632,213.446 332.504 C 214.521 332.388,215.475 332.228,215.567 332.147 C 215.929 331.828,212.565 332.035,212.046 332.363 M190.691 333.089 C 191.401 333.177,192.661 333.179,193.491 333.092 C 194.321 333.005,193.740 332.933,192.200 332.931 C 190.660 332.929,189.981 333.000,190.691 333.089 M206.311 333.093 C 207.251 333.178,208.691 333.177,209.511 333.091 C 210.330 333.005,209.560 332.936,207.800 332.937 C 206.040 332.939,205.370 333.009,206.311 333.093 M198.313 333.495 C 199.476 333.576,201.276 333.576,202.313 333.493 C 203.351 333.411,202.400 333.345,200.200 333.346 C 198.000 333.347,197.151 333.414,198.313 333.495 " stroke="none" fill="#9de0b2" fill-rule="evenodd"></path><path id="path4" d="M196.500 161.098 C 198.425 161.171,201.575 161.171,203.500 161.098 C 205.425 161.025,203.850 160.965,200.000 160.965 C 196.150 160.965,194.575 161.025,196.500 161.098 M188.200 161.600 L 186.600 161.886 188.200 161.903 C 189.080 161.913,190.250 161.776,190.800 161.600 L 191.800 161.280 190.800 161.297 C 190.250 161.306,189.080 161.442,188.200 161.600 M209.200 161.579 C 210.186 161.916,213.490 162.141,213.167 161.850 C 213.075 161.768,211.920 161.596,210.600 161.469 C 209.045 161.320,208.552 161.358,209.200 161.579 M182.500 162.676 C 182.885 162.776,183.515 162.776,183.900 162.676 C 184.285 162.575,183.970 162.493,183.200 162.493 C 182.430 162.493,182.115 162.575,182.500 162.676 M217.000 162.779 C 218.919 163.175,225.873 165.016,227.000 165.427 C 227.548 165.626,227.674 165.587,227.400 165.303 C 226.893 164.778,219.127 162.740,217.000 162.574 L 215.400 162.449 217.000 162.779 M179.000 163.409 C 177.900 163.715,176.516 163.973,175.924 163.982 C 175.332 163.992,174.753 164.152,174.638 164.338 C 174.321 164.851,180.939 163.594,181.498 163.035 C 181.838 162.695,181.259 162.782,179.000 163.409 M229.026 166.165 C 231.044 167.044,232.326 167.259,230.600 166.429 C 229.720 166.006,228.730 165.653,228.400 165.645 C 228.070 165.638,228.352 165.872,229.026 166.165 M237.200 169.600 C 237.970 170.022,238.780 170.366,239.000 170.366 C 239.220 170.366,238.770 170.022,238.000 169.600 C 237.230 169.178,236.420 168.834,236.200 168.834 C 235.980 168.834,236.430 169.178,237.200 169.600 M243.200 172.767 C 244.163 173.552,244.800 173.808,244.800 173.410 C 244.800 173.306,244.215 172.935,243.500 172.586 L 242.200 171.952 243.200 172.767 M246.400 174.524 C 246.400 174.617,247.165 175.198,248.100 175.815 C 249.035 176.432,249.589 176.680,249.331 176.368 C 248.834 175.767,246.400 174.236,246.400 174.524 M250.140 177.103 C 250.296 177.356,250.991 177.967,251.684 178.460 C 252.377 178.954,252.817 179.150,252.660 178.897 C 252.504 178.644,251.809 178.033,251.116 177.540 C 250.423 177.046,249.983 176.850,250.140 177.103 M145.585 180.029 L 144.200 181.258 145.700 180.181 C 147.026 179.230,147.457 178.800,147.085 178.800 C 147.022 178.800,146.347 179.353,145.585 180.029 M253.200 179.277 C 253.200 179.357,254.325 180.396,255.700 181.587 C 257.075 182.777,257.750 183.249,257.200 182.636 C 256.203 181.524,253.200 179.003,253.200 179.277 M139.186 185.813 C 137.104 187.911,135.316 189.756,135.213 189.913 C 135.110 190.071,136.865 188.403,139.113 186.208 C 141.361 184.012,143.200 182.167,143.200 182.108 C 143.200 181.813,142.689 182.284,139.186 185.813 M259.200 184.457 C 259.200 184.808,262.851 188.482,263.027 188.307 C 263.112 188.221,262.286 187.269,261.191 186.191 C 260.096 185.112,259.200 184.332,259.200 184.457 M264.813 190.603 C 265.796 191.705,267.107 193.235,267.726 194.003 C 268.688 195.197,268.669 195.131,267.594 193.550 C 266.902 192.533,265.592 191.003,264.682 190.150 L 263.027 188.600 264.813 190.603 M133.775 191.700 L 132.600 193.000 133.900 191.825 C 135.112 190.730,135.384 190.400,135.075 190.400 C 135.006 190.400,134.421 190.985,133.775 191.700 M176.872 190.740 C 176.361 190.883,181.107 190.940,187.419 190.867 C 200.147 190.720,200.177 190.725,198.811 193.071 C 197.992 194.478,197.987 194.520,198.752 193.600 C 199.208 193.050,199.586 192.454,199.591 192.276 C 199.608 191.646,200.436 192.484,201.809 194.524 C 202.574 195.660,203.200 196.447,203.200 196.273 C 203.200 196.099,202.480 194.896,201.600 193.600 C 200.720 192.304,200.000 191.134,200.000 191.000 C 200.000 190.866,205.383 190.811,211.963 190.878 C 218.543 190.945,223.718 190.868,223.463 190.706 C 222.894 190.345,178.166 190.377,176.872 190.740 M172.093 193.113 C 170.956 194.175,169.213 196.721,167.239 200.200 C 166.740 201.080,166.630 201.440,166.995 201.000 C 167.361 200.560,168.349 199.030,169.192 197.600 C 170.035 196.170,171.401 194.325,172.229 193.500 C 173.969 191.765,173.862 191.460,172.093 193.113 M228.629 194.038 C 229.273 194.829,229.881 195.408,229.979 195.325 C 230.078 195.242,229.551 194.595,228.809 193.887 L 227.458 192.600 228.629 194.038 M195.770 197.873 C 193.217 201.855,193.131 202.000,193.321 202.000 C 193.507 202.000,196.832 197.045,197.549 195.700 C 198.533 193.852,197.676 194.899,195.770 197.873 M270.661 198.273 C 272.525 200.988,273.642 202.393,272.989 201.200 C 272.235 199.823,269.573 196.031,269.196 195.798 C 268.972 195.659,269.631 196.773,270.661 198.273 M230.584 196.600 C 231.905 200.663,235.407 203.948,237.200 202.805 C 237.615 202.541,237.352 202.495,236.350 202.656 C 234.790 202.906,234.219 202.318,231.320 197.467 C 230.772 196.550,230.441 196.160,230.584 196.600 M128.093 199.100 C 127.057 200.596,126.721 201.200,126.923 201.200 C 127.017 201.200,127.570 200.480,128.153 199.600 C 129.336 197.812,129.284 197.379,128.093 199.100 M204.244 198.500 C 204.405 198.775,205.046 199.752,205.668 200.672 C 206.291 201.592,206.800 202.537,206.800 202.772 C 206.800 203.007,207.001 203.200,207.246 203.200 C 207.509 203.200,207.399 202.749,206.978 202.100 C 204.871 198.852,204.278 198.000,204.123 198.000 C 204.029 198.000,204.084 198.225,204.244 198.500 M273.724 203.000 C 274.062 203.660,274.638 204.560,275.004 205.000 C 275.370 205.440,275.265 205.080,274.770 204.200 C 273.680 202.258,272.864 201.322,273.724 203.000 M124.640 204.798 C 124.040 205.899,123.636 206.800,123.741 206.800 C 124.008 206.800,126.043 203.110,125.871 202.937 C 125.793 202.860,125.239 203.697,124.640 204.798 M191.302 204.917 C 190.863 205.661,190.190 206.749,189.806 207.335 C 189.422 207.921,189.193 208.400,189.297 208.400 C 189.614 208.400,192.471 203.938,192.279 203.745 C 192.180 203.647,191.740 204.174,191.302 204.917 M240.047 205.600 C 240.067 207.262,240.096 207.310,240.417 206.234 C 240.623 205.547,240.614 204.808,240.395 204.434 C 240.130 203.981,240.031 204.312,240.047 205.600 M163.453 205.991 C 162.321 207.702,162.025 208.718,163.043 207.400 C 163.782 206.444,164.885 204.400,164.663 204.400 C 164.577 204.400,164.032 205.116,163.453 205.991 M209.200 206.146 C 209.200 206.476,212.053 210.800,212.271 210.800 C 212.357 210.800,212.214 210.401,211.953 209.912 C 211.300 208.691,209.200 205.819,209.200 206.146 M275.600 206.115 C 275.600 206.408,276.855 208.800,277.008 208.800 C 277.284 208.800,276.326 206.402,275.961 206.176 C 275.762 206.053,275.600 206.026,275.600 206.115 M160.917 210.271 C 160.655 210.956,162.881 213.237,164.600 214.046 C 165.040 214.253,164.868 214.013,164.219 213.511 C 161.998 211.798,161.204 210.855,161.447 210.222 C 161.578 209.880,161.571 209.600,161.430 209.600 C 161.290 209.600,161.059 209.902,160.917 210.271 M239.466 211.968 C 239.319 213.378,239.274 214.607,239.366 214.700 C 239.614 214.947,240.115 210.546,239.910 209.930 C 239.813 209.640,239.614 210.557,239.466 211.968 M186.784 212.100 C 186.070 213.255,184.731 215.370,183.808 216.800 C 181.955 219.673,180.886 221.618,181.499 221.000 C 181.921 220.574,187.178 212.336,187.962 210.870 C 188.857 209.199,188.073 210.017,186.784 212.100 M165.600 214.570 C 165.600 214.689,168.345 216.612,171.700 218.842 C 175.055 221.072,177.530 222.628,177.200 222.300 C 176.870 221.972,174.350 220.184,171.600 218.327 C 165.765 214.388,165.600 214.284,165.600 214.570 M213.707 216.786 C 212.600 217.817,212.191 219.158,212.805 219.740 C 213.180 220.095,213.231 220.006,213.032 219.346 C 212.852 218.748,213.090 218.117,213.823 217.246 C 215.012 215.832,214.958 215.620,213.707 216.786 M238.615 219.415 C 238.461 220.654,238.424 221.757,238.534 221.867 C 238.644 221.977,238.861 221.054,239.015 219.815 C 239.170 218.577,239.207 217.473,239.097 217.363 C 238.987 217.253,238.770 218.177,238.615 219.415 M282.012 221.600 C 282.012 221.930,282.187 222.470,282.400 222.800 C 282.745 223.333,282.788 223.333,282.788 222.800 C 282.788 222.470,282.613 221.930,282.400 221.600 C 282.055 221.067,282.012 221.067,282.012 221.600 M180.400 222.200 C 180.126 222.530,179.429 222.805,178.851 222.812 C 177.958 222.823,177.903 222.884,178.486 223.224 C 179.232 223.659,180.624 223.036,180.980 222.109 C 181.240 221.430,181.009 221.466,180.400 222.200 M116.649 224.215 C 116.512 224.573,116.418 225.256,116.441 225.733 C 116.467 226.281,116.603 226.086,116.810 225.203 C 117.160 223.716,117.065 223.133,116.649 224.215 M282.868 224.400 C 282.888 225.439,283.518 227.146,283.532 226.200 C 283.538 225.760,283.389 225.040,283.200 224.600 C 282.989 224.110,282.861 224.032,282.868 224.400 M238.054 225.000 C 238.019 225.440,237.889 226.250,237.767 226.800 C 237.575 227.663,237.607 227.703,237.998 227.090 C 238.247 226.699,238.377 225.889,238.286 225.290 C 238.178 224.579,238.097 224.479,238.054 225.000 M115.849 227.415 C 115.712 227.773,115.618 228.456,115.641 228.933 C 115.667 229.481,115.803 229.286,116.010 228.403 C 116.360 226.916,116.265 226.333,115.849 227.415 M283.668 227.600 C 283.688 228.639,284.318 230.346,284.332 229.400 C 284.338 228.960,284.189 228.240,284.000 227.800 C 283.789 227.310,283.661 227.232,283.668 227.600 M233.000 228.400 C 234.765 229.217,236.232 229.396,236.577 228.837 C 236.700 228.638,236.443 228.568,236.005 228.683 C 235.568 228.797,234.484 228.600,233.597 228.245 C 231.419 227.374,231.012 227.480,233.000 228.400 M162.800 228.406 C 162.370 228.687,162.557 228.730,163.458 228.558 C 165.692 228.130,166.259 229.180,166.598 234.375 C 166.759 236.832,166.978 238.755,167.085 238.648 C 167.193 238.541,167.149 236.519,166.988 234.156 C 166.624 228.819,165.184 226.843,162.800 228.406 M115.049 231.015 C 114.912 231.373,114.824 232.326,114.853 233.133 C 114.901 234.444,114.938 234.387,115.195 232.600 C 115.503 230.471,115.455 229.958,115.049 231.015 M284.487 231.600 C 284.491 232.150,284.632 233.140,284.800 233.800 L 285.105 235.000 285.113 233.800 C 285.117 233.140,284.976 232.150,284.800 231.600 L 284.480 230.600 284.487 231.600 M143.600 234.800 C 143.067 235.145,143.067 235.188,143.600 235.188 C 143.930 235.188,144.470 235.013,144.800 234.800 C 145.333 234.455,145.333 234.412,144.800 234.412 C 144.470 234.412,143.930 234.587,143.600 234.800 M247.800 236.638 C 245.820 237.862,244.020 239.062,243.800 239.305 C 243.580 239.548,243.850 239.469,244.400 239.130 C 252.732 233.991,251.981 234.154,254.212 237.000 C 254.782 237.727,254.782 237.683,254.215 236.512 C 253.643 235.330,252.532 234.390,251.726 234.407 C 251.547 234.411,249.780 235.415,247.800 236.638 M141.270 236.126 C 140.182 237.284,140.172 238.053,141.232 239.256 L 142.064 240.200 141.432 239.211 C 140.535 237.807,140.645 236.980,141.854 236.029 C 142.434 235.573,142.735 235.200,142.524 235.200 C 142.312 235.200,141.748 235.617,141.270 236.126 M285.507 240.600 C 285.592 243.460,285.723 245.980,285.799 246.200 C 286.065 246.971,285.903 237.788,285.629 236.600 C 285.477 235.940,285.422 237.740,285.507 240.600 M114.140 240.000 C 114.140 241.870,114.209 242.635,114.293 241.700 C 114.377 240.765,114.377 239.235,114.293 238.300 C 114.209 237.365,114.140 238.130,114.140 240.000 M241.281 240.572 C 239.321 241.958,239.185 242.265,241.000 241.205 C 242.878 240.110,243.525 239.591,242.980 239.620 C 242.771 239.630,242.007 240.059,241.281 240.572 M257.231 241.900 C 258.248 243.600,258.800 244.294,258.800 243.871 C 258.800 243.506,256.755 240.400,256.514 240.400 C 256.416 240.400,256.738 241.075,257.231 241.900 M142.670 241.410 C 142.521 241.845,142.291 242.470,142.158 242.800 C 142.026 243.130,142.219 242.990,142.588 242.490 C 142.958 241.989,143.188 241.364,143.100 241.100 C 143.010 240.831,142.822 240.967,142.670 241.410 M167.240 243.033 C 167.261 244.335,167.426 246.390,167.606 247.600 C 167.833 249.130,167.867 248.461,167.719 245.400 C 167.490 240.684,167.174 239.127,167.240 243.033 M234.905 244.525 C 234.193 245.006,233.608 245.544,233.605 245.720 C 233.602 245.897,234.275 245.544,235.100 244.937 C 235.925 244.329,236.675 243.780,236.767 243.716 C 236.858 243.652,236.768 243.611,236.567 243.625 C 236.365 243.639,235.617 244.044,234.905 244.525 M140.246 245.800 C 139.891 246.350,139.309 247.295,138.953 247.900 L 138.305 249.000 139.110 248.026 C 140.060 246.876,141.321 244.800,141.069 244.800 C 140.971 244.800,140.601 245.250,140.246 245.800 M113.728 247.600 C 113.728 249.030,113.801 249.615,113.889 248.900 C 113.978 248.185,113.978 247.015,113.889 246.300 C 113.801 245.585,113.728 246.170,113.728 247.600 M261.524 248.905 C 262.116 250.062,262.661 250.870,262.735 250.699 C 262.870 250.391,260.910 246.800,260.607 246.800 C 260.519 246.800,260.932 247.747,261.524 248.905 M285.679 251.200 C 285.631 253.290,285.506 255.720,285.402 256.600 L 285.212 258.200 285.619 256.606 C 285.843 255.729,285.968 253.299,285.897 251.206 L 285.767 247.400 285.679 251.200 M235.809 251.026 C 236.181 251.701,236.841 252.691,237.276 253.226 L 238.067 254.200 237.391 252.974 C 237.019 252.299,236.359 251.309,235.924 250.774 L 235.133 249.800 235.809 251.026 M114.075 254.000 C 114.064 255.870,114.193 257.750,114.360 258.177 C 114.528 258.605,114.595 257.345,114.509 255.377 C 114.298 250.515,114.097 249.878,114.075 254.000 M137.102 252.084 C 136.999 252.790,137.040 253.825,137.195 254.384 C 137.393 255.100,137.485 254.720,137.505 253.100 C 137.538 250.533,137.386 250.151,137.102 252.084 M262.909 253.200 C 262.909 254.190,262.987 254.595,263.082 254.100 C 263.178 253.605,263.178 252.795,263.082 252.300 C 262.987 251.805,262.909 252.210,262.909 253.200 M167.994 254.081 C 167.887 255.336,167.946 256.216,168.124 256.037 C 168.303 255.858,168.390 254.831,168.318 253.756 L 168.187 251.800 167.994 254.081 M161.729 254.900 C 161.284 255.395,160.784 256.070,160.619 256.400 C 160.454 256.730,160.805 256.409,161.399 255.686 C 162.208 254.703,162.685 254.436,163.290 254.629 C 163.829 254.800,164.009 254.738,163.826 254.443 C 163.397 253.749,162.612 253.920,161.729 254.900 M138.200 257.200 C 138.541 257.860,138.911 258.400,139.021 258.400 C 139.131 258.400,138.941 257.860,138.600 257.200 C 138.259 256.540,137.889 256.000,137.779 256.000 C 137.669 256.000,137.859 256.540,138.200 257.200 M239.600 256.920 C 239.600 257.304,241.645 260.400,241.899 260.400 C 242.078 260.400,241.441 259.319,240.139 257.411 C 239.842 256.977,239.600 256.756,239.600 256.920 M261.053 258.500 L 260.333 259.800 261.158 258.800 C 261.889 257.913,262.214 257.200,261.886 257.200 C 261.824 257.200,261.449 257.785,261.053 258.500 M158.139 260.296 C 157.487 261.343,156.628 262.695,156.231 263.300 C 155.833 263.905,155.592 264.400,155.695 264.400 C 155.997 264.400,159.674 258.740,159.491 258.558 C 159.400 258.466,158.791 259.248,158.139 260.296 M139.549 259.400 C 139.765 259.840,140.234 260.560,140.593 261.000 L 141.244 261.800 140.851 261.000 C 140.635 260.560,140.166 259.840,139.807 259.400 L 139.156 258.600 139.549 259.400 M284.618 261.018 C 284.465 262.039,284.430 262.963,284.540 263.073 C 284.650 263.183,284.865 262.439,285.018 261.418 C 285.171 260.398,285.206 259.473,285.096 259.363 C 284.986 259.253,284.771 259.998,284.618 261.018 M114.828 260.833 C 114.844 261.585,115.012 262.560,115.203 263.000 C 115.426 263.515,115.467 263.087,115.318 261.800 C 115.044 259.422,114.789 258.919,114.828 260.833 M141.949 263.400 C 142.165 263.840,142.634 264.560,142.993 265.000 L 143.644 265.800 143.251 265.000 C 143.035 264.560,142.566 263.840,142.207 263.400 L 141.556 262.600 141.949 263.400 M243.600 263.320 C 243.600 263.704,245.645 266.800,245.899 266.800 C 246.078 266.800,245.441 265.719,244.139 263.811 C 243.842 263.377,243.600 263.156,243.600 263.320 M283.850 265.250 C 283.709 265.953,283.669 266.602,283.759 266.692 C 283.850 266.783,284.048 266.291,284.200 265.600 C 284.352 264.909,284.393 264.259,284.291 264.158 C 284.189 264.056,283.991 264.547,283.850 265.250 M115.606 265.233 C 115.609 265.765,115.789 266.470,116.006 266.800 C 116.282 267.222,116.323 266.985,116.142 266.000 C 115.825 264.275,115.598 263.949,115.606 265.233 M143.600 266.129 C 143.600 266.494,145.645 269.600,145.886 269.600 C 146.079 269.600,144.492 266.848,143.936 266.220 C 143.751 266.011,143.600 265.970,143.600 266.129 M153.116 268.088 C 152.347 269.274,151.426 271.060,151.723 270.790 C 152.284 270.279,154.023 267.490,153.874 267.341 C 153.783 267.250,153.442 267.586,153.116 268.088 M283.050 268.450 C 282.909 269.153,282.869 269.802,282.959 269.892 C 283.050 269.983,283.248 269.491,283.400 268.800 C 283.552 268.109,283.593 267.459,283.491 267.358 C 283.389 267.256,283.191 267.747,283.050 268.450 M116.468 268.200 C 116.462 268.640,116.611 269.360,116.800 269.800 C 117.238 270.819,117.238 269.768,116.800 268.400 C 116.543 267.596,116.477 267.557,116.468 268.200 M216.200 269.417 C 214.910 270.055,211.308 272.800,211.761 272.800 C 211.911 272.800,212.972 272.106,214.117 271.258 C 216.715 269.336,217.331 269.118,218.703 269.636 C 219.316 269.868,219.623 269.882,219.400 269.670 C 218.621 268.929,217.385 268.832,216.200 269.417 M247.613 269.709 C 247.598 270.059,249.623 273.200,249.863 273.200 C 250.085 273.200,248.982 271.156,248.243 270.200 C 247.903 269.760,247.620 269.539,247.613 269.709 M146.524 271.000 C 146.862 271.660,147.438 272.560,147.804 273.000 C 148.170 273.440,148.065 273.080,147.570 272.200 C 146.480 270.258,145.664 269.322,146.524 271.000 M219.628 270.676 C 219.718 271.715,220.344 272.596,220.372 271.724 C 220.387 271.242,220.220 270.736,220.000 270.600 C 219.780 270.464,219.613 270.498,219.628 270.676 M282.200 271.600 C 282.050 272.073,282.017 272.550,282.127 272.660 C 282.237 272.770,282.450 272.473,282.600 272.000 C 282.750 271.527,282.783 271.050,282.673 270.940 C 282.563 270.830,282.350 271.127,282.200 271.600 M209.800 274.106 C 209.140 274.590,208.251 275.305,207.825 275.693 C 207.398 276.082,206.903 276.400,206.725 276.400 C 206.546 276.400,206.400 276.592,206.400 276.827 C 206.400 277.061,207.480 276.405,208.800 275.368 C 210.890 273.726,211.490 273.163,211.100 273.213 C 211.045 273.220,210.460 273.622,209.800 274.106 M251.659 273.881 C 251.337 274.455,251.177 274.479,250.639 274.032 C 250.151 273.627,250.000 273.619,250.000 273.996 C 250.000 274.383,246.806 274.448,235.300 274.297 C 225.252 274.165,223.195 274.196,228.800 274.396 C 233.310 274.556,240.105 274.713,243.900 274.744 C 247.695 274.775,250.800 274.902,250.800 275.026 C 250.800 275.151,250.598 275.646,250.351 276.126 C 250.104 276.607,250.075 276.820,250.287 276.600 C 250.885 275.979,252.491 273.200,252.252 273.200 C 252.135 273.200,251.868 273.506,251.659 273.881 M149.600 273.994 C 149.600 274.274,149.333 274.383,148.979 274.247 C 148.638 274.116,148.456 274.167,148.575 274.360 C 148.695 274.553,152.259 274.694,156.496 274.674 L 164.200 274.637 157.429 274.509 C 153.290 274.430,150.453 274.210,150.129 273.941 C 149.739 273.617,149.600 273.631,149.600 273.994 M167.400 274.427 C 170.338 274.714,185.054 274.906,184.767 274.654 C 184.675 274.574,180.100 274.428,174.600 274.331 C 169.100 274.234,165.860 274.277,167.400 274.427 M248.260 279.552 C 247.502 280.845,246.573 282.375,246.195 282.952 C 245.817 283.528,245.600 284.000,245.712 284.000 C 245.906 284.000,247.213 281.999,249.174 278.700 C 249.664 277.875,249.969 277.200,249.852 277.200 C 249.734 277.200,249.018 278.258,248.260 279.552 M152.430 281.000 C 152.924 281.880,153.500 282.780,153.710 283.000 C 154.309 283.628,152.939 281.094,152.196 280.200 C 151.830 279.760,151.935 280.120,152.430 281.000 M198.593 282.834 C 196.121 284.862,195.415 285.598,197.000 284.494 C 198.528 283.430,201.065 281.238,200.793 281.216 C 200.679 281.207,199.689 281.936,198.593 282.834 M277.842 282.837 C 276.906 284.713,277.090 285.276,278.047 283.462 C 278.493 282.616,278.774 281.840,278.671 281.737 C 278.568 281.634,278.195 282.129,277.842 282.837 M154.830 285.000 C 155.324 285.880,155.900 286.780,156.110 287.000 C 156.709 287.628,155.339 285.094,154.596 284.200 C 154.230 283.760,154.335 284.120,154.830 285.000 M244.824 285.318 C 244.523 285.803,244.015 286.605,243.693 287.100 C 243.371 287.595,243.195 288.000,243.301 288.000 C 243.583 288.000,245.686 284.753,245.515 284.581 C 245.435 284.502,245.124 284.833,244.824 285.318 M196.940 287.903 C 197.096 288.156,197.791 288.767,198.484 289.260 C 199.177 289.754,199.617 289.950,199.460 289.697 C 199.304 289.444,198.609 288.833,197.916 288.340 C 197.223 287.846,196.783 287.650,196.940 287.903 M156.815 288.200 C 156.817 288.420,157.186 289.050,157.636 289.600 C 158.179 290.264,158.315 290.331,158.040 289.800 C 157.366 288.495,156.812 287.772,156.815 288.200 M272.978 292.100 C 271.037 295.423,266.559 301.307,263.071 305.116 C 259.292 309.243,257.782 311.060,260.000 308.811 C 266.304 302.419,276.064 289.600,274.627 289.600 C 274.523 289.600,273.781 290.725,272.978 292.100 M125.818 291.100 C 127.556 293.792,128.400 294.964,128.400 294.687 C 128.400 294.305,125.550 290.000,125.297 290.000 C 125.193 290.000,125.428 290.495,125.818 291.100 M200.005 290.273 C 200.008 290.453,200.593 290.998,201.305 291.483 C 202.017 291.969,203.095 292.749,203.700 293.217 C 204.305 293.684,204.800 293.988,204.800 293.892 C 204.800 293.796,203.720 292.870,202.400 291.832 C 201.080 290.795,200.002 290.094,200.005 290.273 M159.200 292.284 C 159.200 293.609,164.738 298.195,165.463 297.471 C 165.571 297.362,165.242 297.143,164.730 296.984 C 163.246 296.523,161.620 295.221,160.364 293.487 C 159.724 292.603,159.200 292.062,159.200 292.284 M238.905 294.743 C 237.240 296.996,235.736 297.378,227.600 297.617 L 220.200 297.835 227.304 297.917 C 233.724 297.992,234.576 297.921,236.145 297.184 C 237.868 296.374,240.324 294.191,239.942 293.809 C 239.833 293.700,239.366 294.120,238.905 294.743 M205.211 294.225 C 205.223 294.619,211.690 299.600,212.190 299.600 C 212.349 299.600,211.336 298.759,209.940 297.731 C 208.543 296.702,206.905 295.409,206.300 294.856 C 205.695 294.303,205.205 294.019,205.211 294.225 M128.800 295.361 C 128.800 295.778,131.123 299.105,131.634 299.421 C 131.958 299.621,130.465 297.315,128.923 295.233 C 128.856 295.142,128.800 295.199,128.800 295.361 M167.300 297.887 C 167.905 297.978,168.895 297.978,169.500 297.887 C 170.105 297.795,169.610 297.720,168.400 297.720 C 167.190 297.720,166.695 297.795,167.300 297.887 M220.046 300.318 C 220.021 300.823,219.540 301.697,218.977 302.259 C 218.415 302.822,218.179 303.207,218.453 303.116 C 219.317 302.828,220.487 300.936,220.286 300.152 C 220.127 299.533,220.085 299.562,220.046 300.318 M213.398 300.737 C 213.834 301.252,214.553 301.859,214.996 302.086 C 215.845 302.521,215.721 302.387,213.803 300.794 C 212.648 299.835,212.634 299.833,213.398 300.737 M135.516 304.200 C 137.523 306.582,141.085 310.104,143.414 312.008 C 144.081 312.553,143.373 311.818,141.840 310.373 C 140.307 308.929,137.802 306.409,136.273 304.773 C 134.064 302.411,133.909 302.293,135.516 304.200 M255.868 312.246 C 255.025 313.029,254.407 313.740,254.494 313.827 C 254.581 313.914,255.352 313.269,256.207 312.393 C 258.134 310.419,257.929 310.330,255.868 312.246 M146.000 314.125 C 146.000 314.224,146.661 314.809,147.468 315.425 C 148.276 316.041,148.811 316.341,148.656 316.091 C 148.340 315.579,146.000 313.847,146.000 314.125 M252.385 315.229 L 251.000 316.458 252.500 315.381 C 253.826 314.430,254.257 314.000,253.885 314.000 C 253.822 314.000,253.147 314.553,252.385 315.229 M156.000 321.164 C 156.550 321.614,157.180 321.983,157.400 321.985 C 157.828 321.988,157.105 321.434,155.800 320.760 C 155.269 320.485,155.336 320.621,156.000 321.164 M243.300 321.246 C 241.937 322.119,241.495 322.706,242.700 322.043 C 243.618 321.539,245.056 320.427,244.800 320.419 C 244.690 320.416,244.015 320.788,243.300 321.246 M160.611 323.734 C 161.496 324.332,162.800 324.858,162.800 324.617 C 162.800 324.437,160.398 323.200,160.050 323.200 C 159.924 323.200,160.177 323.440,160.611 323.734 M183.400 331.600 C 183.840 331.789,184.470 331.944,184.800 331.944 C 185.178 331.944,185.104 331.817,184.600 331.600 C 184.160 331.411,183.530 331.256,183.200 331.256 C 182.822 331.256,182.896 331.383,183.400 331.600 M215.200 331.600 C 214.396 331.857,214.357 331.923,215.000 331.932 C 215.440 331.938,216.160 331.789,216.600 331.600 C 217.619 331.162,216.568 331.162,215.200 331.600 M188.200 332.400 C 188.640 332.589,189.450 332.738,190.000 332.732 L 191.000 332.720 190.000 332.400 C 189.450 332.224,188.640 332.074,188.200 332.068 L 187.400 332.056 188.200 332.400 M210.400 332.400 L 209.400 332.720 210.400 332.754 C 210.950 332.773,211.670 332.613,212.000 332.400 C 212.764 331.906,211.942 331.906,210.400 332.400 M197.317 333.097 C 198.811 333.174,201.151 333.174,202.517 333.096 C 203.882 333.018,202.660 332.955,199.800 332.955 C 196.940 332.956,195.822 333.020,197.317 333.097 " stroke="none" fill="#87d9a4" fill-rule="evenodd"></path></g></svg>