<svg id="svg" version="1.1" xmlns="http://www.w3.org/2000/svg" xmlns:xlink="http://www.w3.org/1999/xlink" width="400" height="400" viewBox="0, 0, 400,400"><g id="svgg"><path id="path0" d="M268.197 82.005 C 268.063 82.222,267.333 82.400,266.576 82.400 C 265.819 82.400,265.200 82.558,265.200 82.751 C 265.200 82.945,264.660 83.327,264.000 83.600 C 263.269 83.903,262.800 84.391,262.800 84.849 C 262.800 85.262,262.638 85.600,262.439 85.600 C 261.332 85.600,260.512 102.327,261.586 102.991 C 261.869 103.166,262.000 125.954,262.000 175.000 C 262.000 229.152,262.114 246.823,262.466 247.041 C 262.748 247.215,264.010 246.202,265.674 244.464 L 268.416 241.600 303.098 241.600 L 337.780 241.600 348.208 252.000 L 358.635 262.400 361.894 262.400 C 365.860 262.400,366.077 262.659,363.838 264.722 C 362.874 265.610,361.952 266.576,361.787 266.869 C 361.623 267.161,362.554 266.365,363.856 265.100 L 366.223 262.800 369.112 262.800 L 372.000 262.800 372.000 231.680 C 372.000 209.292,372.125 200.435,372.447 200.113 C 373.035 199.525,373.016 152.350,372.427 151.250 C 372.208 150.840,372.115 150.418,372.221 150.312 C 372.327 150.206,372.150 149.610,371.828 148.988 C 371.505 148.366,371.350 147.682,371.482 147.467 C 371.616 147.250,371.518 147.204,371.262 147.362 C 370.972 147.541,370.800 147.352,370.800 146.857 C 370.800 146.422,370.665 146.007,370.500 145.933 C 370.049 145.733,366.800 139.295,366.800 138.602 C 366.800 138.271,366.620 138.000,366.400 138.000 C 366.180 138.000,366.000 137.640,366.000 137.200 C 366.000 136.760,365.820 136.400,365.600 136.400 C 365.380 136.400,365.200 136.040,365.200 135.600 C 365.200 135.160,365.020 134.800,364.800 134.800 C 364.580 134.800,364.400 134.440,364.400 134.000 C 364.400 133.560,364.246 133.200,364.057 133.200 C 363.868 133.200,363.287 132.210,362.764 131.000 C 362.242 129.790,361.676 128.800,361.507 128.800 C 361.338 128.800,361.200 128.440,361.200 128.000 C 361.200 127.560,361.020 127.200,360.800 127.200 C 360.580 127.200,360.400 126.840,360.400 126.400 C 360.400 125.960,360.220 125.600,360.000 125.600 C 359.780 125.600,359.600 125.240,359.600 124.800 C 359.600 124.360,359.434 124.000,359.232 124.000 C 358.879 124.000,358.166 121.722,358.324 121.100 C 358.366 120.935,358.109 120.800,357.753 120.800 C 357.304 120.800,357.170 120.556,357.316 120.000 C 357.455 119.469,357.328 119.200,356.939 119.200 C 356.617 119.200,356.455 119.035,356.580 118.832 C 356.705 118.630,356.518 118.175,356.165 117.822 C 355.811 117.469,355.628 116.905,355.757 116.569 C 355.890 116.221,355.821 116.064,355.595 116.203 C 355.229 116.429,354.999 115.528,355.186 114.600 C 355.230 114.380,355.137 114.330,354.978 114.489 C 354.678 114.788,352.019 109.785,352.007 108.900 C 352.003 108.625,351.820 108.400,351.600 108.400 C 351.380 108.400,351.200 108.040,351.200 107.600 C 351.200 107.160,351.020 106.800,350.800 106.800 C 350.580 106.800,350.400 106.440,350.400 106.000 C 350.400 105.560,350.220 105.200,350.000 105.200 C 349.780 105.200,349.600 104.840,349.600 104.400 C 349.600 103.960,349.465 103.599,349.300 103.597 C 348.941 103.593,348.000 101.656,348.000 100.920 C 348.000 100.634,347.820 100.400,347.600 100.400 C 347.380 100.400,347.200 100.055,347.200 99.633 C 347.200 99.212,347.064 98.807,346.898 98.733 C 346.732 98.660,345.968 97.340,345.200 95.800 C 344.432 94.260,343.668 92.940,343.502 92.867 C 343.336 92.793,343.200 92.388,343.200 91.967 C 343.200 91.545,343.020 91.200,342.800 91.200 C 342.580 91.200,342.400 90.840,342.400 90.400 C 342.400 89.960,342.264 89.600,342.098 89.600 C 341.931 89.600,341.574 89.101,341.304 88.490 C 340.594 86.886,338.187 84.462,337.011 84.167 C 336.455 84.027,336.000 83.789,336.000 83.637 C 336.000 83.146,333.390 82.400,331.672 82.400 C 330.752 82.400,330.000 82.222,330.000 82.005 C 330.000 81.748,319.212 81.610,299.220 81.610 C 279.394 81.610,268.354 81.751,268.197 82.005 M312.451 193.364 C 318.875 196.048,318.994 203.947,312.651 206.562 C 310.522 207.439,289.888 207.497,287.400 206.632 C 281.318 204.517,281.190 195.569,287.211 193.397 C 289.330 192.632,310.634 192.604,312.451 193.364 M347.290 281.225 C 346.141 282.339,345.200 283.368,345.200 283.512 C 345.200 283.655,346.190 282.795,347.400 281.600 C 349.445 279.580,349.776 279.200,349.490 279.200 C 349.430 279.200,348.440 280.111,347.290 281.225 " stroke="none" fill="#bfcbd1" fill-rule="evenodd"></path><path id="path1" d="M261.703 175.992 L 261.613 248.584 254.823 255.374 L 248.034 262.163 200.555 262.061 C 159.527 261.973,152.880 261.878,151.638 261.362 C 150.741 260.990,146.812 257.391,141.200 251.803 C 135.423 246.051,131.667 242.619,130.713 242.221 C 128.168 241.159,63.758 241.295,61.684 242.367 C 59.804 243.339,48.000 255.224,48.000 256.145 C 48.000 256.824,49.519 259.275,50.100 259.533 C 50.265 259.607,50.400 259.922,50.400 260.233 C 50.400 260.545,50.580 260.800,50.800 260.800 C 51.020 260.800,51.200 261.070,51.200 261.400 C 51.200 261.730,51.380 262.000,51.600 262.000 C 51.820 262.000,52.000 262.270,52.000 262.600 C 52.000 262.930,52.180 263.200,52.400 263.200 C 52.620 263.200,52.800 263.470,52.800 263.800 C 52.800 264.130,52.980 264.400,53.200 264.400 C 53.420 264.400,53.600 264.636,53.600 264.925 C 53.600 265.213,53.960 265.836,54.400 266.308 C 54.840 266.780,55.200 267.272,55.200 267.400 C 55.200 267.528,55.560 268.020,56.000 268.492 C 56.440 268.964,56.800 269.587,56.800 269.875 C 56.800 270.164,56.980 270.400,57.200 270.400 C 57.420 270.400,57.600 270.670,57.600 271.000 C 57.600 271.330,57.780 271.600,58.000 271.600 C 58.220 271.600,58.400 271.830,58.400 272.112 C 58.400 272.393,58.760 272.883,59.200 273.200 C 59.640 273.517,60.000 274.014,60.000 274.305 C 60.000 274.596,60.372 275.231,60.826 275.717 C 61.281 276.203,61.931 277.185,62.272 277.900 C 62.613 278.615,63.051 279.200,63.246 279.200 C 63.441 279.200,63.600 279.470,63.600 279.800 C 63.600 280.821,64.837 280.468,67.008 278.829 C 86.177 264.356,112.936 266.028,129.985 282.764 C 139.124 291.735,143.235 300.867,144.635 315.305 L 144.859 317.611 158.329 317.505 L 171.800 317.400 172.021 306.600 C 172.285 293.706,172.444 293.007,175.600 290.785 L 177.000 289.800 199.800 289.800 L 222.600 289.800 224.080 290.720 C 227.290 292.716,227.384 293.134,227.527 306.100 L 227.655 317.600 240.978 317.600 C 256.311 317.600,254.987 318.013,255.346 313.122 C 258.320 272.583,308.705 254.260,337.560 283.225 C 339.519 285.191,341.213 286.800,341.326 286.800 C 341.493 286.800,357.013 271.723,358.141 270.464 C 358.329 270.254,359.994 268.537,361.841 266.647 C 365.984 262.409,365.985 262.400,361.917 262.400 L 358.635 262.400 348.208 252.000 L 337.780 241.600 303.089 241.600 L 268.397 241.600 265.733 244.412 C 264.268 245.958,262.874 247.158,262.635 247.078 C 262.325 246.975,262.142 226.309,261.997 175.167 L 261.794 103.400 261.703 175.992 M288.138 193.106 C 287.884 193.268,293.104 193.400,299.738 193.400 C 310.725 193.400,311.934 193.467,313.308 194.149 C 317.544 196.254,317.951 202.774,314.013 205.450 C 313.244 205.972,312.822 206.400,313.076 206.400 C 313.331 206.400,314.099 205.929,314.784 205.352 C 319.014 201.793,317.809 195.603,312.451 193.364 C 310.986 192.752,289.060 192.519,288.138 193.106 M284.434 195.456 C 283.364 196.672,282.812 197.673,282.834 198.356 L 282.869 199.400 283.182 198.365 C 283.671 196.753,284.752 195.310,286.135 194.424 C 286.950 193.902,287.163 193.611,286.734 193.607 C 286.368 193.603,285.333 194.435,284.434 195.456 M372.893 195.600 C 372.893 196.370,372.975 196.685,373.076 196.300 C 373.176 195.915,373.176 195.285,373.076 194.900 C 372.975 194.515,372.893 194.830,372.893 195.600 M372.267 200.267 C 371.816 200.717,371.949 262.800,372.400 262.800 C 372.663 262.800,372.800 252.067,372.800 231.400 C 372.800 214.130,372.740 200.000,372.667 200.000 C 372.593 200.000,372.413 200.120,372.267 200.267 M282.834 201.644 C 282.794 202.869,285.696 206.404,286.734 206.393 C 287.163 206.389,286.950 206.098,286.135 205.576 C 284.752 204.690,283.671 203.247,283.182 201.635 L 282.869 200.600 282.834 201.644 M288.138 206.894 C 288.392 207.056,293.730 207.188,300.000 207.188 C 306.270 207.188,311.608 207.056,311.862 206.894 C 312.116 206.732,306.778 206.600,300.000 206.600 C 293.222 206.600,287.884 206.732,288.138 206.894 M89.751 297.764 C 67.829 305.702,73.254 337.730,96.506 337.641 C 105.697 337.606,112.341 332.697,116.053 323.200 C 116.787 321.320,116.792 313.099,116.060 311.200 C 111.666 299.810,100.231 293.970,89.751 297.764 M297.191 297.606 C 275.089 305.097,280.070 337.607,303.328 337.654 C 326.747 337.702,331.761 304.906,309.453 297.583 C 306.264 296.536,300.315 296.547,297.191 297.606 " stroke="none" fill="#ae9d90" fill-rule="evenodd"></path><path id="path2" d="M207.800 34.400 C 207.508 34.873,207.899 34.873,209.000 34.400 C 209.771 34.069,209.769 34.055,208.924 34.028 C 208.442 34.013,207.936 34.180,207.800 34.400 M197.390 36.016 C 197.221 36.289,197.523 36.338,198.266 36.160 C 199.799 35.792,199.944 35.600,198.690 35.600 C 198.117 35.600,197.532 35.787,197.390 36.016 M192.200 36.800 C 191.905 37.278,192.689 37.278,193.800 36.800 C 194.514 36.493,194.485 36.453,193.524 36.428 C 192.932 36.413,192.336 36.580,192.200 36.800 M187.200 37.600 C 187.200 38.069,187.507 38.069,188.600 37.600 C 189.309 37.295,189.275 37.253,188.300 37.228 C 187.695 37.213,187.200 37.380,187.200 37.600 M223.630 38.300 C 224.164 38.905,224.645 39.475,224.700 39.567 C 224.755 39.658,224.883 39.651,224.984 39.549 C 225.218 39.316,223.416 37.200,222.984 37.200 C 222.806 37.200,223.097 37.695,223.630 38.300 M181.600 38.400 C 181.600 38.901,182.024 38.901,182.800 38.400 C 183.285 38.086,183.228 38.011,182.500 38.006 C 182.005 38.003,181.600 38.180,181.600 38.400 M143.400 43.881 C 142.300 43.956,141.040 44.185,140.600 44.391 C 140.160 44.596,138.810 44.855,137.600 44.966 C 133.047 45.382,130.043 45.824,129.747 46.120 C 129.366 46.501,133.784 46.065,135.360 45.567 C 135.998 45.365,137.472 45.200,138.636 45.200 C 139.800 45.200,140.864 45.020,141.000 44.800 C 141.136 44.580,142.317 44.400,143.624 44.400 C 144.941 44.400,146.000 44.222,146.000 44.000 C 146.000 43.780,145.865 43.632,145.700 43.672 C 145.535 43.712,144.500 43.806,143.400 43.881 M124.800 46.720 C 124.800 46.896,125.430 46.966,126.200 46.876 C 126.970 46.786,127.600 46.642,127.600 46.556 C 127.600 46.470,126.970 46.400,126.200 46.400 C 125.430 46.400,124.800 46.544,124.800 46.720 M119.421 47.566 C 119.291 47.776,119.917 47.849,120.893 47.737 C 123.138 47.479,123.344 47.200,121.290 47.200 C 120.387 47.200,119.545 47.365,119.421 47.566 M227.909 50.331 C 228.096 54.051,228.331 54.355,228.368 50.924 C 228.386 49.342,228.260 47.960,228.088 47.854 C 227.916 47.748,227.836 48.863,227.909 50.331 M109.200 49.208 C 109.200 49.450,109.647 49.508,110.300 49.351 C 111.870 48.975,111.923 48.800,110.467 48.800 C 109.770 48.800,109.200 48.983,109.200 49.208 M88.000 52.400 C 88.000 52.901,88.424 52.901,89.200 52.400 C 89.685 52.086,89.628 52.011,88.900 52.006 C 88.405 52.003,88.000 52.180,88.000 52.400 M80.400 55.600 C 80.127 56.260,79.745 56.800,79.551 56.800 C 79.358 56.800,79.200 56.990,79.200 57.221 C 79.200 57.453,78.750 58.305,78.200 59.114 C 77.650 59.923,77.203 60.769,77.207 60.993 C 77.210 61.217,77.609 60.770,78.091 60.000 C 78.574 59.230,79.077 58.510,79.208 58.400 C 79.731 57.963,81.523 54.400,81.220 54.400 C 81.043 54.400,80.673 54.940,80.400 55.600 M228.174 65.400 C 228.175 71.120,228.231 73.404,228.299 70.476 C 228.368 67.548,228.367 62.868,228.299 60.076 C 228.230 57.284,228.174 59.680,228.174 65.400 M52.800 75.997 C 52.800 76.218,52.451 76.400,52.024 76.400 C 51.597 76.400,51.150 76.557,51.032 76.748 C 50.914 76.940,50.318 77.207,49.708 77.343 C 47.686 77.791,44.250 81.850,43.742 84.389 C 43.607 85.064,43.340 85.714,43.148 85.832 C 42.957 85.950,42.800 86.487,42.800 87.024 C 42.800 87.561,42.620 88.000,42.400 88.000 C 42.180 88.000,42.000 88.439,42.000 88.976 C 42.000 89.513,41.820 90.064,41.600 90.200 C 41.380 90.336,41.200 90.797,41.200 91.224 C 41.200 91.651,41.020 92.000,40.800 92.000 C 40.580 92.000,40.400 92.450,40.400 93.000 C 40.400 93.550,40.220 94.000,40.000 94.000 C 39.780 94.000,39.600 94.349,39.600 94.776 C 39.600 95.203,39.420 95.664,39.200 95.800 C 38.980 95.936,38.800 96.487,38.800 97.024 C 38.800 97.561,38.620 98.000,38.400 98.000 C 38.180 98.000,38.000 98.360,38.000 98.800 C 38.000 99.240,37.820 99.600,37.600 99.600 C 37.380 99.600,37.200 100.140,37.200 100.800 C 37.200 101.460,37.020 102.000,36.800 102.000 C 36.580 102.000,36.400 102.360,36.400 102.800 C 36.400 103.240,36.220 103.600,36.000 103.600 C 35.780 103.600,35.600 104.140,35.600 104.800 C 35.600 105.460,35.420 106.000,35.200 106.000 C 34.980 106.000,34.800 106.360,34.800 106.800 C 34.800 107.240,34.620 107.600,34.400 107.600 C 34.180 107.600,34.000 108.140,34.000 108.800 C 34.000 109.460,33.820 110.000,33.600 110.000 C 33.380 110.000,33.200 110.360,33.200 110.800 C 33.200 111.240,33.020 111.600,32.800 111.600 C 32.580 111.600,32.400 112.050,32.400 112.600 C 32.400 113.150,32.220 113.600,32.000 113.600 C 31.780 113.600,31.600 114.039,31.600 114.576 C 31.600 115.113,31.420 115.664,31.200 115.800 C 30.980 115.936,30.800 116.397,30.800 116.824 C 30.800 117.251,30.620 117.600,30.400 117.600 C 30.180 117.600,30.000 117.962,30.000 118.405 C 30.000 119.183,29.858 119.569,28.862 121.495 C 28.608 121.987,28.400 122.752,28.400 123.195 C 28.400 123.638,28.231 124.000,28.025 124.000 C 27.818 124.000,27.528 124.810,27.379 125.800 C 27.231 126.790,26.950 127.600,26.755 127.600 C 26.560 127.600,26.400 127.960,26.400 128.400 C 26.400 128.840,26.220 129.200,26.000 129.200 C 25.780 129.200,25.600 129.740,25.600 130.400 C 25.600 131.060,25.420 131.600,25.200 131.600 C 24.980 131.600,24.800 131.960,24.800 132.400 C 24.800 132.840,24.620 133.200,24.400 133.200 C 24.180 133.200,24.000 133.740,24.000 134.400 C 24.000 135.060,23.820 135.600,23.600 135.600 C 23.380 135.600,23.200 135.960,23.200 136.400 C 23.200 136.840,23.020 137.200,22.800 137.200 C 22.580 137.200,22.400 137.740,22.400 138.400 C 22.400 139.060,22.220 139.600,22.000 139.600 C 21.780 139.600,21.600 139.960,21.600 140.400 C 21.600 140.840,21.420 141.200,21.200 141.200 C 20.980 141.200,20.800 141.740,20.800 142.400 C 20.800 143.060,20.620 143.600,20.400 143.600 C 20.180 143.600,20.000 143.960,20.000 144.400 C 20.000 144.840,19.820 145.200,19.600 145.200 C 19.380 145.200,19.200 145.650,19.200 146.200 C 19.200 146.750,19.020 147.200,18.800 147.200 C 18.580 147.200,18.400 147.650,18.400 148.200 C 18.400 148.750,18.220 149.200,18.000 149.200 C 17.780 149.200,17.600 149.650,17.600 150.200 C 17.600 150.750,17.420 151.200,17.200 151.200 C 16.980 151.200,16.800 151.639,16.800 152.176 C 16.800 152.713,16.620 153.264,16.400 153.400 C 16.180 153.536,16.000 153.997,16.000 154.424 C 16.000 154.851,15.820 155.200,15.600 155.200 C 15.380 155.200,15.200 155.740,15.200 156.400 C 15.200 157.060,15.020 157.600,14.800 157.600 C 14.580 157.600,14.400 157.960,14.400 158.400 C 14.400 158.840,14.220 159.200,14.000 159.200 C 13.780 159.200,13.600 159.555,13.600 159.988 C 13.600 160.421,13.240 161.417,12.800 162.200 C 12.360 162.983,12.000 163.979,12.000 164.412 C 12.000 164.845,11.820 165.200,11.600 165.200 C 11.380 165.200,11.200 165.549,11.200 165.976 C 11.200 166.403,11.041 166.851,10.846 166.971 C 10.652 167.092,10.371 168.002,10.222 168.995 C 10.073 169.988,9.782 170.800,9.575 170.800 C 9.369 170.800,9.200 171.340,9.200 172.000 C 9.200 172.660,9.020 173.200,8.800 173.200 C 8.580 173.200,8.400 173.560,8.400 174.000 C 8.400 174.440,8.220 174.800,8.000 174.800 C 7.780 174.800,7.600 175.340,7.600 176.000 C 7.600 176.660,7.420 177.200,7.200 177.200 C 6.980 177.200,6.800 177.560,6.800 178.000 C 6.800 178.440,6.620 178.800,6.400 178.800 C 6.180 178.800,6.000 179.250,6.000 179.800 C 6.000 180.350,5.820 180.800,5.600 180.800 C 5.380 180.800,5.200 181.250,5.200 181.800 C 5.200 182.350,5.020 182.800,4.800 182.800 C 4.580 182.800,4.400 183.250,4.400 183.800 C 4.400 184.350,4.220 184.800,4.000 184.800 C 3.780 184.800,3.600 185.239,3.600 185.776 C 3.600 186.313,3.420 186.864,3.200 187.000 C 2.980 187.136,2.800 187.597,2.800 188.024 C 2.800 188.451,2.620 188.800,2.400 188.800 C 2.180 188.800,2.000 189.340,2.000 190.000 C 2.000 190.660,1.820 191.200,1.600 191.200 C 1.380 191.200,1.200 191.545,1.200 191.967 C 1.200 192.388,0.975 192.808,0.700 192.900 C -0.162 193.187,-0.001 208.856,0.874 209.731 C 1.244 210.102,1.662 210.764,1.801 211.202 C 1.940 211.641,2.222 212.000,2.427 212.000 C 2.632 212.000,2.800 212.360,2.800 212.800 C 2.800 213.240,2.950 213.600,3.132 213.600 C 3.315 213.600,3.720 214.095,4.032 214.700 C 4.345 215.305,5.095 216.277,5.700 216.860 C 6.305 217.444,6.800 218.137,6.800 218.400 C 6.800 218.663,7.340 219.383,8.000 220.000 C 8.660 220.617,9.200 221.409,9.200 221.760 C 9.200 222.112,9.335 222.401,9.500 222.403 C 9.665 222.404,10.250 223.069,10.800 223.880 C 11.350 224.691,12.205 225.762,12.700 226.259 C 13.195 226.757,13.600 227.314,13.600 227.498 C 13.600 227.682,14.320 228.628,15.200 229.600 C 16.080 230.572,16.800 231.512,16.800 231.688 C 16.800 231.863,17.340 232.572,18.000 233.263 C 18.660 233.954,19.200 234.690,19.200 234.899 C 19.200 235.108,19.740 235.783,20.400 236.400 C 21.060 237.017,21.600 237.737,21.600 238.000 C 21.600 238.263,22.140 238.983,22.800 239.600 C 23.460 240.217,24.000 240.847,24.000 241.000 C 24.000 241.153,24.540 241.783,25.200 242.400 C 25.860 243.017,26.400 243.726,26.400 243.977 C 26.400 244.228,26.583 244.651,26.807 244.917 C 28.332 246.725,28.800 247.358,28.800 247.611 C 28.800 247.770,29.430 248.587,30.200 249.428 C 30.970 250.269,31.600 251.103,31.600 251.282 C 31.600 251.461,32.140 252.172,32.800 252.863 C 33.460 253.554,34.000 254.290,34.000 254.499 C 34.000 254.708,34.540 255.383,35.200 256.000 C 35.860 256.617,36.400 257.298,36.400 257.515 C 36.400 257.732,36.938 258.335,37.596 258.855 C 38.254 259.375,38.794 260.033,38.796 260.318 C 38.801 260.939,40.589 262.800,41.182 262.800 C 41.433 262.800,41.600 261.688,41.600 260.024 C 41.600 258.497,41.780 257.136,42.000 257.000 C 42.225 256.861,42.400 254.956,42.400 252.656 C 42.400 250.403,42.568 248.389,42.774 248.180 C 42.980 247.971,43.245 246.000,43.363 243.800 C 43.481 241.600,43.760 237.820,43.984 235.400 C 44.892 225.571,45.902 214.520,46.398 209.000 C 46.596 206.800,46.951 202.930,47.187 200.400 C 47.423 197.870,47.774 194.000,47.967 191.800 C 48.334 187.615,48.613 186.000,49.230 184.500 C 49.434 184.005,49.761 183.195,49.958 182.700 C 50.155 182.205,50.770 180.810,51.324 179.600 C 51.879 178.390,52.800 176.276,53.371 174.902 C 53.941 173.528,54.875 171.368,55.446 170.102 C 56.016 168.836,56.621 167.440,56.791 167.000 C 57.176 165.999,58.768 162.433,59.244 161.505 C 59.440 161.123,59.600 160.538,59.600 160.205 C 59.600 159.872,59.780 159.600,60.000 159.600 C 60.220 159.600,60.400 159.347,60.400 159.038 C 60.400 158.729,60.739 157.784,61.153 156.938 C 62.103 154.996,63.609 151.647,64.002 150.600 C 64.167 150.160,64.895 148.576,65.621 147.081 L 66.939 144.361 67.770 145.300 C 69.227 146.946,68.219 145.497,65.753 142.400 C 64.439 140.750,63.012 138.924,62.582 138.342 C 61.568 136.970,54.884 128.359,51.796 124.446 C 47.586 119.111,47.077 116.109,49.827 112.841 C 53.211 108.819,57.968 109.875,62.400 115.630 C 63.610 117.201,65.770 119.979,67.200 121.802 C 68.630 123.625,70.600 126.157,71.577 127.427 C 72.669 128.847,73.413 129.518,73.506 129.169 C 73.706 128.423,74.113 127.415,75.149 125.100 C 75.617 124.055,76.360 122.390,76.800 121.400 C 77.240 120.410,77.960 118.790,78.400 117.800 C 78.840 116.810,79.580 115.145,80.044 114.100 C 80.508 113.055,81.048 111.887,81.244 111.505 C 81.440 111.123,81.600 110.538,81.600 110.205 C 81.600 109.872,81.780 109.600,82.000 109.600 C 82.220 109.600,82.400 109.358,82.400 109.061 C 82.400 108.765,82.653 108.000,82.962 107.361 C 83.552 106.140,84.163 104.765,86.585 99.200 C 87.398 97.330,88.320 95.215,88.632 94.500 C 89.329 92.905,90.195 90.885,91.034 88.900 C 91.382 88.075,91.832 87.087,92.034 86.705 C 92.235 86.323,92.400 85.738,92.400 85.405 C 92.400 85.072,92.580 84.800,92.800 84.800 C 93.020 84.800,93.200 84.547,93.200 84.238 C 93.200 83.753,93.752 82.480,95.250 79.505 C 95.443 79.123,95.600 78.538,95.600 78.205 C 95.600 77.872,95.793 77.600,96.028 77.600 C 96.263 77.600,96.398 77.195,96.328 76.700 L 96.200 75.800 74.500 75.697 C 60.108 75.628,52.800 75.729,52.800 75.997 M232.100 77.393 C 232.705 77.926,233.200 78.468,233.200 78.598 C 233.200 78.727,233.560 79.220,234.000 79.692 C 234.678 80.420,234.800 80.448,234.800 79.875 C 234.800 79.504,234.620 79.200,234.400 79.200 C 234.180 79.200,234.000 79.012,234.000 78.782 C 234.000 78.181,232.132 76.398,231.518 76.413 C 231.233 76.420,231.495 76.861,232.100 77.393 M149.600 96.475 C 145.000 98.411,144.400 99.600,144.400 106.777 C 144.400 112.667,144.496 113.079,146.400 115.327 C 149.638 119.151,156.187 117.916,158.309 113.081 C 159.195 111.063,158.961 101.911,157.979 100.163 C 156.197 96.989,152.375 95.307,149.600 96.475 M177.000 96.524 C 174.789 97.399,172.400 99.742,172.400 101.036 C 172.400 101.540,172.220 102.064,172.000 102.200 C 171.426 102.554,171.515 110.326,172.111 112.000 C 174.580 118.925,183.497 119.582,185.991 113.023 C 186.851 110.760,186.500 101.915,185.473 99.973 C 183.979 97.147,179.761 95.430,177.000 96.524 M204.848 96.461 C 201.246 97.497,199.709 99.896,199.354 105.035 C 198.977 110.500,200.451 115.987,202.300 115.997 C 202.575 115.999,202.801 116.135,202.803 116.300 C 202.829 118.805,210.394 117.563,212.526 114.704 C 214.054 112.654,215.159 103.799,214.028 102.668 C 213.792 102.432,213.600 101.813,213.600 101.291 C 213.600 100.770,213.375 100.106,213.100 99.816 C 212.825 99.526,212.298 98.954,211.928 98.545 C 209.961 96.364,207.600 95.670,204.848 96.461 M234.272 103.061 C 234.122 103.211,234.000 138.943,234.000 182.467 L 234.000 261.600 241.104 261.600 L 248.209 261.600 254.905 254.895 L 261.602 248.189 261.501 175.595 L 261.400 103.000 247.972 102.895 C 240.586 102.837,234.421 102.912,234.272 103.061 M75.427 132.300 C 76.467 133.675,77.394 134.800,77.486 134.800 C 77.734 134.800,76.245 132.807,74.797 131.200 C 74.103 130.430,74.386 130.925,75.427 132.300 M177.366 130.954 C 175.568 131.445,173.209 133.114,173.204 133.900 C 173.202 134.175,173.040 134.400,172.845 134.400 C 171.808 134.400,170.974 233.653,171.992 235.900 C 172.216 236.395,172.625 237.295,172.900 237.900 C 175.087 242.711,182.112 243.024,185.246 238.451 L 186.200 237.059 186.315 187.229 C 186.441 132.530,186.536 135.395,184.534 133.180 C 183.255 131.763,182.658 131.463,179.475 130.632 C 179.214 130.563,178.265 130.708,177.366 130.954 M204.800 131.038 C 202.777 131.660,201.147 133.004,200.104 134.913 C 199.443 136.122,199.400 139.237,199.400 186.200 L 199.400 236.200 200.370 237.893 C 201.862 240.498,203.830 241.600,206.991 241.600 C 208.426 241.600,209.600 241.464,209.600 241.298 C 209.600 241.131,210.100 240.774,210.710 240.504 C 211.875 239.988,213.135 238.225,213.786 236.200 C 214.253 234.745,214.296 138.016,213.830 136.123 C 213.344 134.146,211.014 131.689,209.152 131.187 C 208.271 130.950,207.336 130.695,207.075 130.620 C 206.814 130.546,205.790 130.734,204.800 131.038 M148.040 131.671 C 146.866 132.291,145.967 133.169,145.340 134.311 L 144.400 136.021 144.400 186.256 L 144.400 236.491 145.270 238.039 C 148.162 243.185,155.205 242.784,158.300 237.297 C 159.648 234.907,158.886 134.000,157.520 134.000 C 157.344 134.000,157.199 133.775,157.197 133.500 C 157.186 131.364,150.973 130.123,148.040 131.671 M80.991 139.547 C 82.072 140.924,83.141 142.164,83.366 142.303 C 83.591 142.442,82.890 141.429,81.809 140.053 C 80.728 138.676,79.659 137.436,79.434 137.297 C 79.209 137.158,79.910 138.171,80.991 139.547 M84.391 143.988 C 84.857 144.641,85.442 145.302,85.691 145.456 C 85.941 145.611,85.641 145.076,85.025 144.268 C 83.688 142.515,83.184 142.292,84.391 143.988 M70.591 149.147 C 71.672 150.524,72.741 151.764,72.966 151.903 C 73.191 152.042,72.490 151.029,71.409 149.653 C 70.328 148.276,69.259 147.036,69.034 146.897 C 68.809 146.758,69.510 147.771,70.591 149.147 M89.940 151.116 C 90.433 151.809,91.044 152.504,91.297 152.660 C 91.550 152.817,91.354 152.377,90.860 151.684 C 90.367 150.991,89.756 150.296,89.503 150.140 C 89.250 149.983,89.446 150.423,89.940 151.116 M75.591 155.588 C 76.057 156.241,76.642 156.902,76.891 157.056 C 77.141 157.211,76.841 156.676,76.225 155.868 C 74.888 154.115,74.384 153.892,75.591 155.588 M94.458 156.800 C 95.235 157.790,96.530 159.469,97.335 160.531 C 98.141 161.592,98.799 162.312,98.798 162.131 C 98.795 161.763,94.716 156.541,93.696 155.600 C 93.338 155.270,93.681 155.810,94.458 156.800 M80.699 162.100 C 80.917 162.375,82.767 164.760,84.809 167.400 C 86.851 170.040,88.449 171.983,88.361 171.718 C 88.149 171.084,80.798 161.600,80.518 161.600 C 80.399 161.600,80.481 161.825,80.699 162.100 M100.103 164.000 C 101.016 165.286,101.305 165.420,103.648 165.642 C 121.393 167.321,120.973 192.800,103.200 192.800 C 94.100 192.800,87.795 184.398,90.117 175.366 C 90.360 174.422,90.266 173.947,89.717 173.347 C 89.323 172.915,89.154 172.792,89.343 173.074 C 89.531 173.355,89.571 174.353,89.430 175.292 C 88.605 180.808,88.693 181.634,90.524 185.600 C 91.409 187.518,95.296 191.600,96.236 191.600 C 96.546 191.600,96.800 191.780,96.800 192.000 C 96.800 192.220,97.124 192.400,97.520 192.400 C 97.916 192.400,98.433 192.593,98.670 192.830 C 99.249 193.409,107.143 193.417,107.720 192.840 C 107.962 192.598,108.484 192.400,108.880 192.400 C 109.276 192.400,109.600 192.220,109.600 192.000 C 109.600 191.780,109.882 191.600,110.226 191.600 C 111.116 191.600,114.916 187.702,115.880 185.800 C 120.566 176.552,114.575 165.841,104.400 165.277 C 101.646 165.124,101.306 165.008,100.255 163.855 L 99.110 162.600 100.103 164.000 M288.102 193.874 C 281.164 194.818,282.192 205.443,289.294 206.203 C 293.717 206.677,312.910 206.271,313.100 205.700 C 313.192 205.425,313.445 205.200,313.662 205.200 C 314.921 205.200,316.492 202.313,316.492 200.000 C 316.492 197.687,314.921 194.800,313.662 194.800 C 313.445 194.800,313.192 194.575,313.100 194.300 C 312.935 193.804,291.322 193.436,288.102 193.874 M46.278 257.413 C 45.660 257.956,45.354 258.400,45.596 258.400 C 45.838 258.400,46.486 257.950,47.036 257.400 C 48.325 256.112,47.746 256.121,46.278 257.413 M359.600 268.871 C 358.085 270.602,358.082 270.735,359.592 269.313 C 360.344 268.605,360.878 267.959,360.779 267.877 C 360.681 267.796,360.150 268.243,359.600 268.871 M92.200 269.623 C 90.220 269.757,88.060 269.996,87.400 270.156 C 86.740 270.315,85.390 270.632,84.400 270.861 C 80.148 271.844,70.554 276.234,68.800 277.999 C 67.397 279.410,65.011 280.844,64.352 280.671 C 63.782 280.523,63.102 280.939,61.963 282.132 C 58.478 285.785,56.800 287.748,56.800 288.175 C 56.800 288.422,56.440 288.883,56.000 289.200 C 55.560 289.517,55.200 290.057,55.200 290.400 C 55.200 290.743,54.840 291.283,54.400 291.600 C 53.960 291.917,53.600 292.482,53.600 292.855 C 53.600 293.228,53.465 293.593,53.300 293.667 C 53.010 293.796,51.513 296.755,50.703 298.800 C 50.485 299.350,50.148 300.113,49.953 300.495 C 49.759 300.877,49.600 301.541,49.600 301.971 C 49.600 302.401,49.420 302.864,49.200 303.000 C 48.980 303.136,48.800 303.867,48.800 304.624 C 48.800 305.381,48.620 306.000,48.400 306.000 C 48.180 306.000,48.000 306.954,48.000 308.120 C 48.000 309.286,47.811 310.429,47.580 310.660 C 46.799 311.441,47.618 328.400,48.437 328.400 C 48.637 328.400,48.800 329.120,48.800 330.000 C 48.800 330.880,48.980 331.600,49.200 331.600 C 49.420 331.600,49.600 332.140,49.600 332.800 C 49.600 333.460,49.780 334.000,50.000 334.000 C 50.220 334.000,50.400 334.355,50.400 334.788 C 50.400 335.221,50.760 336.217,51.200 337.000 C 51.640 337.783,52.000 338.689,52.000 339.012 C 52.000 339.335,52.136 339.600,52.302 339.600 C 52.469 339.600,52.860 340.185,53.172 340.900 C 53.484 341.615,54.068 342.491,54.470 342.847 C 54.871 343.203,55.200 343.748,55.200 344.059 C 55.200 344.369,55.560 344.883,56.000 345.200 C 56.440 345.517,56.800 346.011,56.800 346.298 C 56.800 346.584,57.565 347.640,58.500 348.645 C 61.982 352.386,66.050 356.400,66.359 356.400 C 66.534 356.400,67.110 356.781,67.639 357.247 C 68.167 357.713,69.095 358.271,69.700 358.486 C 70.305 358.702,70.800 359.041,70.800 359.239 C 70.800 359.438,71.160 359.600,71.600 359.600 C 72.040 359.600,72.400 359.780,72.400 360.000 C 72.400 360.220,72.760 360.400,73.200 360.400 C 73.640 360.400,74.000 360.580,74.000 360.800 C 74.000 361.020,74.360 361.200,74.800 361.200 C 75.240 361.200,75.600 361.380,75.600 361.600 C 75.600 361.820,75.960 362.000,76.400 362.000 C 76.840 362.000,77.200 362.180,77.200 362.400 C 77.200 362.620,77.650 362.800,78.200 362.800 C 78.750 362.800,79.200 362.980,79.200 363.200 C 79.200 363.420,79.639 363.600,80.176 363.600 C 80.713 363.600,81.264 363.780,81.400 364.000 C 81.536 364.220,82.166 364.400,82.800 364.400 C 83.434 364.400,84.064 364.580,84.200 364.800 C 84.336 365.020,85.236 365.200,86.200 365.200 C 87.164 365.200,88.064 365.380,88.200 365.600 C 88.351 365.844,91.463 366.000,96.200 366.000 C 100.937 366.000,104.049 365.844,104.200 365.600 C 104.336 365.380,105.236 365.200,106.200 365.200 C 107.164 365.200,108.064 365.020,108.200 364.800 C 108.336 364.580,109.067 364.400,109.824 364.400 C 110.581 364.400,111.200 364.220,111.200 364.000 C 111.200 363.780,111.740 363.600,112.400 363.600 C 113.060 363.600,113.600 363.420,113.600 363.200 C 113.600 362.980,113.872 362.800,114.205 362.800 C 114.538 362.800,115.123 362.639,115.505 362.442 C 115.887 362.245,117.415 361.498,118.900 360.782 C 120.385 360.066,121.600 359.327,121.600 359.140 C 121.600 358.953,121.876 358.800,122.214 358.800 C 122.949 358.800,124.652 357.743,125.918 356.501 C 126.423 356.005,127.009 355.600,127.221 355.600 C 127.718 355.600,134.800 348.472,134.800 347.972 C 134.800 347.763,135.340 347.028,136.000 346.337 C 136.660 345.646,137.200 344.838,137.200 344.541 C 137.200 344.243,137.368 344.000,137.573 344.000 C 137.778 344.000,138.060 343.641,138.199 343.202 C 138.338 342.764,138.672 342.179,138.940 341.902 C 139.815 341.000,141.600 336.946,141.600 335.860 C 141.600 335.277,141.780 334.800,142.000 334.800 C 142.220 334.800,142.400 334.440,142.400 334.000 C 142.400 333.560,142.580 333.200,142.800 333.200 C 143.020 333.200,143.200 332.480,143.200 331.600 C 143.200 330.720,143.380 330.000,143.600 330.000 C 143.820 330.000,144.000 329.280,144.000 328.400 C 144.000 327.520,144.180 326.800,144.400 326.800 C 144.637 326.800,144.800 325.333,144.800 323.200 C 144.800 321.067,144.963 319.600,145.200 319.600 C 145.420 319.600,145.600 319.330,145.600 319.000 C 145.600 318.479,147.311 318.400,158.600 318.400 L 171.600 318.400 171.600 322.600 C 171.600 325.133,171.759 326.800,172.000 326.800 C 172.220 326.800,172.400 327.076,172.400 327.413 C 172.400 328.209,174.991 330.800,175.787 330.800 C 176.124 330.800,176.400 330.980,176.400 331.200 C 176.400 331.462,184.533 331.600,200.000 331.600 C 215.467 331.600,223.600 331.462,223.600 331.200 C 223.600 330.980,223.878 330.800,224.218 330.800 C 225.018 330.800,226.800 329.018,226.800 328.218 C 226.800 327.878,226.980 327.600,227.200 327.600 C 227.420 327.600,227.600 327.060,227.600 326.400 C 227.600 325.740,227.780 325.200,228.000 325.200 C 228.235 325.200,228.400 323.800,228.400 321.800 L 228.400 318.400 241.400 318.400 L 254.400 318.400 254.400 320.976 C 254.400 322.393,254.580 323.664,254.800 323.800 C 255.020 323.936,255.200 325.027,255.200 326.224 C 255.200 327.421,255.380 328.400,255.600 328.400 C 255.820 328.400,256.000 329.120,256.000 330.000 C 256.000 330.880,256.180 331.600,256.400 331.600 C 256.620 331.600,256.800 332.140,256.800 332.800 C 256.800 333.460,256.980 334.000,257.200 334.000 C 257.420 334.000,257.600 334.450,257.600 335.000 C 257.600 335.550,257.780 336.000,258.000 336.000 C 258.220 336.000,258.400 336.450,258.400 337.000 C 258.400 337.550,258.580 338.000,258.800 338.000 C 259.020 338.000,259.200 338.360,259.200 338.800 C 259.200 339.240,259.335 339.601,259.500 339.601 C 259.665 339.602,260.133 340.412,260.540 341.401 C 260.946 342.391,261.441 343.200,261.640 343.200 C 261.838 343.200,262.000 343.425,262.000 343.700 C 262.001 343.975,262.451 344.723,263.000 345.362 C 263.550 346.001,264.000 346.677,264.000 346.864 C 264.000 347.339,273.099 356.400,273.575 356.400 C 273.789 356.400,274.385 356.821,274.900 357.336 C 275.414 357.851,276.323 358.394,276.918 358.544 C 277.513 358.693,278.000 358.992,278.000 359.208 C 278.000 359.423,278.270 359.600,278.600 359.600 C 278.930 359.600,279.200 359.780,279.200 360.000 C 279.200 360.220,279.560 360.400,280.000 360.400 C 280.440 360.400,280.800 360.580,280.800 360.800 C 280.800 361.020,281.160 361.200,281.600 361.200 C 282.040 361.200,282.400 361.380,282.400 361.600 C 282.400 361.820,282.760 362.000,283.200 362.000 C 283.640 362.000,284.000 362.180,284.000 362.400 C 284.000 362.620,284.540 362.800,285.200 362.800 C 285.860 362.800,286.400 362.980,286.400 363.200 C 286.400 363.420,286.839 363.600,287.376 363.600 C 287.913 363.600,288.464 363.780,288.600 364.000 C 288.736 364.220,289.366 364.400,290.000 364.400 C 290.634 364.400,291.264 364.580,291.400 364.800 C 291.536 365.020,292.436 365.200,293.400 365.200 C 294.364 365.200,295.264 365.380,295.400 365.600 C 295.551 365.844,298.671 366.000,303.424 366.000 C 308.341 366.000,311.200 365.853,311.200 365.600 C 311.200 365.380,312.100 365.200,313.200 365.200 C 314.300 365.200,315.200 365.020,315.200 364.800 C 315.200 364.580,315.920 364.400,316.800 364.400 C 317.680 364.400,318.400 364.220,318.400 364.000 C 318.400 363.780,318.940 363.600,319.600 363.600 C 320.260 363.600,320.800 363.420,320.800 363.200 C 320.800 362.980,321.149 362.800,321.576 362.800 C 322.003 362.800,322.464 362.620,322.600 362.400 C 322.736 362.180,323.197 362.000,323.624 362.000 C 324.051 362.000,324.400 361.820,324.400 361.600 C 324.400 361.380,324.760 361.200,325.200 361.200 C 325.640 361.200,326.000 361.020,326.000 360.800 C 326.000 360.580,326.320 360.400,326.712 360.400 C 327.103 360.400,327.683 360.040,328.000 359.600 C 328.317 359.160,328.872 358.800,329.232 358.800 C 329.894 358.800,332.412 357.245,333.480 356.177 C 333.797 355.860,334.201 355.600,334.377 355.600 C 334.957 355.600,341.600 348.710,341.600 348.109 C 341.600 347.786,342.140 347.017,342.800 346.400 C 343.460 345.783,344.000 345.031,344.000 344.728 C 344.000 344.425,344.360 343.917,344.800 343.600 C 345.240 343.283,345.600 342.703,345.600 342.312 C 345.600 341.920,345.780 341.600,346.000 341.600 C 346.220 341.600,346.400 341.330,346.400 341.000 C 346.400 340.670,346.580 340.400,346.800 340.400 C 347.020 340.400,347.200 340.040,347.200 339.600 C 347.200 339.160,347.380 338.800,347.600 338.800 C 347.820 338.800,348.000 338.440,348.000 338.000 C 348.000 337.560,348.180 337.200,348.400 337.200 C 348.620 337.200,348.800 336.838,348.800 336.395 C 348.800 335.952,348.980 335.232,349.200 334.795 C 349.420 334.358,349.780 333.642,350.000 333.205 C 350.220 332.768,350.400 331.868,350.400 331.205 C 350.400 330.542,350.580 330.000,350.800 330.000 C 351.020 330.000,351.200 329.280,351.200 328.400 C 351.200 327.520,351.380 326.800,351.600 326.800 C 351.832 326.800,352.000 325.493,352.000 323.680 C 352.000 321.961,352.196 320.364,352.436 320.124 C 352.717 319.843,352.784 318.712,352.625 316.944 C 352.490 315.435,352.280 312.715,352.160 310.900 C 352.040 309.085,351.774 307.600,351.571 307.600 C 351.367 307.600,351.200 306.880,351.200 306.000 C 351.200 305.120,351.020 304.400,350.800 304.400 C 350.580 304.400,350.400 303.781,350.400 303.024 C 350.400 302.267,350.220 301.536,350.000 301.400 C 349.780 301.264,349.600 300.803,349.600 300.376 C 349.600 299.949,349.420 299.600,349.200 299.600 C 348.980 299.600,348.800 299.060,348.800 298.400 C 348.800 297.740,348.665 297.199,348.500 297.199 C 348.335 297.198,347.750 296.208,347.200 295.000 C 346.650 293.792,346.065 292.802,345.900 292.801 C 345.735 292.801,345.600 292.564,345.600 292.275 C 345.600 291.987,345.240 291.364,344.800 290.892 C 344.360 290.420,344.000 289.838,344.000 289.599 C 344.000 289.359,343.539 288.703,342.976 288.140 C 342.002 287.166,341.986 287.079,342.638 286.358 C 343.040 285.914,343.133 285.600,342.862 285.600 C 342.608 285.600,342.400 285.768,342.400 285.973 C 342.400 287.619,340.553 286.709,337.054 283.338 C 335.033 281.392,333.020 279.522,332.581 279.182 C 330.721 277.743,328.027 276.000,327.661 276.000 C 327.444 276.000,327.207 275.865,327.133 275.700 C 326.917 275.213,321.952 272.800,321.167 272.800 C 320.771 272.800,320.349 272.641,320.230 272.448 C 320.110 272.254,319.604 271.997,319.106 271.876 C 318.608 271.755,317.480 271.464,316.600 271.229 C 311.695 269.921,308.780 269.550,303.400 269.550 C 298.020 269.550,295.105 269.921,290.200 271.229 C 289.320 271.464,288.192 271.755,287.694 271.876 C 287.196 271.997,286.690 272.254,286.570 272.448 C 286.451 272.641,286.022 272.800,285.617 272.800 C 284.932 272.800,282.847 273.803,279.000 275.983 C 274.179 278.716,267.415 285.010,263.937 290.000 C 261.244 293.864,258.023 300.769,257.125 304.600 C 256.197 308.561,255.909 310.426,255.739 313.600 C 255.603 316.120,255.387 317.129,254.902 317.500 C 254.058 318.144,229.166 318.224,227.974 317.586 C 227.238 317.192,227.199 316.633,227.189 306.286 C 227.176 293.576,226.961 292.662,223.579 290.932 L 221.800 290.023 199.911 290.011 C 170.334 289.996,172.800 288.561,172.800 305.780 C 172.800 316.633,172.763 317.191,172.026 317.586 C 170.829 318.227,145.415 318.146,144.896 317.500 C 144.527 317.040,144.317 315.607,143.741 309.600 C 143.625 308.390,143.365 307.229,143.165 307.020 C 142.964 306.811,142.800 306.057,142.800 305.344 C 142.800 304.631,142.620 303.936,142.400 303.800 C 142.180 303.664,142.000 303.201,142.000 302.771 C 142.000 302.341,141.841 301.677,141.647 301.295 C 141.452 300.913,141.118 300.150,140.903 299.600 C 136.239 287.642,124.781 276.394,113.200 272.402 C 112.430 272.136,111.440 271.771,111.000 271.590 C 110.560 271.409,109.750 271.170,109.200 271.059 C 108.650 270.949,106.940 270.591,105.400 270.263 C 101.993 269.539,97.021 269.298,92.200 269.623 M354.870 273.647 C 353.258 275.202,352.008 276.541,352.092 276.625 C 352.175 276.708,353.579 275.432,355.212 273.788 C 358.969 270.006,358.742 269.913,354.870 273.647 M99.200 296.575 C 114.010 299.337,121.464 313.568,114.964 326.671 C 112.451 331.736,105.092 337.600,101.248 337.600 C 100.756 337.600,99.537 337.806,98.539 338.057 C 90.238 340.147,79.220 332.656,76.057 322.772 C 75.492 321.005,75.446 312.542,76.000 312.200 C 76.220 312.064,76.400 311.595,76.400 311.157 C 76.400 310.417,76.790 309.512,78.598 306.059 C 80.924 301.614,86.791 297.814,93.200 296.600 C 94.630 296.330,95.890 296.087,96.000 296.062 C 96.110 296.036,97.550 296.267,99.200 296.575 M307.112 296.650 C 308.273 296.795,309.319 297.069,309.435 297.257 C 309.552 297.446,309.991 297.600,310.411 297.600 C 313.112 297.600,320.093 303.508,321.637 307.100 C 321.944 307.815,322.331 308.400,322.498 308.400 C 322.664 308.400,322.800 308.820,322.800 309.333 C 322.800 309.847,322.929 310.395,323.086 310.553 C 324.144 311.610,324.826 319.270,324.042 321.281 C 323.845 321.787,323.451 323.010,323.167 324.000 C 322.883 324.990,322.324 326.278,321.925 326.862 C 321.526 327.446,321.200 328.132,321.200 328.386 C 321.200 329.465,315.175 334.837,312.659 336.002 C 288.831 347.031,270.422 314.217,292.248 299.619 C 293.908 298.509,295.691 297.600,296.210 297.600 C 296.728 297.600,297.264 297.420,297.400 297.200 C 297.536 296.980,298.312 296.782,299.124 296.760 C 299.936 296.738,301.050 296.569,301.600 296.385 C 302.150 296.200,303.140 296.125,303.800 296.217 C 304.460 296.310,305.950 296.504,307.112 296.650 " stroke="none" fill="#4a6670" fill-rule="evenodd"></path><path id="path3" d="M208.933 34.418 C 208.455 34.601,207.015 34.828,205.733 34.923 C 204.450 35.018,203.130 35.195,202.800 35.315 C 202.470 35.436,201.390 35.645,200.400 35.780 C 199.410 35.916,197.430 36.216,196.000 36.448 C 191.141 37.235,188.605 37.597,185.800 37.907 C 184.260 38.076,182.814 38.333,182.586 38.478 C 182.359 38.622,180.978 38.794,179.518 38.860 C 178.058 38.925,176.950 39.119,177.055 39.289 C 177.161 39.460,176.337 39.623,175.224 39.650 C 172.680 39.713,172.532 39.735,172.167 40.100 C 172.002 40.265,170.853 40.400,169.613 40.400 C 168.374 40.400,167.189 40.567,166.980 40.770 C 166.771 40.974,165.610 41.182,164.400 41.233 C 163.190 41.285,161.916 41.468,161.570 41.640 C 161.223 41.812,159.918 41.995,158.670 42.045 C 157.421 42.096,156.400 42.271,156.400 42.434 C 156.400 42.598,155.185 42.839,153.700 42.970 C 146.814 43.579,146.000 43.691,146.000 44.034 C 146.000 44.235,144.956 44.400,143.680 44.400 C 142.404 44.400,141.189 44.565,140.980 44.766 C 140.771 44.968,139.520 45.218,138.200 45.323 C 135.187 45.561,127.263 46.608,124.025 47.195 C 121.023 47.740,119.561 47.927,117.100 48.081 C 116.055 48.146,115.200 48.335,115.200 48.500 C 115.200 48.665,114.525 48.801,113.700 48.802 C 112.875 48.803,111.570 48.972,110.800 49.178 C 110.030 49.383,108.410 49.625,107.200 49.715 C 105.990 49.806,104.730 49.984,104.400 50.112 C 104.070 50.240,102.900 50.440,101.800 50.556 C 100.700 50.672,99.350 50.851,98.800 50.953 C 98.250 51.056,97.024 51.240,96.075 51.362 C 95.127 51.484,94.225 51.661,94.072 51.756 C 93.919 51.850,92.895 51.974,91.797 52.030 C 90.699 52.086,89.528 52.266,89.195 52.429 C 88.862 52.593,87.512 52.810,86.195 52.911 C 82.724 53.178,81.929 53.627,80.618 56.057 C 79.983 57.236,79.345 58.290,79.202 58.400 C 79.058 58.510,78.327 59.635,77.577 60.900 C 76.827 62.165,76.075 63.200,75.907 63.200 C 75.738 63.200,75.600 63.470,75.600 63.800 C 75.600 64.130,75.420 64.400,75.200 64.400 C 74.980 64.400,74.800 64.590,74.800 64.821 C 74.800 65.549,72.944 68.010,72.631 67.698 C 72.467 67.534,72.389 67.580,72.456 67.800 C 72.615 68.320,71.496 70.800,71.102 70.800 C 70.936 70.800,70.800 71.036,70.800 71.325 C 70.800 71.613,70.485 72.207,70.100 72.645 C 69.372 73.472,68.400 75.042,68.400 75.389 C 68.400 75.500,74.655 75.637,82.300 75.695 L 96.200 75.800 96.328 76.700 C 96.398 77.195,96.263 77.600,96.028 77.600 C 95.793 77.600,95.600 77.872,95.600 78.205 C 95.600 78.538,95.443 79.123,95.250 79.505 C 93.752 82.480,93.200 83.753,93.200 84.238 C 93.200 84.547,93.020 84.800,92.800 84.800 C 92.580 84.800,92.400 85.072,92.400 85.405 C 92.400 85.738,92.235 86.323,92.034 86.705 C 91.832 87.087,91.382 88.075,91.034 88.900 C 90.195 90.885,89.329 92.905,88.632 94.500 C 88.320 95.215,87.398 97.330,86.585 99.200 C 84.163 104.765,83.552 106.140,82.962 107.361 C 82.653 108.000,82.400 108.765,82.400 109.061 C 82.400 109.358,82.220 109.600,82.000 109.600 C 81.780 109.600,81.600 109.872,81.600 110.205 C 81.600 110.538,81.440 111.123,81.244 111.505 C 81.048 111.887,80.508 113.055,80.044 114.100 C 79.580 115.145,78.840 116.810,78.400 117.800 C 77.960 118.790,77.240 120.410,76.800 121.400 C 76.360 122.390,75.620 124.055,75.156 125.100 C 74.692 126.145,74.152 127.313,73.956 127.695 C 73.503 128.578,73.497 129.889,73.945 130.166 C 74.135 130.283,75.362 131.779,76.672 133.490 C 77.982 135.200,80.458 138.400,82.174 140.600 C 83.890 142.800,85.768 145.210,86.347 145.955 C 86.926 146.700,88.210 148.336,89.200 149.591 C 90.190 150.846,91.450 152.470,92.000 153.200 C 92.550 153.931,94.170 156.010,95.600 157.821 C 97.030 159.633,98.902 162.016,99.761 163.118 L 101.321 165.121 104.361 165.280 C 114.559 165.813,120.577 176.532,115.880 185.800 C 114.916 187.702,111.116 191.600,110.226 191.600 C 109.882 191.600,109.600 191.780,109.600 192.000 C 109.600 192.220,109.276 192.400,108.880 192.400 C 108.484 192.400,107.962 192.598,107.720 192.840 C 107.143 193.417,99.249 193.409,98.670 192.830 C 98.433 192.593,97.916 192.400,97.520 192.400 C 97.124 192.400,96.800 192.220,96.800 192.000 C 96.800 191.780,96.546 191.600,96.236 191.600 C 93.344 191.600,88.406 182.823,88.955 178.658 C 89.090 177.636,89.303 176.035,89.429 175.100 C 89.606 173.784,89.492 173.219,88.923 172.600 C 88.286 171.906,82.994 165.141,80.000 161.192 C 79.450 160.466,78.190 158.850,77.200 157.600 C 76.210 156.350,75.002 154.804,74.516 154.164 C 73.567 152.914,67.172 144.669,67.017 144.495 C 66.917 144.383,64.496 149.283,64.002 150.600 C 63.609 151.647,62.103 154.996,61.153 156.938 C 60.739 157.784,60.400 158.729,60.400 159.038 C 60.400 159.347,60.220 159.600,60.000 159.600 C 59.780 159.600,59.600 159.872,59.600 160.205 C 59.600 160.538,59.440 161.123,59.244 161.505 C 58.768 162.433,57.176 165.999,56.791 167.000 C 56.621 167.440,56.016 168.836,55.446 170.102 C 54.875 171.368,53.941 173.528,53.371 174.902 C 52.800 176.276,51.879 178.390,51.324 179.600 C 50.770 180.810,50.179 182.160,50.012 182.600 C 49.844 183.040,49.517 183.850,49.284 184.400 C 48.616 185.977,48.343 187.509,47.967 191.800 C 47.774 194.000,47.423 197.870,47.187 200.400 C 46.951 202.930,46.596 206.800,46.398 209.000 C 45.902 214.520,44.892 225.571,43.984 235.400 C 43.760 237.820,43.481 241.600,43.363 243.800 C 43.245 246.000,42.980 247.971,42.774 248.180 C 42.568 248.389,42.400 250.378,42.400 252.600 C 42.400 254.899,42.218 256.822,41.978 257.062 C 41.746 257.294,41.611 258.487,41.678 259.713 L 41.800 261.942 43.725 260.171 C 44.784 259.197,45.535 258.400,45.394 258.400 C 45.254 258.400,45.737 257.905,46.469 257.300 C 47.201 256.695,47.869 256.020,47.953 255.800 C 48.329 254.819,60.353 243.055,61.684 242.367 C 63.758 241.295,128.168 241.159,130.713 242.221 C 131.667 242.619,135.423 246.051,141.200 251.803 C 146.812 257.391,150.741 260.990,151.638 261.362 C 152.880 261.878,159.527 261.973,200.552 262.061 L 248.028 262.163 255.014 255.186 C 258.856 251.348,262.000 248.105,262.000 247.978 C 262.000 247.852,258.902 250.865,255.115 254.674 L 248.230 261.600 241.115 261.600 L 234.000 261.600 234.000 182.424 C 234.000 128.688,234.132 103.166,234.411 102.993 C 235.277 102.458,234.871 80.627,233.977 79.667 C 233.550 79.209,233.194 78.691,233.188 78.517 C 233.164 77.916,229.719 75.600,228.849 75.600 L 227.976 75.600 228.029 62.574 C 228.057 55.409,227.979 49.446,227.855 49.321 C 227.730 49.197,227.820 48.737,228.054 48.299 C 228.361 47.725,228.357 47.579,228.040 47.775 C 227.745 47.958,227.600 47.454,227.600 46.247 C 227.600 45.257,227.420 44.336,227.200 44.200 C 226.980 44.064,226.800 43.547,226.800 43.052 C 226.800 42.556,226.440 41.764,226.000 41.292 C 225.560 40.820,225.200 40.298,225.200 40.132 C 225.200 39.287,220.677 35.652,219.015 35.161 C 218.017 34.867,217.200 34.500,217.200 34.346 C 217.200 33.953,209.984 34.016,208.933 34.418 M153.980 96.756 C 157.978 98.275,158.800 99.986,158.800 106.793 C 158.800 112.435,158.533 113.485,156.609 115.409 C 152.913 119.105,147.712 118.159,144.900 113.279 C 142.847 109.716,144.752 98.702,147.657 97.339 C 150.986 95.776,151.320 95.745,153.980 96.756 M182.755 97.298 C 187.190 99.580,188.207 111.536,184.291 115.358 C 180.039 119.507,174.215 117.902,172.111 112.000 C 171.515 110.326,171.426 102.554,172.000 102.200 C 172.220 102.064,172.400 101.540,172.400 101.036 C 172.400 99.742,174.789 97.399,177.000 96.524 C 178.579 95.898,180.551 96.164,182.755 97.298 M208.772 96.500 C 210.338 97.048,210.916 97.423,211.928 98.545 C 212.298 98.954,212.825 99.526,213.100 99.816 C 213.375 100.106,213.600 100.770,213.600 101.291 C 213.600 101.813,213.792 102.432,214.028 102.668 C 215.159 103.799,214.054 112.654,212.526 114.704 C 210.394 117.563,202.829 118.805,202.803 116.300 C 202.801 116.135,202.575 115.999,202.300 115.997 C 198.159 115.975,198.356 100.218,202.531 97.482 C 204.582 96.138,206.759 95.796,208.772 96.500 M181.532 131.182 C 183.469 131.703,185.858 134.212,186.192 136.076 C 186.323 136.804,186.378 159.823,186.315 187.229 L 186.200 237.059 185.246 238.451 C 182.112 243.024,175.087 242.711,172.900 237.900 C 172.625 237.295,172.216 236.395,171.992 235.900 C 170.974 233.653,171.808 134.400,172.845 134.400 C 173.040 134.400,173.202 134.175,173.204 133.900 C 173.213 132.678,177.919 130.225,179.475 130.632 C 179.736 130.700,180.662 130.947,181.532 131.182 M209.152 131.187 C 211.014 131.689,213.344 134.146,213.830 136.123 C 214.296 138.016,214.253 234.745,213.786 236.200 C 213.135 238.225,211.875 239.988,210.710 240.504 C 210.100 240.774,209.600 241.131,209.600 241.298 C 209.600 241.464,208.426 241.600,206.991 241.600 C 203.830 241.600,201.862 240.498,200.370 237.893 L 199.400 236.200 199.400 186.200 C 199.400 130.832,199.200 135.117,201.904 132.608 C 203.002 131.589,206.183 130.366,207.075 130.620 C 207.336 130.695,208.271 130.950,209.152 131.187 M155.820 132.064 C 156.576 132.579,157.196 133.225,157.197 133.500 C 157.199 133.775,157.344 134.000,157.520 134.000 C 158.886 134.000,159.648 234.907,158.300 237.297 C 155.205 242.784,148.162 243.185,145.270 238.039 L 144.400 236.491 144.400 186.256 L 144.400 136.021 145.340 134.311 C 147.244 130.846,152.406 129.739,155.820 132.064 M372.985 174.400 C 372.985 184.630,373.036 188.815,373.100 183.700 C 373.163 178.585,373.163 170.215,373.100 165.100 C 373.036 159.985,372.985 164.170,372.985 174.400 M288.075 193.540 C 287.566 193.683,292.841 193.800,299.797 193.800 C 306.753 193.800,312.029 193.683,311.522 193.540 C 311.015 193.397,305.740 193.280,299.800 193.280 C 293.860 193.280,288.584 193.397,288.075 193.540 M314.414 195.100 C 314.406 195.375,314.538 195.600,314.707 195.600 C 314.876 195.600,315.322 196.095,315.697 196.700 C 316.072 197.305,316.383 197.620,316.387 197.400 C 316.392 197.180,315.953 196.460,315.412 195.800 C 314.871 195.140,314.422 194.825,314.414 195.100 M283.588 197.222 C 283.346 197.674,283.207 198.222,283.280 198.439 C 283.352 198.657,283.618 198.287,283.871 197.617 C 284.397 196.225,284.239 196.005,283.588 197.222 M283.232 201.624 C 283.214 201.966,283.480 202.596,283.822 203.024 C 284.434 203.788,284.438 203.787,284.076 203.000 C 283.874 202.560,283.608 201.930,283.486 201.600 C 283.293 201.082,283.259 201.085,283.232 201.624 M316.000 202.658 C 316.000 202.873,315.622 203.455,315.160 203.951 C 314.698 204.447,314.408 204.941,314.516 205.049 C 314.624 205.158,315.112 204.685,315.600 204.000 C 316.088 203.315,316.378 202.644,316.244 202.510 C 316.110 202.376,316.000 202.443,316.000 202.658 M288.223 206.453 C 288.870 206.592,294.170 206.705,300.000 206.705 C 305.830 206.705,311.130 206.592,311.777 206.453 C 312.425 206.314,307.125 206.200,300.000 206.200 C 292.875 206.200,287.575 206.314,288.223 206.453 M92.000 269.185 C 90.957 269.338,92.807 269.452,96.400 269.456 C 100.596 269.460,101.954 269.367,100.600 269.166 C 98.209 268.812,94.480 268.820,92.000 269.185 M298.800 269.188 C 297.755 269.344,299.683 269.459,303.400 269.463 C 307.728 269.467,309.153 269.372,307.800 269.170 C 305.403 268.811,301.279 268.819,298.800 269.188 M86.400 270.000 L 85.400 270.320 86.400 270.320 C 86.950 270.320,87.850 270.176,88.400 270.000 L 89.400 269.680 88.400 269.680 C 87.850 269.680,86.950 269.824,86.400 270.000 M104.400 270.000 C 104.950 270.176,105.760 270.326,106.200 270.332 L 107.000 270.344 106.200 270.000 C 105.760 269.811,104.950 269.662,104.400 269.668 L 103.400 269.680 104.400 270.000 M293.400 270.000 C 292.306 270.470,294.133 270.470,295.600 270.000 C 296.575 269.688,296.570 269.679,295.400 269.668 C 294.740 269.662,293.840 269.811,293.400 270.000 M311.200 270.000 C 312.667 270.470,314.494 270.470,313.400 270.000 C 312.960 269.811,312.060 269.662,311.400 269.668 C 310.230 269.679,310.225 269.688,311.200 270.000 M83.000 270.800 L 82.200 271.144 83.000 271.144 C 83.440 271.144,84.160 270.989,84.600 270.800 L 85.400 270.456 84.600 270.456 C 84.160 270.456,83.440 270.611,83.000 270.800 M108.000 270.800 C 108.330 271.013,109.050 271.173,109.600 271.154 L 110.600 271.120 109.600 270.800 C 108.058 270.306,107.236 270.306,108.000 270.800 M290.200 270.800 L 289.400 271.144 290.200 271.144 C 290.640 271.144,291.360 270.989,291.800 270.800 L 292.600 270.456 291.800 270.456 C 291.360 270.456,290.640 270.611,290.200 270.800 M315.000 270.800 C 315.440 270.989,316.160 271.144,316.600 271.144 L 317.400 271.144 316.600 270.800 C 316.160 270.611,315.440 270.456,315.000 270.456 L 314.200 270.456 315.000 270.800 M79.600 271.898 C 78.610 272.248,77.995 272.598,78.234 272.678 C 78.473 272.758,79.463 272.470,80.434 272.040 C 82.559 271.097,82.094 271.018,79.600 271.898 M287.600 271.600 C 287.067 271.945,287.067 271.988,287.600 271.988 C 287.930 271.988,288.470 271.813,288.800 271.600 C 289.333 271.255,289.333 271.212,288.800 271.212 C 288.470 271.212,287.930 271.387,287.600 271.600 M318.000 271.600 C 318.330 271.813,318.870 271.988,319.200 271.988 C 319.733 271.988,319.733 271.945,319.200 271.600 C 318.870 271.387,318.330 271.212,318.000 271.212 C 317.467 271.212,317.467 271.255,318.000 271.600 M113.200 272.400 C 113.530 272.613,114.070 272.788,114.400 272.788 C 114.933 272.788,114.933 272.745,114.400 272.400 C 114.070 272.187,113.530 272.012,113.200 272.012 C 112.667 272.012,112.667 272.055,113.200 272.400 M75.800 273.456 C 73.048 274.888,68.902 277.402,67.536 278.468 C 66.731 279.096,65.561 279.877,64.936 280.202 C 64.129 280.624,64.009 280.796,64.523 280.798 C 65.097 280.799,67.728 279.078,68.800 277.999 C 69.248 277.548,73.148 275.304,75.300 274.258 C 77.425 273.226,78.049 272.776,77.300 272.816 C 77.135 272.825,76.460 273.113,75.800 273.456 M118.603 274.805 C 118.737 275.022,119.031 275.200,119.256 275.200 C 122.826 275.200,135.041 287.703,138.797 295.200 C 139.733 297.070,140.657 298.913,140.850 299.295 C 141.042 299.677,141.200 300.251,141.200 300.571 C 141.200 300.891,141.399 301.276,141.643 301.426 C 142.971 302.247,138.353 292.854,135.534 289.000 C 132.641 285.046,127.072 279.714,123.145 277.139 C 119.716 274.891,118.163 274.093,118.603 274.805 M279.900 275.029 C 279.295 275.357,278.800 275.710,278.800 275.813 C 278.800 276.199,279.432 275.957,280.400 275.200 C 281.589 274.270,281.411 274.209,279.900 275.029 M275.275 278.002 C 271.577 280.599,267.483 284.674,264.413 288.815 C 261.908 292.193,257.660 300.193,258.124 300.657 C 258.265 300.799,258.493 300.574,258.629 300.157 C 260.956 293.051,267.740 284.127,274.800 278.886 C 278.220 276.346,278.645 276.000,278.343 276.000 C 278.223 276.000,276.843 276.901,275.275 278.002 M328.400 276.133 C 328.400 276.221,329.124 276.773,330.009 277.359 C 332.405 278.944,333.032 279.472,337.188 283.400 C 341.075 287.075,340.783 286.351,336.800 282.440 C 334.027 279.717,328.400 275.492,328.400 276.133 M189.100 289.900 C 195.095 289.962,204.905 289.962,210.900 289.900 C 216.895 289.838,211.990 289.787,200.000 289.787 C 188.010 289.787,183.105 289.838,189.100 289.900 M175.600 290.833 L 174.600 291.648 176.000 290.973 C 177.712 290.148,177.894 289.997,177.167 290.009 C 176.855 290.014,176.150 290.385,175.600 290.833 M223.579 290.932 C 224.859 291.587,225.613 292.341,226.268 293.621 C 226.768 294.599,227.183 295.151,227.189 294.847 C 227.209 293.862,225.594 291.661,224.233 290.820 C 223.503 290.369,222.657 290.005,222.353 290.011 C 222.049 290.017,222.601 290.432,223.579 290.932 M173.453 292.900 L 172.733 294.200 173.558 293.200 C 174.289 292.313,174.614 291.600,174.286 291.600 C 174.224 291.600,173.849 292.185,173.453 292.900 M172.416 295.200 C 172.322 295.310,172.145 300.350,172.023 306.400 L 171.800 317.400 158.400 317.608 L 145.000 317.816 158.224 317.908 C 168.292 317.978,171.610 317.881,172.130 317.500 C 172.751 317.046,172.803 315.991,172.700 306.000 C 172.638 299.950,172.510 295.090,172.416 295.200 M94.600 296.400 C 93.735 296.620,94.239 296.705,96.400 296.705 C 98.561 296.705,99.065 296.620,98.200 296.400 C 97.540 296.232,96.730 296.095,96.400 296.095 C 96.070 296.095,95.260 296.232,94.600 296.400 M227.375 306.600 C 227.375 312.540,227.431 315.026,227.499 312.124 C 227.567 309.222,227.567 304.362,227.499 301.324 C 227.431 298.286,227.375 300.660,227.375 306.600 M301.600 296.400 C 300.897 296.625,301.432 296.720,303.400 296.720 C 305.368 296.720,305.903 296.625,305.200 296.400 C 304.650 296.224,303.840 296.080,303.400 296.080 C 302.960 296.080,302.150 296.224,301.600 296.400 M90.400 297.200 C 89.867 297.545,89.867 297.588,90.400 297.588 C 90.730 297.588,91.270 297.413,91.600 297.200 C 92.133 296.855,92.133 296.812,91.600 296.812 C 91.270 296.812,90.730 296.987,90.400 297.200 M101.000 297.200 C 102.196 297.714,103.195 297.714,102.400 297.200 C 102.070 296.987,101.440 296.822,101.000 296.834 L 100.200 296.856 101.000 297.200 M297.400 297.200 C 297.108 297.673,297.499 297.673,298.600 297.200 C 299.371 296.869,299.369 296.855,298.524 296.828 C 298.042 296.813,297.536 296.980,297.400 297.200 M308.200 297.200 C 309.301 297.673,309.692 297.673,309.400 297.200 C 309.264 296.980,308.758 296.813,308.276 296.828 C 307.431 296.855,307.429 296.869,308.200 297.200 M86.563 298.738 C 83.226 300.578,78.240 305.173,78.882 305.816 C 78.972 305.905,79.615 305.237,80.312 304.330 C 81.854 302.324,85.102 299.816,87.800 298.548 C 88.900 298.031,89.530 297.609,89.200 297.611 C 88.870 297.613,87.683 298.120,86.563 298.738 M104.568 298.414 C 105.431 298.845,106.212 299.121,106.305 299.028 C 106.536 298.797,104.167 297.596,103.520 297.616 C 103.234 297.625,103.706 297.984,104.568 298.414 M293.700 298.626 C 291.336 300.044,291.573 300.226,294.100 298.933 C 296.627 297.640,296.685 297.599,295.967 297.604 C 295.655 297.606,294.635 298.066,293.700 298.626 M312.400 298.590 C 312.400 298.694,312.985 299.065,313.700 299.414 L 315.000 300.048 314.000 299.233 C 313.037 298.448,312.400 298.192,312.400 298.590 M106.800 299.363 C 106.800 299.443,107.250 299.803,107.800 300.163 C 108.350 300.524,108.800 300.663,108.800 300.473 C 108.800 300.284,108.350 299.923,107.800 299.673 C 107.250 299.422,106.800 299.283,106.800 299.363 M288.562 302.623 C 285.648 305.537,283.379 309.700,283.013 312.800 L 282.801 314.600 283.330 312.560 C 284.305 308.798,286.261 305.383,289.025 302.619 C 290.466 301.179,291.541 300.000,291.415 300.000 C 291.289 300.000,290.005 301.181,288.562 302.623 M317.228 302.025 C 318.453 303.221,319.783 304.701,320.182 305.312 C 320.582 305.924,321.000 306.334,321.111 306.222 C 321.415 305.918,317.749 301.757,316.280 300.739 C 315.520 300.211,315.904 300.733,317.228 302.025 M109.200 300.848 C 109.200 300.942,110.145 302.025,111.300 303.253 C 113.260 305.337,114.773 307.863,116.060 311.200 C 116.792 313.099,116.787 321.320,116.053 323.200 C 113.851 328.832,110.236 333.190,105.924 335.409 C 104.672 336.054,103.714 336.647,103.796 336.729 C 104.231 337.164,109.195 333.927,111.209 331.894 C 119.647 323.377,119.124 309.325,110.074 301.438 C 109.593 301.019,109.200 300.753,109.200 300.848 M142.028 302.676 C 142.013 303.158,142.180 303.664,142.400 303.800 C 142.873 304.092,142.873 303.701,142.400 302.600 C 142.069 301.829,142.055 301.831,142.028 302.676 M256.849 304.000 C 256.816 304.330,256.689 305.050,256.567 305.600 C 256.375 306.464,256.407 306.503,256.799 305.888 C 257.048 305.497,257.175 304.777,257.081 304.288 C 256.986 303.800,256.882 303.670,256.849 304.000 M142.800 305.510 C 142.800 306.193,142.977 306.862,143.194 306.996 C 143.440 307.148,143.494 306.745,143.337 305.920 C 143.000 304.151,142.800 303.999,142.800 305.510 M77.814 307.435 C 77.441 308.004,77.227 308.561,77.339 308.672 C 77.450 308.783,77.829 308.318,78.181 307.637 C 78.959 306.133,78.744 306.015,77.814 307.435 M255.853 308.541 C 255.686 309.388,255.641 310.175,255.755 310.288 C 256.058 310.591,256.497 308.585,256.314 307.732 C 256.220 307.290,256.037 307.611,255.853 308.541 M143.674 309.800 C 143.664 310.680,143.811 311.760,144.000 312.200 L 144.344 313.000 144.349 312.200 C 144.352 311.760,144.205 310.680,144.023 309.800 L 143.692 308.200 143.674 309.800 M76.673 309.753 C 76.523 310.145,76.411 310.766,76.425 311.133 C 76.442 311.575,76.581 311.474,76.837 310.834 C 77.049 310.303,77.161 309.682,77.085 309.454 C 77.009 309.227,76.824 309.361,76.673 309.753 M322.828 310.676 C 322.918 311.715,323.544 312.596,323.572 311.724 C 323.587 311.242,323.420 310.736,323.200 310.600 C 322.980 310.464,322.813 310.498,322.828 310.676 M75.867 312.267 C 75.720 312.413,75.624 313.358,75.653 314.367 L 75.707 316.200 75.995 314.200 C 76.303 312.071,76.288 311.846,75.867 312.267 M255.277 314.251 C 255.167 317.750,255.888 317.574,241.166 317.700 L 228.200 317.811 241.224 317.906 C 256.472 318.016,255.711 318.203,255.498 314.390 L 255.354 311.800 255.277 314.251 M323.800 317.177 C 323.800 319.568,323.932 321.316,324.094 321.062 C 324.459 320.487,324.442 314.447,324.072 313.515 C 323.922 313.138,323.800 314.786,323.800 317.177 M282.493 317.200 C 282.493 317.970,282.575 318.285,282.676 317.900 C 282.776 317.515,282.776 316.885,282.676 316.500 C 282.575 316.115,282.493 316.430,282.493 317.200 M75.650 319.772 C 75.622 320.636,75.805 321.986,76.056 322.772 C 76.308 323.557,76.582 324.451,76.666 324.757 C 76.750 325.064,76.902 325.232,77.003 325.131 C 77.104 325.030,76.996 324.329,76.764 323.574 C 76.532 322.818,76.197 321.300,76.021 320.200 C 75.706 318.239,75.699 318.231,75.650 319.772 M282.960 321.602 C 283.047 322.374,283.408 323.634,283.763 324.402 C 284.479 325.953,284.324 324.997,283.373 322.000 C 282.851 320.353,282.816 320.319,282.960 321.602 M323.029 323.029 C 322.881 323.615,322.851 324.184,322.961 324.294 C 323.071 324.404,323.281 324.015,323.429 323.429 C 323.576 322.842,323.606 322.273,323.496 322.163 C 323.386 322.053,323.176 322.442,323.029 323.029 M321.861 326.300 L 321.174 327.800 321.978 326.800 C 322.671 325.938,323.067 324.800,322.674 324.800 C 322.605 324.800,322.239 325.475,321.861 326.300 M77.200 325.788 C 77.200 327.737,83.781 334.770,86.500 335.728 C 87.756 336.171,87.237 335.635,85.601 334.800 C 83.449 333.703,79.760 329.889,78.561 327.523 C 77.705 325.833,77.200 325.190,77.200 325.788 M285.454 328.028 C 287.233 331.297,294.877 337.657,295.853 336.680 C 295.948 336.585,295.028 336.018,293.807 335.421 C 291.199 334.145,286.812 329.975,285.620 327.640 C 285.160 326.738,284.686 326.000,284.567 326.000 C 284.448 326.000,284.847 326.912,285.454 328.028 M320.281 329.039 C 319.886 329.568,319.708 330.000,319.885 330.000 C 320.234 330.000,321.338 328.401,321.128 328.200 C 321.057 328.133,320.677 328.511,320.281 329.039 M317.014 332.460 C 315.922 333.521,314.423 334.678,313.682 335.029 C 312.941 335.381,312.423 335.756,312.530 335.864 C 312.910 336.244,315.030 334.847,317.400 332.656 C 318.720 331.435,319.620 330.457,319.400 330.483 C 319.180 330.508,318.107 331.398,317.014 332.460 M309.866 336.674 C 308.803 337.000,308.025 337.359,308.139 337.473 C 308.390 337.724,311.248 336.844,311.780 336.352 C 312.226 335.939,312.327 335.922,309.866 336.674 M90.000 337.200 C 90.330 337.413,90.870 337.588,91.200 337.588 C 91.733 337.588,91.733 337.545,91.200 337.200 C 90.870 336.987,90.330 336.812,90.000 336.812 C 89.467 336.812,89.467 336.855,90.000 337.200 M101.600 337.200 C 101.067 337.545,101.067 337.588,101.600 337.588 C 101.930 337.588,102.470 337.413,102.800 337.200 C 103.333 336.855,103.333 336.812,102.800 336.812 C 102.470 336.812,101.930 336.987,101.600 337.200 M297.200 337.200 C 297.530 337.413,298.070 337.588,298.400 337.588 C 298.933 337.588,298.933 337.545,298.400 337.200 C 298.070 336.987,297.530 336.812,297.200 336.812 C 296.667 336.812,296.667 336.855,297.200 337.200 M94.534 338.110 C 95.776 338.360,97.065 338.362,98.134 338.115 C 99.613 337.775,99.396 337.731,96.200 337.726 C 92.814 337.720,92.715 337.743,94.534 338.110 M300.800 338.013 C 302.077 338.405,304.710 338.408,306.000 338.018 C 306.624 337.829,305.647 337.714,303.400 337.711 C 301.129 337.707,300.169 337.819,300.800 338.013 " stroke="none" fill="#537484" fill-rule="evenodd"></path><path id="path4" d="M52.169 111.136 C 46.898 113.602,46.809 118.128,51.905 124.612 C 54.570 128.003,59.783 134.696,63.529 139.535 C 64.778 141.149,66.610 143.509,67.600 144.780 C 68.590 146.051,72.730 151.367,76.800 156.593 C 80.870 161.819,85.432 167.648,86.938 169.545 C 90.517 174.055,90.505 174.028,89.955 176.211 C 87.341 186.595,97.966 195.795,108.166 191.978 C 118.431 188.138,119.857 173.806,110.567 167.833 C 108.438 166.463,106.772 165.937,103.634 165.642 L 101.068 165.400 98.434 161.982 C 96.985 160.102,92.294 154.072,88.008 148.582 C 83.722 143.092,77.916 135.630,75.104 132.000 C 59.901 112.369,60.332 112.901,58.698 111.738 C 56.776 110.371,54.294 110.142,52.169 111.136 M373.050 199.414 C 372.912 199.773,372.800 214.181,372.800 231.433 L 372.800 262.800 381.200 262.800 C 386.533 262.800,389.600 262.654,389.600 262.400 C 389.600 262.180,390.106 262.000,390.725 262.000 C 391.343 262.000,392.236 261.640,392.708 261.200 C 393.180 260.760,393.761 260.400,393.998 260.400 C 394.766 260.400,398.800 256.514,398.800 255.774 C 398.800 255.495,399.025 255.192,399.300 255.100 C 399.690 254.970,399.828 250.135,399.925 233.167 C 400.060 209.750,399.974 207.752,398.778 206.468 C 398.350 206.009,398.000 205.481,398.000 205.295 C 398.000 204.734,395.478 202.236,394.300 201.631 C 393.695 201.319,393.200 200.915,393.200 200.732 C 393.200 200.550,392.786 200.400,392.280 200.400 C 391.774 200.400,391.189 200.237,390.980 200.037 C 389.874 198.980,373.436 198.409,373.050 199.414 " stroke="none" fill="#d25524" fill-rule="evenodd"></path></g></svg>